<?xml version="1.0" standalone="no"?>
<!DOCTYPE svg PUBLIC "-//W3C//DTD SVG 1.1//EN" "http://www.w3.org/Graphics/SVG/1.1/DTD/svg11.dtd" >
<svg xmlns="http://www.w3.org/2000/svg" xmlns:xlink="http://www.w3.org/1999/xlink" version="1.1">
<metadata>
Created by FontForge 20170731 at Wed May  5 14:19:37 2021
 By Aleksey,,,
Copyright (c) 2014 by Rene' Bieder. All rights reserved.
</metadata>
<defs>
<font id="GalanoGrotesque-ExtraBold" horiz-adv-x="1249" >
  <font-face 
    font-family="Galano Grotesque ExtraBold"
    font-weight="800"
    font-stretch="normal"
    units-per-em="2048"
    panose-1="0 0 9 0 0 0 0 0 0 0"
    ascent="1638"
    descent="-410"
    x-height="1034"
    cap-height="1372"
    bbox="-342 -457 2601 1978"
    underline-thickness="102"
    underline-position="-307"
    unicode-range="U+0020-FB02"
  />
<missing-glyph horiz-adv-x="1585" 
d="M795 1401q192 0 355 -91.5t260 -257t97 -368.5q0 -153 -57 -287.5t-153.5 -227.5t-227 -146.5t-274.5 -53.5q-193 0 -356.5 91t-261 256t-97.5 368q0 202 97.5 367.5t261 257.5t356.5 92zM795 1288q-120 0 -229 -45.5t-189 -124.5t-127 -192.5t-47 -241.5t47 -240.5
t127 -191.5t189 -124.5t229 -45.5q119 0 227.5 45.5t188 124.5t126.5 191.5t47 240.5t-47 241.5t-126.5 192.5t-188 124.5t-227.5 45.5zM1083 821q0 -80 -53 -135.5t-147 -77.5v-51h-209v188h96q43 0 69.5 18t26.5 48q0 31 -21.5 50.5t-56.5 19.5t-59 -22.5t-29 -59.5
l-213 41q18 99 100 163t216 64q124 0 202 -70.5t78 -175.5zM774 508q51 0 85 -33.5t34 -79.5q0 -50 -33.5 -83t-85.5 -33q-51 0 -84 33t-33 83q0 45 33.5 79t83.5 34z" />
    <glyph glyph-name="fi" unicode="fi" horiz-adv-x="1366" 
d="M1059 1128q-93 0 -153 59.5t-60 149.5q0 85 60.5 147t152.5 62q93 0 155 -62t62 -147q0 -90 -61 -149.5t-156 -59.5zM1251 1034v-1034h-383v735h-325v-735h-385v735h-138v299h138v66q0 183 117 293t309 110q102 0 192 -33l-57 -296q-31 8 -60 8q-53 0 -84.5 -28.5
t-31.5 -78.5v-41h708z" />
    <glyph glyph-name="fl" unicode="fl" horiz-adv-x="1363" 
d="M657 1182q-52 0 -83 -28.5t-31 -78.5v-41h252v-299h-252v-735h-385v735h-138v299h138v66q0 183 117 293t307 110q119 0 223 -43l-76 -289q-37 11 -72 11zM1268 1475v-1475h-383v1475h383z" />
    <glyph glyph-name=".notdef" horiz-adv-x="1585" 
d="M795 1401q192 0 355 -91.5t260 -257t97 -368.5q0 -153 -57 -287.5t-153.5 -227.5t-227 -146.5t-274.5 -53.5q-193 0 -356.5 91t-261 256t-97.5 368q0 202 97.5 367.5t261 257.5t356.5 92zM795 1288q-120 0 -229 -45.5t-189 -124.5t-127 -192.5t-47 -241.5t47 -240.5
t127 -191.5t189 -124.5t229 -45.5q119 0 227.5 45.5t188 124.5t126.5 191.5t47 240.5t-47 241.5t-126.5 192.5t-188 124.5t-227.5 45.5zM1083 821q0 -80 -53 -135.5t-147 -77.5v-51h-209v188h96q43 0 69.5 18t26.5 48q0 31 -21.5 50.5t-56.5 19.5t-59 -22.5t-29 -59.5
l-213 41q18 99 100 163t216 64q124 0 202 -70.5t78 -175.5zM774 508q51 0 85 -33.5t34 -79.5q0 -50 -33.5 -83t-85.5 -33q-51 0 -84 33t-33 83q0 45 33.5 79t83.5 34z" />
    <glyph glyph-name=".null" horiz-adv-x="0" 
 />
    <glyph glyph-name="nonmarkingreturn" horiz-adv-x="682" 
 />
    <glyph glyph-name="space" unicode=" " horiz-adv-x="452" 
 />
    <glyph glyph-name="exclam" unicode="!" horiz-adv-x="626" 
d="M530 1372v-63l-30 -820h-373l-31 820v63h434zM322 399q92 0 153.5 -61t61.5 -145q0 -87 -61 -145t-154 -58q-92 0 -151.5 58t-59.5 145q0 84 60.5 145t150.5 61z" />
    <glyph glyph-name="quotedbl" unicode="&#x22;" horiz-adv-x="964" 
d="M88 694v678h344v-678h-344zM532 694v678h345v-678h-345z" />
    <glyph glyph-name="numbersign" unicode="#" horiz-adv-x="1495" 
d="M1184 784l-54 -221h203l-76 -276h-196l-70 -287h-303l70 287h-213l-72 -287h-303l72 287h-203l76 276h194l56 221h-203l74 277h196l78 311h303l-78 -311h215l76 311h303l-76 -311h201l-74 -277h-196zM881 784h-213l-56 -221h215z" />
    <glyph glyph-name="dollar" unicode="$" horiz-adv-x="1253" 
d="M1192 444q0 -90 -32 -163.5t-88 -123t-125 -81.5t-150 -47v-234h-318v240q-166 39 -280.5 145t-137.5 252l365 70q21 -99 81 -144t144 -45q65 0 108.5 27.5t43.5 71.5q0 33 -19.5 55t-68.5 33l-264 65q-357 85 -357 371q0 165 105 271.5t280 138.5v231h318v-238
q161 -36 262.5 -136.5t120.5 -248.5l-353 -61q-9 54 -31 91.5t-52 55t-58 24.5t-59 7q-61 0 -99.5 -27.5t-38.5 -74.5q0 -65 76 -82l258 -62q184 -45 276.5 -137t92.5 -244z" />
    <glyph glyph-name="percent" unicode="%" horiz-adv-x="1835" 
d="M451 1403q152 0 258 -98.5t106 -255.5t-106 -256t-258 -99q-154 0 -261.5 99t-107.5 256t107.5 255.5t261.5 98.5zM322 0l978 1372h205l-977 -1372h-206zM451 1184q-53 0 -92.5 -37t-39.5 -98q0 -60 40 -98t92 -38q50 0 88.5 38t38.5 98q0 61 -38 98t-89 37zM1389 678
q152 0 258 -98.5t106 -255.5t-106 -256t-258 -99q-154 0 -261.5 99t-107.5 256t107.5 255.5t261.5 98.5zM1389 459q-53 0 -92.5 -37t-39.5 -98q0 -60 40 -98t92 -38q50 0 88.5 38t38.5 98q0 61 -38 98t-89 37z" />
    <glyph glyph-name="ampersand" unicode="&#x26;" horiz-adv-x="1425" 
d="M1192 -55l-166 143q-180 -119 -418 -119q-241 0 -394 117t-153 309q0 115 61 204.5t171 150.5q-94 131 -94 264q0 174 131 281.5t338 107.5q110 0 196.5 -30t143 -83.5t90 -121.5t45.5 -150l-348 -66q-7 83 -38 118.5t-87 35.5q-47 0 -76 -26.5t-29 -71.5q0 -47 30 -93
t103 -112l254 -219q9 43 9 94v76h352v-76q0 -193 -74 -344l172 -148zM633 272q67 0 137 37l-262 228q-66 -53 -66 -117q0 -66 50.5 -107t140.5 -41z" />
    <glyph glyph-name="quotesingle" unicode="'" horiz-adv-x="522" 
d="M88 694v678h344v-678h-344z" />
    <glyph glyph-name="parenleft" unicode="(" horiz-adv-x="804" 
d="M461 688q0 -98 19.5 -182.5t60 -160.5t86.5 -137t116 -138l-268 -238q-95 90 -166 178.5t-129 194t-88.5 227.5t-30.5 256q0 135 30 257t88.5 227.5t129.5 194t166 179.5l258 -241q-67 -76 -110.5 -136t-83.5 -136t-59 -161t-19 -184z" />
    <glyph glyph-name="parenright" unicode=")" horiz-adv-x="804" 
d="M72 1305l260 241q94 -91 164.5 -179.5t128.5 -194t88 -227.5t30 -257q0 -134 -30 -256t-88 -227.5t-128.5 -194t-164.5 -178.5l-271 238q70 76 117 138t87.5 137.5t59.5 160t19 182.5q0 130 -37 243t-91 192.5t-144 181.5z" />
    <glyph glyph-name="asterisk" unicode="*" horiz-adv-x="915" 
d="M653 1098l197 -113l-98 -170l-187 107v-201h-215v203l-186 -107l-98 168l194 113l-194 110l98 172l186 -106v201h215v-201l187 106l98 -170z" />
    <glyph glyph-name="plus" unicode="+" horiz-adv-x="1161" 
d="M1079 469h-350v-352h-297v352h-350v297h350v352h297v-352h350v-297z" />
    <glyph glyph-name="comma" unicode="," horiz-adv-x="567" 
d="M287 -270h-293l119 630h413v-8z" />
    <glyph glyph-name="hyphen" unicode="-" horiz-adv-x="931" 
d="M809 395h-686v318h686v-318z" />
    <glyph glyph-name="period" unicode="." horiz-adv-x="522" 
d="M260 412q92 0 152.5 -63t60.5 -150q0 -90 -60 -149.5t-153 -59.5t-153 59.5t-60 149.5q0 87 60.5 150t152.5 63z" />
    <glyph glyph-name="slash" unicode="/" horiz-adv-x="923" 
d="M883 1518l-590 -1665h-252l590 1665h252z" />
    <glyph glyph-name="zero" unicode="0" horiz-adv-x="1357" 
d="M680 1403q278 0 448 -198t170 -519q0 -323 -170 -520t-448 -197q-280 0 -451.5 197.5t-171.5 519.5q0 212 77.5 375t219.5 252.5t326 89.5zM680 305q102 0 161.5 100.5t59.5 280.5t-59.5 279.5t-161.5 99.5q-104 0 -164.5 -100t-60.5 -279q0 -180 60.5 -280.5
t164.5 -100.5z" />
    <glyph glyph-name="one" unicode="1" horiz-adv-x="835" 
d="M717 1372v-1372h-387v918l-318 -162v362l451 254h254z" />
    <glyph glyph-name="two" unicode="2" horiz-adv-x="1173" 
d="M1108 338v-338h-1055h-2v260l488 434q48 44 67.5 63t49.5 54.5t41.5 66.5t11.5 66q0 60 -38 97.5t-98 37.5q-72 0 -115.5 -47.5t-49.5 -146.5l-373 69q10 209 155 329t377 120q233 0 376.5 -123t143.5 -336q0 -70 -17.5 -129t-58 -115t-83 -99.5t-115.5 -108.5l-178 -154
h473z" />
    <glyph glyph-name="three" unicode="3" horiz-adv-x="1196" 
d="M973 700q164 -92 164 -282q0 -196 -150.5 -322.5t-386.5 -126.5q-220 0 -373 117.5t-182 319.5l379 67q15 -89 61.5 -137.5t118.5 -48.5t118 38t46 99q0 58 -45 89.5t-125 31.5h-170v297h160q78 0 122 29.5t44 84.5q0 61 -42.5 98.5t-113.5 37.5t-117 -49t-55 -148
l-367 70q32 207 177 322.5t360 115.5q228 0 374 -123t146 -313q0 -175 -143 -267z" />
    <glyph glyph-name="four" unicode="4" horiz-adv-x="1302" 
d="M1257 225h-161v-225h-367v225h-694v355l594 794h467v-831h161v-318zM729 543v442l-313 -442h313z" />
    <glyph glyph-name="five" unicode="5" horiz-adv-x="1191" 
d="M467 895h172q240 0 369 -119t129 -325q0 -216 -147 -349t-388 -133q-229 0 -385 124t-168 345l373 70q3 -110 55.5 -161.5t128.5 -51.5q74 0 119 41t45 110q0 64 -47.5 104t-124.5 40h-485l30 784h936v-336h-606z" />
    <glyph glyph-name="six" unicode="6" 
d="M715 891q216 0 346.5 -125.5t130.5 -327.5q0 -206 -151 -337.5t-382 -131.5q-277 0 -439.5 182t-162.5 508q0 377 197 580q167 164 410 164q194 0 327.5 -90t175.5 -256l-368 -74q-16 57 -52.5 79.5t-97.5 22.5q-83 0 -143 -67q-77 -89 -80 -240q55 53 130 83t159 30z
M647 276q72 0 127 51t55 124q0 76 -54.5 126t-127.5 50q-71 0 -124.5 -50t-53.5 -126q0 -73 53.5 -124t124.5 -51z" />
    <glyph glyph-name="seven" unicode="7" horiz-adv-x="1071" 
d="M1030 1374v-289l-428 -1085h-416l420 1036h-586v338h1010z" />
    <glyph glyph-name="eight" unicode="8" horiz-adv-x="1185" 
d="M915 711q114 -47 176 -131t62 -201q0 -179 -155 -294.5t-406 -115.5q-248 0 -402.5 116t-154.5 296q0 117 61.5 200t175.5 128q-190 94 -190 303q0 167 145.5 279t366.5 112q220 0 365 -112t145 -279q0 -210 -189 -301zM592 1116q-65 0 -110.5 -38t-45.5 -101
q0 -64 45 -101.5t111 -37.5t113 38t47 103q0 62 -47 99.5t-113 37.5zM592 268q69 0 118.5 40.5t49.5 107.5q0 68 -49 107.5t-119 39.5q-68 0 -116 -39.5t-48 -107.5q0 -67 47.5 -107.5t116.5 -40.5z" />
    <glyph glyph-name="nine" unicode="9" 
d="M590 1403q277 0 439.5 -182t162.5 -508q0 -380 -197 -580q-164 -164 -409 -164q-194 0 -328 90.5t-176 255.5l369 74q18 -57 53.5 -79.5t95.5 -22.5q83 0 143 67q79 91 82 242q-54 -54 -130 -84.5t-160 -30.5q-216 0 -347 125.5t-131 327.5q0 206 151 337.5t382 131.5z
M602 745q72 0 125 50.5t53 126.5q0 74 -53 124t-125 50t-126 -50.5t-54 -123.5q0 -76 53.5 -126.5t126.5 -50.5z" />
    <glyph glyph-name="colon" unicode=":" horiz-adv-x="522" 
d="M260 1038q92 0 152.5 -63t60.5 -150q0 -90 -60 -149.5t-153 -59.5t-153 59.5t-60 149.5q0 87 60.5 150t152.5 63zM260 412q92 0 152.5 -63t60.5 -150q0 -90 -60 -149.5t-153 -59.5t-153 59.5t-60 149.5q0 87 60.5 150t152.5 63z" />
    <glyph glyph-name="semicolon" unicode=";" horiz-adv-x="593" 
d="M332 1038q92 0 153.5 -63t61.5 -150q0 -90 -61 -149.5t-154 -59.5q-92 0 -151.5 59.5t-59.5 149.5q0 87 60.5 150t150.5 63zM287 -270h-293l119 630h413v-8z" />
    <glyph glyph-name="less" unicode="&#x3c;" horiz-adv-x="995" 
d="M915 201l-852 293v348l852 293v-344l-473 -123l473 -125v-342z" />
    <glyph glyph-name="equal" unicode="=" horiz-adv-x="1161" 
d="M1079 696h-997v283h997v-283zM1079 291h-997v282h997v-282z" />
    <glyph glyph-name="greater" unicode="&#x3e;" horiz-adv-x="995" 
d="M555 668l-473 123v344l852 -293v-348l-852 -293v342z" />
    <glyph glyph-name="question" unicode="?" horiz-adv-x="1128" 
d="M602 1403q217 0 353.5 -125t136.5 -313q0 -146 -92.5 -246t-254.5 -139v-95h-376l2 340h172q74 0 119 32.5t45 86.5q0 57 -35.5 92t-93.5 35q-59 0 -99 -41.5t-49 -109.5l-383 77q35 178 177 292t378 114zM551 399q92 0 153.5 -61t61.5 -145q0 -87 -61 -145t-154 -58
q-92 0 -151.5 58t-59.5 145q0 84 60.5 145t150.5 61z" />
    <glyph glyph-name="at" unicode="@" horiz-adv-x="1900" 
d="M1391 954v-563q0 -38 25 -59t63 -21q48 0 82 48.5t49.5 119t15.5 152.5q0 178 -88 316t-236 211t-329 73q-195 0 -354.5 -86.5t-251 -242t-91.5 -347.5q0 -191 89.5 -342.5t247 -235t354.5 -83.5q135 0 251.5 41.5t233.5 130.5l92 -148q-233 -197 -575 -197
q-253 0 -454 106t-314 295.5t-113 426.5q0 243 117 439t319.5 305.5t448.5 109.5q173 0 327 -56.5t267 -156t179 -244t66 -311.5q0 -70 -11.5 -136t-41 -133t-74.5 -116t-118 -80t-166 -31q-191 0 -258 125q-91 -123 -271 -123q-170 0 -281.5 113t-111.5 303
q0 191 112.5 303.5t280.5 112.5q150 0 240 -90v71h279zM954 393q66 0 112 46.5t46 121.5q0 74 -46 119t-112 45t-112.5 -45t-46.5 -119q0 -75 46.5 -121.5t112.5 -46.5z" />
    <glyph glyph-name="A" unicode="A" horiz-adv-x="1540" 
d="M1540 0h-424l-76 209h-540l-78 -209h-422l553 1372h434zM922 539l-150 411l-151 -411h301z" />
    <glyph glyph-name="B" unicode="B" horiz-adv-x="1361" 
d="M1016 709v-9q56 -2 106 -20t92.5 -54t67.5 -97.5t25 -141.5q0 -175 -124.5 -281t-340.5 -106h-746v1372h746q192 0 308 -100t116 -266q0 -73 -24.5 -131.5t-63 -93t-80 -52.5t-82.5 -20zM489 1067v-254h244q66 0 107 35.5t41 93.5q0 56 -40 90.5t-102 34.5h-250zM489 305
h265q70 0 109.5 37.5t39.5 99.5q0 58 -40 92.5t-105 34.5h-269v-264z" />
    <glyph glyph-name="C" unicode="C" horiz-adv-x="1566" 
d="M801 324q119 0 200.5 67.5t110.5 192.5l393 -76q-44 -250 -233 -394.5t-471 -144.5q-153 0 -290.5 56t-236 151.5t-156 228.5t-57.5 281t57.5 281t156 228.5t236 151.5t290.5 56q172 0 320.5 -63t250.5 -183t133 -278l-393 -80q-29 121 -110.5 185.5t-200.5 64.5
q-145 0 -243.5 -104.5t-98.5 -258.5t98.5 -258t243.5 -104z" />
    <glyph glyph-name="D" unicode="D" horiz-adv-x="1484" 
d="M96 1372h580q222 0 392 -86t262.5 -242t92.5 -358t-92.5 -358t-262.5 -242t-392 -86h-580v1372zM489 332h158q170 0 274.5 98t104.5 256t-104.5 256t-274.5 98h-158v-708z" />
    <glyph glyph-name="E" unicode="E" horiz-adv-x="1263" 
d="M1188 332v-332h-1092v1372h1084v-332h-691v-202h635v-301h-635v-205h699z" />
    <glyph glyph-name="F" unicode="F" horiz-adv-x="1228" 
d="M489 1032v-241h623v-342h-623v-449h-393v1372h1096v-340h-703z" />
    <glyph glyph-name="G" unicode="G" horiz-adv-x="1597" 
d="M764 819h764q8 -110 8 -135q0 -208 -92.5 -371.5t-258 -253.5t-376.5 -90q-155 0 -293.5 56t-238 151.5t-158 228.5t-58.5 281t58 281t157.5 228.5t238 151.5t292.5 56q245 0 428.5 -109t251.5 -303l-400 -100q-82 158 -280 158q-151 0 -249.5 -104t-98.5 -259
t100 -258.5t254 -103.5q108 0 185.5 44.5t117.5 127.5h-352v323z" />
    <glyph glyph-name="H" unicode="H" horiz-adv-x="1480" 
d="M1386 1372v-1372h-395v522h-502v-522h-393v1372h393v-512h502v512h395z" />
    <glyph glyph-name="I" unicode="I" horiz-adv-x="585" 
d="M489 0h-393v1372h393v-1372z" />
    <glyph glyph-name="J" unicode="J" horiz-adv-x="1269" 
d="M1171 1372v-870q0 -238 -158 -385.5t-417 -147.5q-239 0 -388.5 128t-180.5 347l389 76q21 -201 180 -201q80 0 130 50.5t50 132.5v870h395z" />
    <glyph glyph-name="K" unicode="K" horiz-adv-x="1435" 
d="M1450 0h-508l-383 483h-70v-483h-393v1372h393v-518h50l407 518h465l-534 -690z" />
    <glyph glyph-name="L" unicode="L" horiz-adv-x="1189" 
d="M1137 338v-338h-1041v1372h393v-1034h648z" />
    <glyph glyph-name="M" unicode="M" horiz-adv-x="1828" 
d="M1733 1372v-1372h-385v678l-340 -678h-187l-340 674v-674h-385v1372h416l401 -790l404 790h416z" />
    <glyph glyph-name="N" unicode="N" horiz-adv-x="1540" 
d="M1446 1372v-1372h-326l-631 707v-707h-393v1372h324l631 -731v731h395z" />
    <glyph glyph-name="O" unicode="O" horiz-adv-x="1601" 
d="M801 1403q153 0 290.5 -56.5t235.5 -152t155.5 -228.5t57.5 -280q0 -148 -57.5 -281t-155.5 -228.5t-235.5 -151.5t-290.5 -56t-290.5 56t-236 151.5t-156 228.5t-57.5 281q0 147 57.5 280t156 228.5t236 152t290.5 56.5zM801 324q149 0 245.5 103t96.5 259
q0 155 -97 259t-245 104t-245 -104t-97 -259q0 -156 96.5 -259t245.5 -103z" />
    <glyph glyph-name="P" unicode="P" horiz-adv-x="1359" 
d="M96 1372h711q228 0 365 -133.5t137 -349.5q0 -225 -145 -361.5t-386 -136.5h-289v-391h-393v1372zM489 702h242q83 0 137 49t54 128q0 73 -54.5 120.5t-136.5 47.5h-242v-345z" />
    <glyph glyph-name="Q" unicode="Q" horiz-adv-x="1601" 
d="M1540 686q0 -157 -62.5 -293.5t-174.5 -236.5l208 -256l-292 -252l-275 334q-76 -13 -143 -13q-153 0 -290.5 56t-236 151.5t-156 228.5t-57.5 281q0 147 57.5 280t156 228.5t236 152t290.5 56.5t290.5 -56.5t235.5 -152t155.5 -228.5t57.5 -280zM459 686
q0 -156 96.5 -259t245.5 -103t245.5 103t96.5 259q0 155 -97 259t-245 104t-245 -104t-97 -259z" />
    <glyph glyph-name="R" unicode="R" horiz-adv-x="1398" 
d="M1393 0h-473l-377 438h-54v-438h-393v1372h731q221 0 357.5 -127t136.5 -334q0 -164 -88 -282t-242 -164zM489 750h265q83 0 131.5 41.5t48.5 109.5q0 65 -49 105.5t-131 40.5h-265v-297z" />
    <glyph glyph-name="S" unicode="S" horiz-adv-x="1333" 
d="M668 1403q243 0 399 -104t193 -295l-386 -78q-19 90 -77.5 131t-128.5 41q-65 0 -105.5 -30t-40.5 -81q0 -71 80 -88l279 -65q194 -49 292.5 -147.5t98.5 -260.5q0 -93 -33.5 -170.5t-90 -130t-132 -88t-158 -52t-170.5 -16.5q-253 0 -425.5 114.5t-201.5 309.5l402 76
q47 -182 233 -182q73 0 117.5 28.5t44.5 81.5q0 34 -20.5 56.5t-73.5 35.5l-285 68q-377 87 -377 397q0 141 75 244t201.5 154t289.5 51z" />
    <glyph glyph-name="T" unicode="T" horiz-adv-x="1337" 
d="M1296 1034h-430v-1034h-395v1034h-430v338h1255v-338z" />
    <glyph glyph-name="U" unicode="U" horiz-adv-x="1464" 
d="M1366 1372v-751q0 -298 -171 -475t-454 -177q-291 0 -467 177t-176 475v751h396v-751q0 -138 66.5 -216.5t180.5 -78.5q104 0 167 78.5t63 216.5v751h395z" />
    <glyph glyph-name="V" unicode="V" horiz-adv-x="1550" 
d="M1544 1372l-575 -1372h-387l-576 1372h438l332 -819l330 819h438z" />
    <glyph glyph-name="W" unicode="W" horiz-adv-x="2017" 
d="M2009 1372l-383 -1372h-424l-194 770l-195 -770h-424l-383 1372h404l215 -782l196 782h373l197 -782l215 782h403z" />
    <glyph glyph-name="X" unicode="X" horiz-adv-x="1441" 
d="M977 0l-256 428l-256 -428h-459l416 686l-404 686h457l246 -422l246 422h456l-405 -686l418 -686h-459z" />
    <glyph glyph-name="Y" unicode="Y" horiz-adv-x="1476" 
d="M1470 1372l-536 -952v-420h-410v420l-518 952h432l299 -557l297 557h436z" />
    <glyph glyph-name="Z" unicode="Z" horiz-adv-x="1318" 
d="M1253 332v-332h-1179v254l651 786h-635v332h1141v-305l-592 -735h614z" />
    <glyph glyph-name="bracketleft" unicode="[" horiz-adv-x="849" 
d="M442 1212v-1077h340v-303h-686v1686h686v-306h-340z" />
    <glyph glyph-name="backslash" unicode="\" horiz-adv-x="923" 
d="M883 -147h-252l-590 1665h252z" />
    <glyph glyph-name="bracketright" unicode="]" horiz-adv-x="849" 
d="M754 1518v-1686h-686v303h340v1077h-340v306h686z" />
    <glyph glyph-name="asciicircum" unicode="^" horiz-adv-x="991" 
d="M352 842h-325l325 530h287l326 -530h-326l-143 245z" />
    <glyph glyph-name="underscore" unicode="_" horiz-adv-x="1105" 
d="M1065 -379h-1024v264h1024v-264z" />
    <glyph glyph-name="grave" unicode="`" horiz-adv-x="1228" 
d="M700 1489l154 -328h-354l-260 328h460z" />
    <glyph glyph-name="a" unicode="a" horiz-adv-x="1323" 
d="M1227 1034v-1034h-383v84q-115 -115 -303 -115q-216 0 -358 152.5t-142 394.5q0 243 142 396t358 153q188 0 303 -115v84h383zM633 289q88 0 149.5 65.5t61.5 161.5q0 98 -61.5 163.5t-149.5 65.5q-94 0 -151.5 -64.5t-57.5 -164.5q0 -98 57.5 -162.5t151.5 -64.5z" />
    <glyph glyph-name="b" unicode="b" horiz-adv-x="1323" 
d="M782 1065q216 0 358 -153t142 -396q0 -242 -142 -394.5t-358 -152.5q-188 0 -303 115v-84h-383v1475h383v-525q115 115 303 115zM690 289q94 0 151.5 64.5t57.5 162.5q0 100 -57.5 164.5t-151.5 64.5q-88 0 -149.5 -65.5t-61.5 -163.5q0 -96 61.5 -161.5t149.5 -65.5z
" />
    <glyph glyph-name="c" unicode="c" horiz-adv-x="1193" 
d="M803 457l350 -68q-32 -189 -183.5 -304.5t-355.5 -115.5q-156 0 -286.5 68t-208.5 194t-78 285q0 160 78 286.5t208.5 194.5t286.5 68q202 0 352 -113.5t185 -300.5l-352 -73q-17 80 -66 121.5t-119 41.5q-91 0 -147.5 -64.5t-56.5 -160.5q0 -95 56.5 -159t147.5 -64
q69 0 119 42t70 122z" />
    <glyph glyph-name="d" unicode="d" horiz-adv-x="1323" 
d="M1227 1475v-1475h-383v84q-115 -115 -303 -115q-216 0 -358 152.5t-142 394.5q0 243 142 396t358 153q188 0 303 -115v525h383zM633 289q88 0 149.5 65.5t61.5 161.5q0 98 -61.5 163.5t-149.5 65.5q-94 0 -151.5 -64.5t-57.5 -164.5q0 -98 57.5 -162.5t151.5 -64.5z" />
    <glyph glyph-name="e" unicode="e" horiz-adv-x="1183" 
d="M1143 496v-72h-727q19 -75 67.5 -117.5t120.5 -42.5q130 0 182 101l342 -68q-63 -162 -200 -245t-324 -83q-154 0 -282 68t-204.5 194t-76.5 285q0 160 76.5 286.5t204.5 194.5t282 68q115 0 213.5 -38t170.5 -109t113 -179.5t42 -242.5zM604 766q-65 0 -113.5 -35
t-70.5 -96h352q-20 64 -64.5 97.5t-103.5 33.5z" />
    <glyph glyph-name="f" unicode="f" horiz-adv-x="788" 
d="M543 1034h252v-299h-252v-735h-385v735h-138v299h138v66q0 183 117 293t307 110q119 0 223 -43l-76 -289q-37 11 -72 11q-52 0 -83 -28.5t-31 -78.5v-41z" />
    <glyph glyph-name="g" unicode="g" horiz-adv-x="1310" 
d="M1214 1034l3 -930q0 -154 -82.5 -267.5t-219 -169.5t-307.5 -56q-371 0 -530 272l323 127q53 -62 98 -83t107 -21q100 0 165 54t65 159v45q-108 -105 -297 -105q-215 0 -356.5 141.5t-141.5 364.5q0 220 141.5 360t356.5 140q190 0 297 -104v73h378zM629 362q87 0 146 59
t59 144q0 87 -59 146t-146 59q-92 0 -149.5 -58.5t-57.5 -146.5q0 -86 57.5 -144.5t149.5 -58.5z" />
    <glyph glyph-name="h" unicode="h" horiz-adv-x="1269" 
d="M791 1065q176 0 282.5 -114.5t106.5 -309.5v-641h-385v559q0 74 -40 119t-106 45q-78 0 -124 -57t-46 -164v-502h-383v1475h383v-545q126 135 312 135z" />
    <glyph glyph-name="i" unicode="i" horiz-adv-x="612" 
d="M305 1546q92 0 153.5 -62t61.5 -147q0 -90 -61 -149.5t-154 -59.5q-94 0 -154.5 59.5t-60.5 149.5q0 85 61 147t154 62zM498 0h-383v1034h383v-1034z" />
    <glyph glyph-name="j" unicode="j" horiz-adv-x="634" 
d="M328 1546q92 0 153.5 -62t61.5 -147q0 -90 -61 -149.5t-154 -59.5q-94 0 -154.5 59.5t-60.5 149.5q0 85 61 147t154 62zM-59 -319l53 276q52 -10 69 -10q34 0 54 22.5t20 59.5v1005h385v-1040q0 -163 -98 -263t-258 -100q-115 0 -225 50z" />
    <glyph glyph-name="k" unicode="k" horiz-adv-x="1282" 
d="M1296 0h-477l-276 344h-64v-344h-383v1475h383v-783h45l281 342h452l-409 -491z" />
    <glyph glyph-name="l" unicode="l" horiz-adv-x="575" 
d="M479 0h-383v1475h383v-1475z" />
    <glyph glyph-name="m" unicode="m" horiz-adv-x="1953" 
d="M1475 1065q169 0 278 -116t109 -304v-645h-383v565q0 71 -41 114.5t-103 43.5q-75 0 -120.5 -56t-45.5 -153v-514h-383v565q0 71 -40.5 114.5t-104.5 43.5q-74 0 -118 -56t-44 -153v-514h-383v1034h383v-102q114 133 303 133q109 0 196 -47t136 -133q130 180 361 180z
" />
    <glyph glyph-name="n" unicode="n" horiz-adv-x="1269" 
d="M791 1065q176 0 282.5 -114.5t106.5 -309.5v-641h-385v559q0 74 -40 119t-106 45q-78 0 -124 -57t-46 -164v-502h-383v1034h383v-104q126 135 312 135z" />
    <glyph glyph-name="o" unicode="o" horiz-adv-x="1241" 
d="M621 1063q158 0 289.5 -67.5t210.5 -193.5t79 -286q0 -159 -79 -284.5t-211 -193t-289 -67.5t-289 67.5t-211.5 193t-79.5 284.5q0 160 79.5 286t211 193.5t289.5 67.5zM621 289q87 0 148.5 65.5t61.5 161.5q0 97 -61.5 162t-148.5 65t-149 -65t-62 -162q0 -96 62 -161.5
t149 -65.5z" />
    <glyph glyph-name="p" unicode="p" horiz-adv-x="1323" 
d="M782 1065q216 0 358 -153t142 -396q0 -242 -142 -394.5t-358 -152.5q-188 0 -303 115v-432h-383v1382h383v-84q115 115 303 115zM690 289q94 0 151.5 64.5t57.5 162.5q0 100 -57.5 164.5t-151.5 64.5q-88 0 -149.5 -65.5t-61.5 -163.5q0 -96 61.5 -161.5t149.5 -65.5z
" />
    <glyph glyph-name="q" unicode="q" horiz-adv-x="1323" 
d="M1227 1034v-1382h-383v432q-115 -115 -303 -115q-216 0 -358 152.5t-142 394.5q0 243 142 396t358 153q188 0 303 -115v84h383zM633 289q88 0 149.5 65.5t61.5 161.5q0 98 -61.5 163.5t-149.5 65.5q-94 0 -151.5 -64.5t-57.5 -164.5q0 -98 57.5 -162.5t151.5 -64.5z" />
    <glyph glyph-name="r" unicode="r" horiz-adv-x="909" 
d="M823 1047q43 0 74 -7l-14 -395h-62q-166 0 -254 -77t-88 -255v-313h-383v1034h383v-205q115 218 344 218z" />
    <glyph glyph-name="s" unicode="s" horiz-adv-x="1077" 
d="M39 268l367 72q13 -50 55 -75t98 -25q52 0 80.5 17.5t28.5 43.5t-21.5 39.5t-73.5 21.5l-206 35q-308 55 -308 308q0 166 131 263t332 97q202 0 329.5 -75.5t164.5 -213.5l-344 -67q-7 39 -47 70.5t-101 31.5q-49 0 -72.5 -17.5t-23.5 -43.5q0 -41 68 -56l235 -47
q153 -29 229 -114.5t76 -213.5q0 -166 -135.5 -258t-349.5 -92q-204 0 -342 74.5t-170 224.5z" />
    <glyph glyph-name="t" unicode="t" horiz-adv-x="882" 
d="M801 334l76 -289q-139 -76 -295 -76q-201 0 -309.5 109t-108.5 305v352h-158v299h158v297h383v-297h274v-299h-274v-309q0 -125 123 -125q67 0 131 33z" />
    <glyph glyph-name="u" unicode="u" horiz-adv-x="1269" 
d="M1174 1034v-1034h-383v104q-126 -135 -312 -135q-176 0 -282.5 114.5t-106.5 309.5v641h385v-559q0 -74 40 -119t106 -45q78 0 124 57t46 164v502h383z" />
    <glyph glyph-name="v" unicode="v" 
d="M1243 1034l-426 -1034h-385l-426 1034h402l217 -569l217 569h401z" />
    <glyph glyph-name="w" unicode="w" horiz-adv-x="1644" 
d="M1638 1034l-323 -1034h-326l-166 510l-168 -510h-325l-324 1034h377l137 -475l176 475h252l176 -475l138 475h376z" />
    <glyph glyph-name="x" unicode="x" horiz-adv-x="1261" 
d="M901 498l334 -498h-430l-174 266l-172 -266h-432l335 498l-335 536h432l172 -289l174 289h430z" />
    <glyph glyph-name="y" unicode="y" horiz-adv-x="1277" 
d="M1272 1034l-598 -1382h-404l166 385l-430 997h406l219 -547l235 547h406z" />
    <glyph glyph-name="z" unicode="z" horiz-adv-x="1132" 
d="M1065 299v-299h-997v246l477 489h-465v299h971v-252l-476 -483h490z" />
    <glyph glyph-name="braceleft" unicode="{" horiz-adv-x="854" 
d="M565 1161v-272q0 -75 -29.5 -131.5t-86.5 -83.5q57 -27 86.5 -83.5t29.5 -131.5v-273q0 -23 13.5 -37t35.5 -14h172v-303h-294q-123 0 -198 73.5t-75 194.5v308q0 42 -27 65t-77 37l-74 20v287l74 21q50 14 77 37t27 65v307q0 122 75 196.5t198 74.5h294v-304h-172
q-22 0 -35.5 -15t-13.5 -38z" />
    <glyph glyph-name="bar" unicode="|" horiz-adv-x="538" 
d="M442 -147h-346v1665h346v-1665z" />
    <glyph glyph-name="braceright" unicode="}" horiz-adv-x="854" 
d="M813 817v-287l-74 -20q-49 -13 -75.5 -36t-26.5 -66v-308q0 -121 -76 -194.5t-199 -73.5h-294v303h174q22 0 34.5 14t12.5 37v273q0 75 30 131.5t89 83.5q-59 27 -89 83.5t-30 131.5v272q0 24 -13 38.5t-34 14.5h-174v304h294q123 0 199 -75t76 -196v-307q0 -43 26.5 -66
t75.5 -36z" />
    <glyph glyph-name="asciitilde" unicode="~" horiz-adv-x="1050" 
d="M346 463h-274q0 81 18 146.5t46.5 106.5t66 69t74 39.5t73.5 11.5q50 0 96 -13.5t74 -29.5t58.5 -29.5t52.5 -13.5q32 0 50.5 20t18.5 51h281q0 -81 -19 -147t-49 -107.5t-68.5 -69.5t-76 -39.5t-74.5 -11.5q-63 0 -117 20t-93 40t-66 20t-46.5 -18t-25.5 -45z" />
    <glyph glyph-name="exclamdown" unicode="&#xa1;" horiz-adv-x="626" 
d="M322 653q-90 0 -150.5 61.5t-60.5 145.5q0 87 59.5 145t151.5 58q93 0 154 -58t61 -145q0 -84 -61.5 -145.5t-153.5 -61.5zM96 -256l31 819h373l30 -819v-63h-434v63z" />
    <glyph glyph-name="cent" unicode="&#xa2;" horiz-adv-x="1193" 
d="M803 457l350 -68q-26 -151 -128.5 -256.5t-252.5 -142.5v-256h-315v256q-183 45 -299.5 187.5t-116.5 338.5q0 198 116.5 340.5t299.5 187.5v246h315v-246q147 -37 249.5 -141t129.5 -252l-352 -73q-17 80 -66 121.5t-119 41.5q-91 0 -147.5 -64.5t-56.5 -160.5
q0 -95 56.5 -159t147.5 -64q69 0 119 42t70 122z" />
    <glyph glyph-name="sterling" unicode="&#xa3;" horiz-adv-x="1224" 
d="M1182 332v-332h-1114v250l129 41v174h-129v311h129v168q0 207 135 333t356 126q208 0 341.5 -122t150.5 -318l-369 -66q-10 89 -41 126.5t-82 37.5q-50 0 -79 -31.5t-29 -85.5v-168h329v-311h-329v-133h602z" />
    <glyph glyph-name="yen" unicode="&#xa5;" horiz-adv-x="1441" 
d="M1018 666h242v-220h-351v-75h351v-217h-351v-154h-393v154h-332v217h332v75h-332v220h226l-383 706h411l275 -534l274 534h428z" />
    <glyph glyph-name="section" unicode="&#xa7;" horiz-adv-x="1150" 
d="M1104 537q0 -191 -166 -295q51 -76 51 -183q0 -118 -59 -199t-152.5 -117t-214.5 -36q-211 0 -329 100t-130 269l318 59q10 -151 123 -151q39 0 65.5 23.5t26.5 60.5q0 56 -90 92l-242 92q-137 49 -200.5 128t-63.5 195q0 191 166 293q-51 79 -51 185q0 118 58.5 198.5
t152 116t215.5 35.5q202 0 318.5 -98t127.5 -258l-319 -58q-4 75 -35 106t-74 31q-40 0 -66 -22.5t-26 -61.5q0 -28 19 -49.5t71 -40.5l242 -92q137 -51 200.5 -129.5t63.5 -193.5zM705 414l18 -8q51 39 51 86q0 32 -18 54t-64 44l-252 106l-20 9q-49 -36 -49 -84
q0 -34 18.5 -56.5t63.5 -42.5z" />
    <glyph glyph-name="dieresis" unicode="&#xa8;" horiz-adv-x="1228" 
d="M371 1522q87 0 145.5 -58.5t58.5 -138.5q0 -88 -57.5 -144.5t-146.5 -56.5t-146 56.5t-57 144.5q0 80 58 138.5t145 58.5zM858 1522q87 0 146 -58.5t59 -138.5q0 -88 -58 -144.5t-147 -56.5t-146 56.5t-57 144.5q0 80 58 138.5t145 58.5z" />
    <glyph glyph-name="copyright" unicode="&#xa9;" horiz-adv-x="1550" 
d="M774 1403q194 0 358 -91.5t261.5 -257.5t97.5 -370q0 -154 -57.5 -288.5t-154.5 -227.5t-228.5 -146t-276.5 -53q-146 0 -278 53.5t-229 146.5t-154.5 227.5t-57.5 287.5q0 203 97.5 369t262 258t359.5 92zM774 1288q-120 0 -229 -45.5t-189 -124.5t-127 -192.5
t-47 -241.5t47 -240t127 -190t189 -123t229 -45t228 45t188 123t127 190t47 240t-47 241.5t-127 192.5t-188.5 124.5t-227.5 45.5zM786 1069q152 0 253.5 -85.5t109.5 -209.5l-215 -41q-10 56 -52 87.5t-102 31.5q-68 0 -113.5 -47.5t-45.5 -120.5t45.5 -120.5t113.5 -47.5
q61 0 103 33.5t51 95.5l219 -37q-9 -134 -111 -221.5t-256 -87.5q-164 0 -279.5 108t-115.5 277t115.5 277t279.5 108z" />
    <glyph glyph-name="ordfeminine" unicode="&#xaa;" horiz-adv-x="798" 
d="M414 1382q156 0 251 -73t95 -219v-416h-268v41q-75 -62 -191 -62q-115 0 -185.5 62.5t-70.5 165.5q0 102 82.5 160.5t230.5 58.5h134v20q0 30 -19.5 49t-52.5 19q-59 0 -80 -55l-250 43q28 99 110.5 152.5t213.5 53.5zM391 829q45 0 73 26t28 71v28h-93
q-37 0 -58.5 -16.5t-21.5 -44.5q0 -29 20 -46.5t52 -17.5z" />
    <glyph glyph-name="guillemotleft" unicode="&#xab;" horiz-adv-x="1103" 
d="M51 537l203 364h348l-203 -364l203 -365h-348zM502 537l203 364h348l-203 -364l203 -365h-348z" />
    <glyph glyph-name="registered" unicode="&#xae;" horiz-adv-x="968" 
d="M485 1403q171 0 290.5 -117t119.5 -295q0 -176 -119.5 -292.5t-290.5 -116.5t-290 116.5t-119 292.5q0 178 119 295t290 117zM485 674q131 0 223.5 91t92.5 226q0 138 -92.5 230t-223.5 92t-222 -92t-91 -230q0 -135 91.5 -226t221.5 -91zM664 1061q0 -82 -78 -119
l98 -121h-125l-82 107h-41v-107h-104v367h186q69 0 107.5 -35t38.5 -92zM436 1014h74q25 0 40 13t15 32t-14.5 31t-40.5 12h-74v-88z" />
    <glyph glyph-name="macron" unicode="&#xaf;" horiz-adv-x="1228" 
d="M967 1165h-705v287h705v-287z" />
    <glyph glyph-name="degree" unicode="&#xb0;" horiz-adv-x="901" 
d="M451 1403q139 0 236 -90t97 -234q0 -143 -97 -232t-236 -89t-236.5 89.5t-97.5 231.5q0 144 97.5 234t236.5 90zM451 958q47 0 81.5 33t34.5 88q0 56 -34.5 89.5t-81.5 33.5t-82 -33.5t-35 -89.5q0 -54 35 -87.5t82 -33.5z" />
    <glyph glyph-name="plusminus" unicode="&#xb1;" horiz-adv-x="1161" 
d="M1079 987v-297h-350v-276h-297v276h-350v297h350v320h297v-320h350zM82 297h997v-297h-997v297z" />
    <glyph glyph-name="acute" unicode="&#xb4;" horiz-adv-x="1228" 
d="M709 1161h-355l154 328h461z" />
    <glyph glyph-name="paragraph" unicode="&#xb6;" horiz-adv-x="1259" 
d="M819 0h-248v612h-102q-186 0 -307 105.5t-121 281.5q0 181 107.5 277t291.5 96h379v-1372zM1165 0h-250v1372h250v-1372z" />
    <glyph glyph-name="periodcentered" unicode="&#xb7;" horiz-adv-x="522" 
d="M260 752q92 0 152.5 -63t60.5 -150q0 -90 -60 -149.5t-153 -59.5t-153 59.5t-60 149.5q0 87 60.5 150t152.5 63z" />
    <glyph glyph-name="cedilla" unicode="&#xb8;" horiz-adv-x="1228" 
d="M545 0h272l-88 -328h-395z" />
    <glyph glyph-name="ordmasculine" unicode="&#xba;" horiz-adv-x="856" 
d="M426 1382q164 0 277.5 -102t113.5 -262t-113.5 -262.5t-277.5 -102.5q-160 0 -273.5 103t-113.5 262t113 261.5t274 102.5zM426 889q55 0 90 37t35 92t-35 92t-90 37q-52 0 -86.5 -37.5t-34.5 -91.5t34.5 -91.5t86.5 -37.5z" />
    <glyph glyph-name="guillemotright" unicode="&#xbb;" horiz-adv-x="1103" 
d="M51 172l203 365l-203 364h348l203 -364l-203 -365h-348zM502 172l203 365l-203 364h348l203 -364l-203 -365h-348z" />
    <glyph glyph-name="onequarter" unicode="&#xbc;" horiz-adv-x="1558" 
d="M199 1065l-170 -92v244l254 155h166v-792h-250v485zM1362 1372l-979 -1372h-205l979 1372h205zM1528 121h-96v-121h-234v121h-401v225l342 447h293v-469h96v-203zM1198 324v221l-164 -221h164z" />
    <glyph glyph-name="onehalf" unicode="&#xbd;" horiz-adv-x="1640" 
d="M199 1065l-170 -92v244l254 155h166v-792h-250v485zM1335 1372l-979 -1372h-204l976 1372h207zM1290 211h242v-211h-614v154l282 256q38 36 52 50t27 35t13 42q0 29 -18 46t-47 17q-35 0 -58 -26t-24 -80l-230 43q0 122 85 198t227 76q138 0 223.5 -72t85.5 -200
q0 -78 -38.5 -132.5t-121.5 -123.5z" />
    <glyph glyph-name="threequarters" unicode="&#xbe;" horiz-adv-x="1697" 
d="M680 827q0 -111 -92 -186.5t-232 -75.5q-132 0 -220.5 70.5t-100.5 187.5l225 43q21 -96 100 -96q37 0 58.5 17.5t21.5 46.5t-24 47t-64 18h-90v172h82q40 0 65 16.5t25 45.5q0 28 -22 45.5t-58 17.5q-37 0 -60.5 -24.5t-27.5 -69.5l-225 43q11 104 98 176t213 72
q137 0 225.5 -72.5t88.5 -181.5q0 -94 -93 -150q107 -55 107 -162zM1495 1372l-979 -1372h-205l977 1372h207zM1667 121h-96v-121h-234v121h-401v225l342 447h293v-469h96v-203zM1337 324v221l-163 -221h163z" />
    <glyph glyph-name="questiondown" unicode="&#xbf;" horiz-adv-x="1128" 
d="M578 655q-92 0 -152.5 60.5t-60.5 144.5q0 88 60 146.5t153 58.5t153 -58.5t60 -146.5q0 -84 -60.5 -144.5t-152.5 -60.5zM700 135l381 -78q-22 -115 -88 -204t-186 -145t-279 -56q-218 0 -354.5 124.5t-136.5 313.5q0 146 92 246t254 139v94h377l-2 -340h-172
q-74 0 -119 -32t-45 -86q0 -57 36 -92t93 -35q61 0 100.5 40.5t48.5 110.5z" />
    <glyph glyph-name="Agrave" unicode="&#xc0;" horiz-adv-x="1540" 
d="M606 1499l-260 328h461l154 -328h-355zM1540 0h-424l-76 209h-540l-78 -209h-422l553 1372h434zM922 539l-150 411l-151 -411h301z" />
    <glyph glyph-name="Aacute" unicode="&#xc1;" horiz-adv-x="1540" 
d="M946 1499h-354l153 328h461zM1540 0h-424l-76 209h-540l-78 -209h-422l553 1372h434zM922 539l-150 411l-151 -411h301z" />
    <glyph glyph-name="Acircumflex" unicode="&#xc2;" horiz-adv-x="1540" 
d="M698 1493h-362l239 332h392l241 -332h-364l-72 102zM1540 0h-424l-76 209h-540l-78 -209h-422l553 1372h434zM922 539l-150 411l-151 -411h301z" />
    <glyph glyph-name="Atilde" unicode="&#xc3;" horiz-adv-x="1540" 
d="M680 1573q-30 0 -44.5 -14t-25.5 -48h-215q0 167 72 262t180 95q54 0 98.5 -19t80 -38t67.5 -19q29 0 44 15.5t26 52.5h215q0 -167 -72 -262t-180 -95q-54 0 -98 17.5t-79.5 35t-68.5 17.5zM1540 0h-424l-76 209h-540l-78 -209h-422l553 1372h434zM922 539l-150 411
l-151 -411h301z" />
    <glyph glyph-name="Adieresis" unicode="&#xc4;" horiz-adv-x="1540" 
d="M528 1462q-89 0 -145.5 56.5t-56.5 144.5q0 80 57.5 138.5t144.5 58.5t146 -58.5t59 -138.5q0 -88 -58 -144.5t-147 -56.5zM1016 1462q-89 0 -146 56.5t-57 144.5q0 80 58 138.5t145 58.5t146 -58.5t59 -138.5q0 -88 -58 -144.5t-147 -56.5zM1540 0h-424l-76 209h-540
l-78 -209h-422l553 1372h434zM922 539l-150 411l-151 -411h301z" />
    <glyph glyph-name="Aring" unicode="&#xc5;" horiz-adv-x="1540" 
d="M772 1450q-115 0 -194.5 77t-79.5 187t79.5 187t194.5 77t195 -77t80 -187t-80 -187t-195 -77zM772 1794q-35 0 -59.5 -23.5t-24.5 -56.5t24.5 -56.5t59.5 -23.5t59.5 23.5t24.5 56.5t-24.5 56.5t-59.5 23.5zM1540 0h-424l-76 209h-540l-78 -209h-422l553 1372h434z
M922 539l-150 411l-151 -411h301z" />
    <glyph glyph-name="AE" unicode="&#xc6;" horiz-adv-x="2152" 
d="M2085 332v-332h-1094v195h-422l-106 -195h-463l838 1372h1239v-332h-691v-202h633v-301h-633v-205h699zM991 522v439l-241 -439h241z" />
    <glyph glyph-name="Ccedilla" unicode="&#xc7;" horiz-adv-x="1566" 
d="M801 324q119 0 200.5 67.5t110.5 192.5l393 -76q-40 -223 -196 -363.5t-394 -169.5l-81 -303h-396l201 314q-253 53 -415.5 247t-162.5 453q0 148 57.5 281t156 228.5t236 151.5t290.5 56q172 0 320.5 -63t250.5 -183t133 -278l-393 -80q-29 121 -110.5 185.5
t-200.5 64.5q-145 0 -243.5 -104.5t-98.5 -258.5t98.5 -258t243.5 -104z" />
    <glyph glyph-name="Egrave" unicode="&#xc8;" horiz-adv-x="1263" 
d="M481 1499l-260 328h461l154 -328h-355zM1188 332v-332h-1092v1372h1084v-332h-691v-202h635v-301h-635v-205h699z" />
    <glyph glyph-name="Eacute" unicode="&#xc9;" horiz-adv-x="1263" 
d="M823 1499h-354l154 328h460zM1188 332v-332h-1092v1372h1084v-332h-691v-202h635v-301h-635v-205h699z" />
    <glyph glyph-name="Ecircumflex" unicode="&#xca;" horiz-adv-x="1263" 
d="M573 1493h-362l240 332h391l241 -332h-364l-72 102zM1188 332v-332h-1092v1372h1084v-332h-691v-202h635v-301h-635v-205h699z" />
    <glyph glyph-name="Edieresis" unicode="&#xcb;" horiz-adv-x="1263" 
d="M403 1462q-89 0 -145.5 56.5t-56.5 144.5q0 80 57.5 138.5t144.5 58.5t146 -58.5t59 -138.5q0 -88 -58 -144.5t-147 -56.5zM891 1462q-89 0 -146 56.5t-57 144.5q0 80 58 138.5t145 58.5t146 -58.5t59 -138.5q0 -88 -58 -144.5t-147 -56.5zM1188 332v-332h-1092v1372
h1084v-332h-691v-202h635v-301h-635v-205h699z" />
    <glyph glyph-name="Igrave" unicode="&#xcc;" horiz-adv-x="585" 
d="M328 1827l153 -328h-354l-260 328h461zM489 0h-393v1372h393v-1372z" />
    <glyph glyph-name="Iacute" unicode="&#xcd;" horiz-adv-x="585" 
d="M469 1499h-354l153 328h461zM489 0h-393v1372h393v-1372z" />
    <glyph glyph-name="Icircumflex" unicode="&#xce;" horiz-adv-x="585" 
d="M221 1493h-362l239 332h391l242 -332h-364l-72 102zM96 1372h393v-1372h-393v1372z" />
    <glyph glyph-name="Idieresis" unicode="&#xcf;" horiz-adv-x="585" 
d="M49 1860q87 0 146 -58.5t59 -138.5q0 -88 -58 -144.5t-147 -56.5t-146 56.5t-57 144.5q0 80 58 138.5t145 58.5zM537 1860q87 0 145.5 -58.5t58.5 -138.5q0 -88 -57.5 -144.5t-146.5 -56.5t-146 56.5t-57 144.5q0 80 58 138.5t145 58.5zM489 0h-393v1372h393v-1372z" />
    <glyph glyph-name="Eth" unicode="&#xd0;" horiz-adv-x="1499" 
d="M129 1372h580q337 0 543 -189.5t206 -496.5t-206 -496.5t-543 -189.5h-580v516h-94v338h94v518zM524 332h158q170 0 273.5 97.5t103.5 256.5t-103.5 256.5t-273.5 97.5h-158v-186h191v-338h-191v-184z" />
    <glyph glyph-name="Ntilde" unicode="&#xd1;" horiz-adv-x="1540" 
d="M684 1573q-30 0 -44.5 -14t-25.5 -48h-215q0 167 72 262t180 95q54 0 98.5 -19t80 -38t67.5 -19q29 0 44 15.5t26 52.5h215q0 -167 -72 -262t-180 -95q-54 0 -98 17.5t-79.5 35t-68.5 17.5zM1446 1372v-1372h-326l-631 707v-707h-393v1372h324l631 -731v731h395z" />
    <glyph glyph-name="Ograve" unicode="&#xd2;" horiz-adv-x="1601" 
d="M635 1499l-260 328h461l153 -328h-354zM801 1403q153 0 290.5 -56.5t235.5 -152t155.5 -228.5t57.5 -280q0 -148 -57.5 -281t-155.5 -228.5t-235.5 -151.5t-290.5 -56t-290.5 56t-236 151.5t-156 228.5t-57.5 281q0 147 57.5 280t156 228.5t236 152t290.5 56.5zM801 324
q149 0 245.5 103t96.5 259q0 155 -97 259t-245 104t-245 -104t-97 -259q0 -156 96.5 -259t245.5 -103z" />
    <glyph glyph-name="Oacute" unicode="&#xd3;" horiz-adv-x="1601" 
d="M977 1499h-354l153 328h461zM801 1403q153 0 290.5 -56.5t235.5 -152t155.5 -228.5t57.5 -280q0 -148 -57.5 -281t-155.5 -228.5t-235.5 -151.5t-290.5 -56t-290.5 56t-236 151.5t-156 228.5t-57.5 281q0 147 57.5 280t156 228.5t236 152t290.5 56.5zM801 324
q149 0 245.5 103t96.5 259q0 155 -97 259t-245 104t-245 -104t-97 -259q0 -156 96.5 -259t245.5 -103z" />
    <glyph glyph-name="Ocircumflex" unicode="&#xd4;" horiz-adv-x="1601" 
d="M727 1493h-362l239 332h391l242 -332h-365l-71 102zM801 1403q153 0 290.5 -56.5t235.5 -152t155.5 -228.5t57.5 -280q0 -148 -57.5 -281t-155.5 -228.5t-235.5 -151.5t-290.5 -56t-290.5 56t-236 151.5t-156 228.5t-57.5 281q0 147 57.5 280t156 228.5t236 152
t290.5 56.5zM801 324q149 0 245.5 103t96.5 259q0 155 -97 259t-245 104t-245 -104t-97 -259q0 -156 96.5 -259t245.5 -103z" />
    <glyph glyph-name="Otilde" unicode="&#xd5;" horiz-adv-x="1601" 
d="M711 1573q-30 0 -44.5 -14t-25.5 -48h-215q0 167 72 262t180 95q54 0 98.5 -19t80 -38t67.5 -19q29 0 43.5 15.5t25.5 52.5h215q0 -167 -72 -262t-180 -95q-54 0 -98 17.5t-79 35t-68 17.5zM801 1403q153 0 290.5 -56.5t235.5 -152t155.5 -228.5t57.5 -280
q0 -148 -57.5 -281t-155.5 -228.5t-235.5 -151.5t-290.5 -56t-290.5 56t-236 151.5t-156 228.5t-57.5 281q0 147 57.5 280t156 228.5t236 152t290.5 56.5zM801 324q149 0 245.5 103t96.5 259q0 155 -97 259t-245 104t-245 -104t-97 -259q0 -156 96.5 -259t245.5 -103z" />
    <glyph glyph-name="Odieresis" unicode="&#xd6;" horiz-adv-x="1601" 
d="M557 1462q-89 0 -146 56.5t-57 144.5q0 80 58 138.5t145 58.5t146 -58.5t59 -138.5q0 -88 -58 -144.5t-147 -56.5zM1044 1462q-89 0 -145.5 56.5t-56.5 144.5q0 80 57.5 138.5t144.5 58.5t146 -58.5t59 -138.5q0 -88 -58 -144.5t-147 -56.5zM801 1403q153 0 290.5 -56.5
t235.5 -152t155.5 -228.5t57.5 -280q0 -148 -57.5 -281t-155.5 -228.5t-235.5 -151.5t-290.5 -56t-290.5 56t-236 151.5t-156 228.5t-57.5 281q0 147 57.5 280t156 228.5t236 152t290.5 56.5zM801 324q149 0 245.5 103t96.5 259q0 155 -97 259t-245 104t-245 -104t-97 -259
q0 -156 96.5 -259t245.5 -103z" />
    <glyph glyph-name="multiply" unicode="&#xd7;" horiz-adv-x="1095" 
d="M756 618l266 -266l-207 -209l-268 267l-266 -267l-209 209l266 266l-266 265l209 209l266 -267l268 267l207 -209z" />
    <glyph glyph-name="Oslash" unicode="&#xd8;" horiz-adv-x="1601" 
d="M1518 1212l-111 -110q133 -185 133 -416q0 -148 -57.5 -281t-155.5 -228.5t-235.5 -151.5t-290.5 -56q-225 0 -410 117l-137 -137l-170 170l129 129q-152 188 -152 438q0 147 57.5 280t156 228.5t236 152t290.5 56.5q242 0 434 -133l113 112zM459 686q0 -82 33 -160
l479 480q-78 43 -170 43q-148 0 -245 -104t-97 -259zM801 324q149 0 245.5 103t96.5 259q0 70 -21 131l-463 -463q65 -30 142 -30z" />
    <glyph glyph-name="Ugrave" unicode="&#xd9;" horiz-adv-x="1464" 
d="M565 1499l-260 328h461l154 -328h-355zM1366 1372v-751q0 -298 -171 -475t-454 -177q-291 0 -467 177t-176 475v751h396v-751q0 -138 66.5 -216.5t180.5 -78.5q104 0 167 78.5t63 216.5v751h395z" />
    <glyph glyph-name="Uacute" unicode="&#xda;" horiz-adv-x="1464" 
d="M907 1499h-354l154 328h460zM1366 1372v-751q0 -298 -171 -475t-454 -177q-291 0 -467 177t-176 475v751h396v-751q0 -138 66.5 -216.5t180.5 -78.5q104 0 167 78.5t63 216.5v751h395z" />
    <glyph glyph-name="Ucircumflex" unicode="&#xdb;" horiz-adv-x="1464" 
d="M657 1493h-362l240 332h391l241 -332h-364l-72 102zM1366 1372v-751q0 -298 -171 -475t-454 -177q-291 0 -467 177t-176 475v751h396v-751q0 -138 66.5 -216.5t180.5 -78.5q104 0 167 78.5t63 216.5v751h395z" />
    <glyph glyph-name="Udieresis" unicode="&#xdc;" horiz-adv-x="1464" 
d="M487 1462q-89 0 -145.5 56.5t-56.5 144.5q0 80 57.5 138.5t144.5 58.5t146 -58.5t59 -138.5q0 -88 -58 -144.5t-147 -56.5zM975 1462q-89 0 -146 56.5t-57 144.5q0 80 58 138.5t145 58.5t146 -58.5t59 -138.5q0 -88 -58 -144.5t-147 -56.5zM1366 1372v-751
q0 -298 -171 -475t-454 -177q-291 0 -467 177t-176 475v751h396v-751q0 -138 66.5 -216.5t180.5 -78.5q104 0 167 78.5t63 216.5v751h395z" />
    <glyph glyph-name="Yacute" unicode="&#xdd;" horiz-adv-x="1476" 
d="M913 1499h-354l154 328h461zM1470 1372l-536 -952v-420h-410v420l-518 952h432l299 -557l297 557h436z" />
    <glyph glyph-name="Thorn" unicode="&#xde;" horiz-adv-x="1335" 
d="M489 1163h283q229 0 368.5 -129.5t139.5 -341.5q0 -218 -147 -350.5t-390 -132.5h-254v-209h-393v1372h393v-209zM489 520h230q79 0 126.5 45t47.5 117q0 70 -47.5 113t-126.5 43h-230v-318z" />
    <glyph glyph-name="germandbls" unicode="&#xdf;" horiz-adv-x="1370" 
d="M1042 780q129 -33 206 -128.5t77 -237.5q0 -191 -128 -315t-335 -124q-138 0 -282 25l36 313q103 -18 164 -18q74 0 122 42.5t48 104.5q0 73 -57 116.5t-154 43.5h-92v307h51q71 0 115.5 39.5t44.5 98.5q0 68 -46 108.5t-122 40.5q-95 0 -153 -61t-58 -164v-971h-383v942
q0 255 163.5 411t430.5 156q240 0 394.5 -117.5t154.5 -304.5q0 -112 -54 -194t-143 -113z" />
    <glyph glyph-name="agrave" unicode="&#xe0;" horiz-adv-x="1323" 
d="M514 1161l-260 328h461l153 -328h-354zM1227 1034v-1034h-383v84q-115 -115 -303 -115q-216 0 -358 152.5t-142 394.5q0 243 142 396t358 153q188 0 303 -115v84h383zM633 289q88 0 149.5 65.5t61.5 161.5q0 98 -61.5 163.5t-149.5 65.5q-94 0 -151.5 -64.5t-57.5 -164.5
q0 -98 57.5 -162.5t151.5 -64.5z" />
    <glyph glyph-name="aacute" unicode="&#xe1;" horiz-adv-x="1323" 
d="M854 1161h-354l153 328h461zM1227 1034v-1034h-383v84q-115 -115 -303 -115q-216 0 -358 152.5t-142 394.5q0 243 142 396t358 153q188 0 303 -115v84h383zM633 289q88 0 149.5 65.5t61.5 161.5q0 98 -61.5 163.5t-149.5 65.5q-94 0 -151.5 -64.5t-57.5 -164.5
q0 -98 57.5 -162.5t151.5 -64.5z" />
    <glyph glyph-name="acircumflex" unicode="&#xe2;" horiz-adv-x="1323" 
d="M606 1155h-362l239 332h391l242 -332h-364l-72 102zM1227 1034v-1034h-383v84q-115 -115 -303 -115q-216 0 -358 152.5t-142 394.5q0 243 142 396t358 153q188 0 303 -115v84h383zM633 289q88 0 149.5 65.5t61.5 161.5q0 98 -61.5 163.5t-149.5 65.5q-94 0 -151.5 -64.5
t-57.5 -164.5q0 -98 57.5 -162.5t151.5 -64.5z" />
    <glyph glyph-name="atilde" unicode="&#xe3;" horiz-adv-x="1323" 
d="M588 1235q-30 0 -44.5 -13.5t-25.5 -47.5h-215q0 167 72 261.5t180 94.5q54 0 98.5 -19t80 -38t67.5 -19q29 0 43.5 15.5t25.5 52.5h215q0 -167 -72 -262t-179 -95q-54 0 -98 17.5t-79.5 35t-68.5 17.5zM1227 1034v-1034h-383v84q-115 -115 -303 -115q-216 0 -358 152.5
t-142 394.5q0 243 142 396t358 153q188 0 303 -115v84h383zM633 289q88 0 149.5 65.5t61.5 161.5q0 98 -61.5 163.5t-149.5 65.5q-94 0 -151.5 -64.5t-57.5 -164.5q0 -98 57.5 -162.5t151.5 -64.5z" />
    <glyph glyph-name="adieresis" unicode="&#xe4;" horiz-adv-x="1323" 
d="M436 1124q-89 0 -146 56.5t-57 144.5q0 80 58 138.5t145 58.5t146 -58.5t59 -138.5q0 -88 -58 -144.5t-147 -56.5zM924 1124q-89 0 -146 56.5t-57 144.5q0 80 58 138.5t145 58.5t145.5 -58.5t58.5 -138.5q0 -88 -57.5 -144.5t-146.5 -56.5zM1227 1034v-1034h-383v84
q-115 -115 -303 -115q-216 0 -358 152.5t-142 394.5q0 243 142 396t358 153q188 0 303 -115v84h383zM633 289q88 0 149.5 65.5t61.5 161.5q0 98 -61.5 163.5t-149.5 65.5q-94 0 -151.5 -64.5t-57.5 -164.5q0 -98 57.5 -162.5t151.5 -64.5z" />
    <glyph glyph-name="aring" unicode="&#xe5;" horiz-adv-x="1323" 
d="M680 1112q-115 0 -194.5 77t-79.5 187t79.5 187t194.5 77t194.5 -77t79.5 -187t-79.5 -187t-194.5 -77zM680 1456q-35 0 -59.5 -23.5t-24.5 -56.5t24.5 -56.5t59.5 -23.5t59.5 23.5t24.5 56.5t-24.5 56.5t-59.5 23.5zM1227 1034v-1034h-383v84q-115 -115 -303 -115
q-216 0 -358 152.5t-142 394.5q0 243 142 396t358 153q188 0 303 -115v84h383zM633 289q88 0 149.5 65.5t61.5 161.5q0 98 -61.5 163.5t-149.5 65.5q-94 0 -151.5 -64.5t-57.5 -164.5q0 -98 57.5 -162.5t151.5 -64.5z" />
    <glyph glyph-name="ae" unicode="&#xe6;" horiz-adv-x="1822" 
d="M1782 416h-725q19 -72 67 -112t123 -40q124 0 174 103l332 -70q-40 -146 -180.5 -237t-327.5 -91q-213 0 -366 125q-153 -125 -404 -125q-211 0 -325.5 88t-114.5 244q0 152 113.5 232.5t328.5 80.5h236v54q0 52 -34.5 84t-88.5 32q-111 0 -129 -108l-355 74
q26 139 152 227t334 88q205 0 332 -92q145 92 319 92q238 0 388.5 -153t150.5 -423v-73zM1055 614h356q-33 154 -170 154q-70 0 -119 -39t-67 -115zM711 412h-162q-61 0 -94 -22.5t-33 -63.5t33 -65.5t86 -24.5q67 0 118.5 39t51.5 100v37z" />
    <glyph glyph-name="ccedilla" unicode="&#xe7;" horiz-adv-x="1193" 
d="M803 457l350 -68q-27 -158 -139.5 -266t-274.5 -141l-84 -310h-395l203 316q-186 44 -304 187t-118 341q0 160 78 286.5t208.5 194.5t286.5 68q202 0 352 -113.5t185 -300.5l-352 -73q-17 80 -66 121.5t-119 41.5q-91 0 -147.5 -64.5t-56.5 -160.5q0 -95 56.5 -159
t147.5 -64q69 0 119 42t70 122z" />
    <glyph glyph-name="egrave" unicode="&#xe8;" horiz-adv-x="1183" 
d="M440 1161l-260 328h461l154 -328h-355zM1143 496v-72h-727q19 -75 67.5 -117.5t120.5 -42.5q130 0 182 101l342 -68q-63 -162 -200 -245t-324 -83q-154 0 -282 68t-204.5 194t-76.5 285q0 160 76.5 286.5t204.5 194.5t282 68q115 0 213.5 -38t170.5 -109t113 -179.5
t42 -242.5zM604 766q-65 0 -113.5 -35t-70.5 -96h352q-20 64 -64.5 97.5t-103.5 33.5z" />
    <glyph glyph-name="eacute" unicode="&#xe9;" horiz-adv-x="1183" 
d="M782 1161h-354l154 328h460zM1143 496v-72h-727q19 -75 67.5 -117.5t120.5 -42.5q130 0 182 101l342 -68q-63 -162 -200 -245t-324 -83q-154 0 -282 68t-204.5 194t-76.5 285q0 160 76.5 286.5t204.5 194.5t282 68q115 0 213.5 -38t170.5 -109t113 -179.5t42 -242.5z
M604 766q-65 0 -113.5 -35t-70.5 -96h352q-20 64 -64.5 97.5t-103.5 33.5z" />
    <glyph glyph-name="ecircumflex" unicode="&#xea;" horiz-adv-x="1183" 
d="M532 1155h-362l240 332h391l241 -332h-364l-72 102zM1143 496v-72h-727q19 -75 67.5 -117.5t120.5 -42.5q130 0 182 101l342 -68q-63 -162 -200 -245t-324 -83q-154 0 -282 68t-204.5 194t-76.5 285q0 160 76.5 286.5t204.5 194.5t282 68q115 0 213.5 -38t170.5 -109
t113 -179.5t42 -242.5zM604 766q-65 0 -113.5 -35t-70.5 -96h352q-20 64 -64.5 97.5t-103.5 33.5z" />
    <glyph glyph-name="edieresis" unicode="&#xeb;" horiz-adv-x="1183" 
d="M362 1124q-89 0 -145.5 56.5t-56.5 144.5q0 80 57.5 138.5t144.5 58.5t146 -58.5t59 -138.5q0 -88 -58 -144.5t-147 -56.5zM850 1124q-89 0 -146 56.5t-57 144.5q0 80 58 138.5t145 58.5t146 -58.5t59 -138.5q0 -88 -58 -144.5t-147 -56.5zM1143 496v-72h-727
q19 -75 67.5 -117.5t120.5 -42.5q130 0 182 101l342 -68q-63 -162 -200 -245t-324 -83q-154 0 -282 68t-204.5 194t-76.5 285q0 160 76.5 286.5t204.5 194.5t282 68q115 0 213.5 -38t170.5 -109t113 -179.5t42 -242.5zM604 766q-65 0 -113.5 -35t-70.5 -96h352
q-20 64 -64.5 97.5t-103.5 33.5z" />
    <glyph glyph-name="igrave" unicode="&#xec;" horiz-adv-x="610" 
d="M340 1489l154 -328h-355l-260 328h461zM498 0h-385v1034h385v-1034z" />
    <glyph glyph-name="iacute" unicode="&#xed;" horiz-adv-x="610" 
d="M481 1161h-354l154 328h460zM498 0h-385v1034h385v-1034z" />
    <glyph glyph-name="icircumflex" unicode="&#xee;" horiz-adv-x="610" 
d="M233 1155h-362l240 332h391l241 -332h-364l-72 102zM113 1034h385v-1034h-385v1034z" />
    <glyph glyph-name="idieresis" unicode="&#xef;" horiz-adv-x="610" 
d="M61 1522q87 0 146 -58.5t59 -138.5q0 -88 -58 -144.5t-147 -56.5t-145.5 56.5t-56.5 144.5q0 80 57.5 138.5t144.5 58.5zM549 1522q87 0 146 -58.5t59 -138.5q0 -88 -58 -144.5t-147 -56.5t-146 56.5t-57 144.5q0 80 58 138.5t145 58.5zM498 0h-385v1034h385v-1034z" />
    <glyph glyph-name="eth" unicode="&#xf0;" horiz-adv-x="1241" 
d="M999 1325l-129 -49q64 -72 118 -150.5t104.5 -175t79 -207t28.5 -221.5q0 -114 -34 -208.5t-90.5 -157t-131.5 -106t-154.5 -62.5t-162.5 -19q-159 0 -292 67t-213.5 193.5t-80.5 286.5q0 243 147 397t371 152q57 0 107 -16q-59 59 -115 104l-268 -104l-74 172l145 57
q-87 46 -272 123v74h569q27 -17 72 -56l203 80zM623 289q93 0 150.5 69t57.5 162q0 94 -60 158.5t-148 64.5q-93 0 -153 -65.5t-60 -161.5q0 -95 62 -161t151 -66z" />
    <glyph glyph-name="ntilde" unicode="&#xf1;" horiz-adv-x="1269" 
d="M547 1235q-30 0 -44.5 -13.5t-25.5 -47.5h-215q0 167 72 261.5t180 94.5q54 0 98.5 -19t80 -38t67.5 -19q29 0 43.5 15.5t25.5 52.5h215q0 -167 -72 -262t-179 -95q-54 0 -98 17.5t-79.5 35t-68.5 17.5zM791 1065q176 0 282.5 -114.5t106.5 -309.5v-641h-385v559
q0 74 -40 119t-106 45q-78 0 -124 -57t-46 -164v-502h-383v1034h383v-104q126 135 312 135z" />
    <glyph glyph-name="ograve" unicode="&#xf2;" horiz-adv-x="1241" 
d="M455 1161l-260 328h460l154 -328h-354zM621 1063q158 0 289.5 -67.5t210.5 -193.5t79 -286q0 -159 -79 -284.5t-211 -193t-289 -67.5t-289 67.5t-211.5 193t-79.5 284.5q0 160 79.5 286t211 193.5t289.5 67.5zM621 289q87 0 148.5 65.5t61.5 161.5q0 97 -61.5 162
t-148.5 65t-149 -65t-62 -162q0 -96 62 -161.5t149 -65.5z" />
    <glyph glyph-name="oacute" unicode="&#xf3;" horiz-adv-x="1241" 
d="M797 1161h-355l154 328h461zM621 1063q158 0 289.5 -67.5t210.5 -193.5t79 -286q0 -159 -79 -284.5t-211 -193t-289 -67.5t-289 67.5t-211.5 193t-79.5 284.5q0 160 79.5 286t211 193.5t289.5 67.5zM621 289q87 0 148.5 65.5t61.5 161.5q0 97 -61.5 162t-148.5 65
t-149 -65t-62 -162q0 -96 62 -161.5t149 -65.5z" />
    <glyph glyph-name="ocircumflex" unicode="&#xf4;" horiz-adv-x="1241" 
d="M549 1155h-363l240 332h391l242 -332h-365l-71 102zM621 1063q158 0 289.5 -67.5t210.5 -193.5t79 -286q0 -159 -79 -284.5t-211 -193t-289 -67.5t-289 67.5t-211.5 193t-79.5 284.5q0 160 79.5 286t211 193.5t289.5 67.5zM621 289q87 0 148.5 65.5t61.5 161.5
q0 97 -61.5 162t-148.5 65t-149 -65t-62 -162q0 -96 62 -161.5t149 -65.5z" />
    <glyph glyph-name="otilde" unicode="&#xf5;" horiz-adv-x="1241" 
d="M530 1235q-30 0 -44 -13.5t-25 -47.5h-215q0 167 72 261.5t180 94.5q54 0 98.5 -19t79.5 -38t67 -19q29 0 44 15.5t26 52.5h215q0 -167 -72 -262t-180 -95q-54 0 -98 17.5t-79.5 35t-68.5 17.5zM621 1063q158 0 289.5 -67.5t210.5 -193.5t79 -286q0 -159 -79 -284.5
t-211 -193t-289 -67.5t-289 67.5t-211.5 193t-79.5 284.5q0 160 79.5 286t211 193.5t289.5 67.5zM621 289q87 0 148.5 65.5t61.5 161.5q0 97 -61.5 162t-148.5 65t-149 -65t-62 -162q0 -96 62 -161.5t149 -65.5z" />
    <glyph glyph-name="odieresis" unicode="&#xf6;" horiz-adv-x="1241" 
d="M377 1124q-89 0 -146 56.5t-57 144.5q0 80 58 138.5t145 58.5t146 -58.5t59 -138.5q0 -88 -58 -144.5t-147 -56.5zM864 1124q-89 0 -145.5 56.5t-56.5 144.5q0 80 57.5 138.5t144.5 58.5t146 -58.5t59 -138.5q0 -88 -58 -144.5t-147 -56.5zM621 1063q158 0 289.5 -67.5
t210.5 -193.5t79 -286q0 -159 -79 -284.5t-211 -193t-289 -67.5t-289 67.5t-211.5 193t-79.5 284.5q0 160 79.5 286t211 193.5t289.5 67.5zM621 289q87 0 148.5 65.5t61.5 161.5q0 97 -61.5 162t-148.5 65t-149 -65t-62 -162q0 -96 62 -161.5t149 -65.5z" />
    <glyph glyph-name="divide" unicode="&#xf7;" horiz-adv-x="1161" 
d="M578 1241q80 0 133 -55.5t53 -130.5q0 -77 -52.5 -130t-133.5 -53t-133 52.5t-52 130.5q0 76 52.5 131t132.5 55zM1079 510h-997v297h997v-297zM578 451q80 0 133 -55.5t53 -131.5q0 -77 -52.5 -129.5t-133.5 -52.5t-133 52.5t-52 129.5q0 76 52.5 131.5t132.5 55.5z" />
    <glyph glyph-name="oslash" unicode="&#xf8;" horiz-adv-x="1241" 
d="M1182 946l-97 -96q115 -141 115 -334q0 -159 -79 -284.5t-211 -193t-289 -67.5q-181 0 -326 88l-113 -112l-131 131l105 104q-115 141 -115 334q0 160 79.5 286t211 193.5t289.5 67.5q180 0 325 -90l105 104zM410 516q0 -32 10 -70l280 281q-40 16 -79 16q-87 0 -149 -65
t-62 -162zM621 289q87 0 148.5 65.5t61.5 161.5q0 37 -10 70l-280 -281q40 -16 80 -16z" />
    <glyph glyph-name="ugrave" unicode="&#xf9;" horiz-adv-x="1269" 
d="M469 1161l-260 328h461l153 -328h-354zM1174 1034v-1034h-383v104q-126 -135 -312 -135q-176 0 -282.5 114.5t-106.5 309.5v641h385v-559q0 -74 40 -119t106 -45q78 0 124 57t46 164v502h383z" />
    <glyph glyph-name="uacute" unicode="&#xfa;" horiz-adv-x="1269" 
d="M809 1161h-354l153 328h461zM1174 1034v-1034h-383v104q-126 -135 -312 -135q-176 0 -282.5 114.5t-106.5 309.5v641h385v-559q0 -74 40 -119t106 -45q78 0 124 57t46 164v502h383z" />
    <glyph glyph-name="ucircumflex" unicode="&#xfb;" horiz-adv-x="1269" 
d="M561 1155h-362l239 332h391l242 -332h-364l-72 102zM1174 1034v-1034h-383v104q-126 -135 -312 -135q-176 0 -282.5 114.5t-106.5 309.5v641h385v-559q0 -74 40 -119t106 -45q78 0 124 57t46 164v502h383z" />
    <glyph glyph-name="udieresis" unicode="&#xfc;" horiz-adv-x="1269" 
d="M391 1124q-89 0 -146 56.5t-57 144.5q0 80 58 138.5t145 58.5t146 -58.5t59 -138.5q0 -88 -58 -144.5t-147 -56.5zM879 1124q-89 0 -146 56.5t-57 144.5q0 80 58 138.5t145 58.5t145.5 -58.5t58.5 -138.5q0 -88 -57.5 -144.5t-146.5 -56.5zM1174 1034v-1034h-383v104
q-126 -135 -312 -135q-176 0 -282.5 114.5t-106.5 309.5v641h385v-559q0 -74 40 -119t106 -45q78 0 124 57t46 164v502h383z" />
    <glyph glyph-name="yacute" unicode="&#xfd;" horiz-adv-x="1277" 
d="M809 1163h-354l153 328h461zM1272 1034l-598 -1382h-404l166 385l-430 997h406l219 -547l235 547h406z" />
    <glyph glyph-name="thorn" unicode="&#xfe;" horiz-adv-x="1323" 
d="M782 1065q216 0 358 -153t142 -396q0 -242 -142 -394.5t-358 -152.5q-188 0 -303 115v-432h-383v1823h383v-525q115 115 303 115zM690 289q94 0 151.5 64.5t57.5 162.5q0 100 -57.5 164.5t-151.5 64.5q-88 0 -149.5 -65.5t-61.5 -163.5q0 -96 61.5 -161.5t149.5 -65.5z
" />
    <glyph glyph-name="ydieresis" unicode="&#xff;" horiz-adv-x="1277" 
d="M391 1126q-89 0 -146 56.5t-57 144.5q0 80 58 138.5t145 58.5t146 -58.5t59 -138.5q0 -88 -58 -144.5t-147 -56.5zM879 1126q-89 0 -146 56.5t-57 144.5q0 80 58 138.5t145 58.5t145.5 -58.5t58.5 -138.5q0 -88 -57.5 -144.5t-146.5 -56.5zM1272 1034l-598 -1382h-404
l166 385l-430 997h406l219 -547l235 547h406z" />
    <glyph glyph-name="Amacron" unicode="&#x100;" horiz-adv-x="1540" 
d="M1124 1503h-704v287h704v-287zM1540 0h-424l-76 209h-540l-78 -209h-422l553 1372h434zM922 539l-150 411l-151 -411h301z" />
    <glyph glyph-name="amacron" unicode="&#x101;" horiz-adv-x="1323" 
d="M1032 1165h-704v287h704v-287zM1227 1034v-1034h-383v84q-115 -115 -303 -115q-216 0 -358 152.5t-142 394.5q0 243 142 396t358 153q188 0 303 -115v84h383zM633 289q88 0 149.5 65.5t61.5 161.5q0 98 -61.5 163.5t-149.5 65.5q-94 0 -151.5 -64.5t-57.5 -164.5
q0 -98 57.5 -162.5t151.5 -64.5z" />
    <glyph glyph-name="Abreve" unicode="&#x102;" horiz-adv-x="1540" 
d="M772 1464q-172 0 -278.5 94.5t-106.5 249.5h291q0 -37 25.5 -62.5t68.5 -25.5t69.5 25.5t26.5 62.5h289q0 -155 -106.5 -249.5t-278.5 -94.5zM1540 0h-424l-76 209h-540l-78 -209h-422l553 1372h434zM922 539l-150 411l-151 -411h301z" />
    <glyph glyph-name="abreve" unicode="&#x103;" horiz-adv-x="1323" 
d="M680 1126q-172 0 -278.5 94.5t-106.5 249.5h291q0 -37 25.5 -62.5t68.5 -25.5t69.5 25.5t26.5 62.5h289q0 -155 -106.5 -249.5t-278.5 -94.5zM1227 1034v-1034h-383v84q-115 -115 -303 -115q-216 0 -358 152.5t-142 394.5q0 243 142 396t358 153q188 0 303 -115v84h383z
M633 289q88 0 149.5 65.5t61.5 161.5q0 98 -61.5 163.5t-149.5 65.5q-94 0 -151.5 -64.5t-57.5 -164.5q0 -98 57.5 -162.5t151.5 -64.5z" />
    <glyph glyph-name="Aogonek" unicode="&#x104;" horiz-adv-x="1540" 
d="M1587 -184l15 -211q-96 -47 -209 -47q-101 0 -164.5 53t-63.5 145q0 131 131 244h-180l-76 209h-540l-78 -209h-422l553 1372h434l553 -1372q-85 -89 -99 -111q-16 -24 -16 -45q0 -49 58 -49q31 0 104 21zM922 539l-150 411l-151 -411h301z" />
    <glyph glyph-name="aogonek" unicode="&#x105;" horiz-adv-x="1323" 
d="M1276 -184l14 -211q-96 -47 -209 -47q-100 0 -163.5 53t-63.5 145q0 131 131 244h-141v84q-115 -115 -303 -115q-216 0 -358 152.5t-142 394.5q0 243 142 396t358 153q188 0 303 -115v84h383v-1034h2q-85 -89 -99 -111q-16 -24 -16 -45q0 -49 57 -49q31 0 105 21z
M633 289q88 0 149.5 65.5t61.5 161.5q0 98 -61.5 163.5t-149.5 65.5q-94 0 -151.5 -64.5t-57.5 -164.5q0 -98 57.5 -162.5t151.5 -64.5z" />
    <glyph glyph-name="Cacute" unicode="&#x106;" horiz-adv-x="1566" 
d="M975 1499h-354l153 328h461zM801 324q119 0 200.5 67.5t110.5 192.5l393 -76q-44 -250 -233 -394.5t-471 -144.5q-153 0 -290.5 56t-236 151.5t-156 228.5t-57.5 281t57.5 281t156 228.5t236 151.5t290.5 56q172 0 320.5 -63t250.5 -183t133 -278l-393 -80
q-29 121 -110.5 185.5t-200.5 64.5q-145 0 -243.5 -104.5t-98.5 -258.5t98.5 -258t243.5 -104z" />
    <glyph glyph-name="cacute" unicode="&#x107;" horiz-adv-x="1193" 
d="M791 1161h-355l154 328h461zM803 457l350 -68q-32 -189 -183.5 -304.5t-355.5 -115.5q-156 0 -286.5 68t-208.5 194t-78 285q0 160 78 286.5t208.5 194.5t286.5 68q202 0 352 -113.5t185 -300.5l-352 -73q-17 80 -66 121.5t-119 41.5q-91 0 -147.5 -64.5t-56.5 -160.5
q0 -95 56.5 -159t147.5 -64q69 0 119 42t70 122z" />
    <glyph glyph-name="Cdotaccent" unicode="&#x10a;" horiz-adv-x="1566" 
d="M797 1477q-92 0 -150.5 57.5t-58.5 146.5q0 84 59.5 144.5t149.5 60.5t150.5 -60.5t60.5 -144.5q0 -89 -59.5 -146.5t-151.5 -57.5zM801 324q119 0 200.5 67.5t110.5 192.5l393 -76q-44 -250 -233 -394.5t-471 -144.5q-153 0 -290.5 56t-236 151.5t-156 228.5t-57.5 281
t57.5 281t156 228.5t236 151.5t290.5 56q172 0 320.5 -63t250.5 -183t133 -278l-393 -80q-29 121 -110.5 185.5t-200.5 64.5q-145 0 -243.5 -104.5t-98.5 -258.5t98.5 -258t243.5 -104z" />
    <glyph glyph-name="cdotaccent" unicode="&#x10b;" horiz-adv-x="1193" 
d="M612 1139q-92 0 -150.5 57.5t-58.5 146.5q0 84 59.5 144.5t149.5 60.5t150.5 -60.5t60.5 -144.5q0 -89 -59.5 -146.5t-151.5 -57.5zM803 457l350 -68q-32 -189 -183.5 -304.5t-355.5 -115.5q-156 0 -286.5 68t-208.5 194t-78 285q0 160 78 286.5t208.5 194.5t286.5 68
q202 0 352 -113.5t185 -300.5l-352 -73q-17 80 -66 121.5t-119 41.5q-91 0 -147.5 -64.5t-56.5 -160.5q0 -95 56.5 -159t147.5 -64q69 0 119 42t70 122z" />
    <glyph glyph-name="Ccaron" unicode="&#x10c;" horiz-adv-x="1566" 
d="M604 1493l-239 332h362l74 -103l71 103h365l-242 -332h-391zM801 324q119 0 200.5 67.5t110.5 192.5l393 -76q-44 -250 -233 -394.5t-471 -144.5q-153 0 -290.5 56t-236 151.5t-156 228.5t-57.5 281t57.5 281t156 228.5t236 151.5t290.5 56q172 0 320.5 -63t250.5 -183
t133 -278l-393 -80q-29 121 -110.5 185.5t-200.5 64.5q-145 0 -243.5 -104.5t-98.5 -258.5t98.5 -258t243.5 -104z" />
    <glyph glyph-name="ccaron" unicode="&#x10d;" horiz-adv-x="1193" 
d="M420 1155l-240 332h363l73 -103l72 103h365l-242 -332h-391zM803 457l350 -68q-32 -189 -183.5 -304.5t-355.5 -115.5q-156 0 -286.5 68t-208.5 194t-78 285q0 160 78 286.5t208.5 194.5t286.5 68q202 0 352 -113.5t185 -300.5l-352 -73q-17 80 -66 121.5t-119 41.5
q-91 0 -147.5 -64.5t-56.5 -160.5q0 -95 56.5 -159t147.5 -64q69 0 119 42t70 122z" />
    <glyph glyph-name="Dcaron" unicode="&#x10e;" horiz-adv-x="1484" 
d="M526 1493l-239 332h362l74 -103l72 103h364l-241 -332h-392zM96 1372h580q222 0 392 -86t262.5 -242t92.5 -358t-92.5 -358t-262.5 -242t-392 -86h-580v1372zM489 332h158q170 0 274.5 98t104.5 256t-104.5 256t-274.5 98h-158v-708z" />
    <glyph glyph-name="dcaron" unicode="&#x10f;" horiz-adv-x="1323" 
d="M844 1475h383v-1475h-383v84q-115 -115 -303 -115q-216 0 -358 152.5t-142 394.5q0 243 142 396t358 153q188 0 303 -115v525zM1669 1475l-84 -410h-258v410h342zM633 289q88 0 149.5 65.5t61.5 161.5q0 98 -61.5 163.5t-149.5 65.5q-94 0 -151.5 -64.5t-57.5 -164.5
q0 -98 57.5 -162.5t151.5 -64.5z" />
    <glyph glyph-name="Dcroat" unicode="&#x110;" horiz-adv-x="1499" 
d="M129 1372h580q337 0 543 -189.5t206 -496.5t-206 -496.5t-543 -189.5h-580v516h-94v338h94v518zM524 332h158q170 0 273.5 97.5t103.5 256.5t-103.5 256.5t-273.5 97.5h-158v-186h191v-338h-191v-184z" />
    <glyph glyph-name="dcroat" unicode="&#x111;" horiz-adv-x="1345" 
d="M1309 1104h-82v-1104h-383v84q-115 -115 -303 -115q-216 0 -358 152.5t-142 394.5q0 243 142 396t358 153q188 0 303 -115v154h-254v272h254v99h383v-99h82v-272zM633 289q88 0 149.5 65.5t61.5 161.5q0 98 -61.5 163.5t-149.5 65.5q-94 0 -151.5 -64.5t-57.5 -164.5
q0 -98 57.5 -162.5t151.5 -64.5z" />
    <glyph glyph-name="Emacron" unicode="&#x112;" horiz-adv-x="1263" 
d="M999 1503h-704v287h704v-287zM1188 332v-332h-1092v1372h1084v-332h-691v-202h635v-301h-635v-205h699z" />
    <glyph glyph-name="emacron" unicode="&#x113;" horiz-adv-x="1183" 
d="M958 1165h-704v287h704v-287zM1143 496v-72h-727q19 -75 67.5 -117.5t120.5 -42.5q130 0 182 101l342 -68q-63 -162 -200 -245t-324 -83q-154 0 -282 68t-204.5 194t-76.5 285q0 160 76.5 286.5t204.5 194.5t282 68q115 0 213.5 -38t170.5 -109t113 -179.5t42 -242.5z
M604 766q-65 0 -113.5 -35t-70.5 -96h352q-20 64 -64.5 97.5t-103.5 33.5z" />
    <glyph glyph-name="Edotaccent" unicode="&#x116;" horiz-adv-x="1263" 
d="M645 1477q-92 0 -150.5 57.5t-58.5 146.5q0 84 59.5 144.5t149.5 60.5t150.5 -60.5t60.5 -144.5q0 -89 -59.5 -146.5t-151.5 -57.5zM1188 332v-332h-1092v1372h1084v-332h-691v-202h635v-301h-635v-205h699z" />
    <glyph glyph-name="edotaccent" unicode="&#x117;" horiz-adv-x="1183" 
d="M604 1139q-92 0 -150.5 57.5t-58.5 146.5q0 84 59.5 144.5t149.5 60.5t150.5 -60.5t60.5 -144.5q0 -89 -59.5 -146.5t-151.5 -57.5zM1143 496v-72h-727q19 -75 67.5 -117.5t120.5 -42.5q130 0 182 101l342 -68q-63 -162 -200 -245t-324 -83q-154 0 -282 68t-204.5 194
t-76.5 285q0 160 76.5 286.5t204.5 194.5t282 68q115 0 213.5 -38t170.5 -109t113 -179.5t42 -242.5zM604 766q-65 0 -113.5 -35t-70.5 -96h352q-20 64 -64.5 97.5t-103.5 33.5z" />
    <glyph glyph-name="Eogonek" unicode="&#x118;" horiz-adv-x="1263" 
d="M1188 0h-70q-85 -89 -100 -113q-14 -23 -14 -43q0 -49 57 -49q31 0 104 21l15 -211q-96 -47 -209 -47q-101 0 -164.5 53t-63.5 145q0 131 131 244h-778v1372h1084v-332h-691v-202h635v-301h-635v-205h699v-332z" />
    <glyph glyph-name="eogonek" unicode="&#x119;" horiz-adv-x="1183" 
d="M1143 424h-727q17 -76 65 -118t121 -42q62 0 107.5 21t76.5 80l342 -68q-45 -89 -151 -195q-41 -42 -58 -61t-44 -54t-37.5 -65t-10.5 -63q0 -64 64 -64q29 0 102 21l15 -203q-96 -57 -209 -57q-106 0 -172 52.5t-66 143.5q0 107 90 219l-47 -2q-154 0 -282 68
t-204.5 194t-76.5 285q0 160 76.5 286.5t204.5 194.5t282 68q238 0 388.5 -153t150.5 -423v-65zM416 635h354q-32 131 -172 131q-60 0 -111 -35.5t-71 -95.5z" />
    <glyph glyph-name="Ecaron" unicode="&#x11a;" horiz-adv-x="1263" 
d="M451 1493l-240 332h362l74 -103l72 103h364l-241 -332h-391zM1188 332v-332h-1092v1372h1084v-332h-691v-202h635v-301h-635v-205h699z" />
    <glyph glyph-name="ecaron" unicode="&#x11b;" horiz-adv-x="1183" 
d="M410 1155l-240 332h362l74 -103l72 103h364l-241 -332h-391zM1143 496v-72h-727q19 -75 67.5 -117.5t120.5 -42.5q130 0 182 101l342 -68q-63 -162 -200 -245t-324 -83q-154 0 -282 68t-204.5 194t-76.5 285q0 160 76.5 286.5t204.5 194.5t282 68q115 0 213.5 -38
t170.5 -109t113 -179.5t42 -242.5zM604 766q-65 0 -113.5 -35t-70.5 -96h352q-20 64 -64.5 97.5t-103.5 33.5z" />
    <glyph glyph-name="Gbreve" unicode="&#x11e;" horiz-adv-x="1597" 
d="M811 1464q-172 0 -278.5 94.5t-106.5 249.5h291q0 -37 25.5 -62.5t68.5 -25.5t69.5 25.5t26.5 62.5h289q0 -155 -106.5 -249.5t-278.5 -94.5zM764 819h764q8 -110 8 -135q0 -208 -92.5 -371.5t-258 -253.5t-376.5 -90q-155 0 -293.5 56t-238 151.5t-158 228.5t-58.5 281
t58 281t157.5 228.5t238 151.5t292.5 56q245 0 428.5 -109t251.5 -303l-400 -100q-82 158 -280 158q-151 0 -249.5 -104t-98.5 -259t100 -258.5t254 -103.5q108 0 185.5 44.5t117.5 127.5h-352v323z" />
    <glyph glyph-name="gbreve" unicode="&#x11f;" horiz-adv-x="1310" 
d="M664 1126q-172 0 -278.5 94.5t-106.5 249.5h290q0 -37 26 -62.5t69 -25.5t69.5 25.5t26.5 62.5h289q0 -155 -106.5 -249.5t-278.5 -94.5zM1214 1034l3 -930q0 -154 -82.5 -267.5t-219 -169.5t-307.5 -56q-371 0 -530 272l323 127q53 -62 98 -83t107 -21q100 0 165 54
t65 159v45q-108 -105 -297 -105q-215 0 -356.5 141.5t-141.5 364.5q0 220 141.5 360t356.5 140q190 0 297 -104v73h378zM629 362q87 0 146 59t59 144q0 87 -59 146t-146 59q-92 0 -149.5 -58.5t-57.5 -146.5q0 -86 57.5 -144.5t149.5 -58.5z" />
    <glyph glyph-name="Gdotaccent" unicode="&#x120;" horiz-adv-x="1597" 
d="M809 1477q-92 0 -150.5 57.5t-58.5 146.5q0 84 59.5 144.5t149.5 60.5t150.5 -60.5t60.5 -144.5q0 -89 -59.5 -146.5t-151.5 -57.5zM764 819h764q8 -110 8 -135q0 -208 -92.5 -371.5t-258 -253.5t-376.5 -90q-155 0 -293.5 56t-238 151.5t-158 228.5t-58.5 281t58 281
t157.5 228.5t238 151.5t292.5 56q245 0 428.5 -109t251.5 -303l-400 -100q-82 158 -280 158q-151 0 -249.5 -104t-98.5 -259t100 -258.5t254 -103.5q108 0 185.5 44.5t117.5 127.5h-352v323z" />
    <glyph glyph-name="gdotaccent" unicode="&#x121;" horiz-adv-x="1310" 
d="M662 1139q-92 0 -150.5 57.5t-58.5 146.5q0 84 59.5 144.5t149.5 60.5t150 -60.5t60 -144.5q0 -89 -59 -146.5t-151 -57.5zM1214 1034l3 -930q0 -154 -82.5 -267.5t-219 -169.5t-307.5 -56q-371 0 -530 272l323 127q53 -62 98 -83t107 -21q100 0 165 54t65 159v45
q-108 -105 -297 -105q-215 0 -356.5 141.5t-141.5 364.5q0 220 141.5 360t356.5 140q190 0 297 -104v73h378zM629 362q87 0 146 59t59 144q0 87 -59 146t-146 59q-92 0 -149.5 -58.5t-57.5 -146.5q0 -86 57.5 -144.5t149.5 -58.5z" />
    <glyph glyph-name="Gcommaaccent" unicode="&#x122;" horiz-adv-x="1597" 
d="M764 819h764q8 -110 8 -135q0 -208 -92.5 -371.5t-258 -253.5t-376.5 -90q-155 0 -293.5 56t-238 151.5t-158 228.5t-58.5 281t58 281t157.5 228.5t238 151.5t292.5 56q245 0 428.5 -109t251.5 -303l-400 -100q-82 158 -280 158q-151 0 -249.5 -104t-98.5 -259
t100 -258.5t254 -103.5q108 0 185.5 44.5t117.5 127.5h-352v323zM614 -92h373l-207 -334h-266z" />
    <glyph glyph-name="gcommaaccent" unicode="&#x123;" horiz-adv-x="1298" 
d="M842 1155h-373l207 334h266zM1214 1034l3 -930q0 -154 -82.5 -267.5t-219 -169.5t-307.5 -56q-371 0 -530 272l323 127q53 -62 98 -83t107 -21q100 0 165 54t65 159v45q-108 -105 -297 -105q-215 0 -356.5 141.5t-141.5 364.5q0 220 141.5 360t356.5 140q190 0 297 -104
v73h378zM629 362q87 0 146 59t59 144q0 87 -59 146t-146 59q-92 0 -149.5 -58.5t-57.5 -146.5q0 -86 57.5 -144.5t149.5 -58.5z" />
    <glyph glyph-name="Hbar" unicode="&#x126;" horiz-adv-x="1550" 
d="M1513 887h-98v-887h-393v422h-496v-422h-395v887h-96v291h96v194h395v-194h496v194h393v-194h98v-291zM1022 887h-496v-154h496v154z" />
    <glyph glyph-name="hbar" unicode="&#x127;" horiz-adv-x="1304" 
d="M825 1065q175 0 281 -114.5t106 -309.5v-641h-383v559q0 74 -40.5 119t-106.5 45q-77 0 -122.5 -57.5t-45.5 -163.5v-502h-385v1124h-94v252h94v99h385v-99h240v-252h-240v-194q126 135 311 135z" />
    <glyph glyph-name="Imacron" unicode="&#x12a;" horiz-adv-x="585" 
d="M645 1503h-704v287h704v-287zM489 0h-393v1372h393v-1372z" />
    <glyph glyph-name="imacron" unicode="&#x12b;" horiz-adv-x="610" 
d="M657 1165h-704v287h704v-287zM498 0h-385v1034h385v-1034z" />
    <glyph glyph-name="Iogonek" unicode="&#x12e;" horiz-adv-x="585" 
d="M539 -184l14 -211q-96 -47 -209 -47q-100 0 -163.5 53t-63.5 145q0 131 131 244h-152v1372h393v-1372h3q-85 -89 -99 -111q-16 -24 -16 -45q0 -49 57 -49q32 0 105 21z" />
    <glyph glyph-name="iogonek" unicode="&#x12f;" horiz-adv-x="610" 
d="M303 1139q-92 0 -150.5 57.5t-58.5 146.5q0 84 59.5 144.5t149.5 60.5t150.5 -60.5t60.5 -144.5q0 -89 -59.5 -146.5t-151.5 -57.5zM545 -184l14 -211q-96 -47 -209 -47q-100 0 -163.5 53t-63.5 145q0 131 131 244h-141v1034h385v-1034q-85 -89 -99 -111q-16 -24 -16 -45
q0 -49 57 -49q31 0 105 21z" />
    <glyph glyph-name="Idotaccent" unicode="&#x130;" horiz-adv-x="585" 
d="M291 1886q90 0 150.5 -60.5t60.5 -144.5q0 -89 -59.5 -146.5t-151.5 -57.5t-150.5 57.5t-58.5 146.5q0 84 59.5 144.5t149.5 60.5zM489 0h-393v1372h393v-1372z" />
    <glyph glyph-name="dotlessi" unicode="&#x131;" horiz-adv-x="610" 
d="M498 0h-385v1034h385v-1034z" />
    <glyph glyph-name="IJ" unicode="&#x132;" horiz-adv-x="1855" 
d="M96 1372h393v-1372h-393v1372zM1757 1372v-870q0 -238 -158 -385.5t-417 -147.5q-239 0 -389 128t-181 347l389 76q21 -201 181 -201q80 0 130 50.5t50 132.5v870h395z" />
    <glyph glyph-name="ij" unicode="&#x133;" horiz-adv-x="1245" 
d="M305 1546q92 0 153.5 -62t61.5 -147q0 -90 -61 -149.5t-154 -59.5q-94 0 -154.5 59.5t-60.5 149.5q0 85 61 147t154 62zM940 1546q92 0 153.5 -62t61.5 -147q0 -90 -61 -149.5t-154 -59.5q-94 0 -154.5 59.5t-60.5 149.5q0 85 61 147t154 62zM498 0h-383v1034h383v-1034z
M553 -319l53 276q52 -10 70 -10q34 0 54 22.5t20 59.5v1005h385v-1040q0 -163 -98.5 -263t-258.5 -100q-115 0 -225 50z" />
    <glyph glyph-name="Kcommaaccent" unicode="&#x136;" horiz-adv-x="1435" 
d="M1450 0h-508l-383 483h-70v-483h-393v1372h393v-518h50l407 518h465l-534 -690zM518 -92h373l-207 -334h-266z" />
    <glyph glyph-name="kcommaaccent" unicode="&#x137;" horiz-adv-x="1282" 
d="M1296 0h-477l-276 344h-64v-344h-383v1475h383v-783h45l281 342h452l-409 -491zM471 -92h373l-207 -334h-266z" />
    <glyph glyph-name="Lacute" unicode="&#x139;" horiz-adv-x="1189" 
d="M477 1499h-354l153 328h461zM1137 338v-338h-1041v1372h393v-1034h648z" />
    <glyph glyph-name="lacute" unicode="&#x13a;" horiz-adv-x="575" 
d="M471 1602h-354l153 327h461zM479 0h-383v1475h383v-1475z" />
    <glyph glyph-name="Lcommaaccent" unicode="&#x13b;" horiz-adv-x="1189" 
d="M1137 338v-338h-1041v1372h393v-1034h648zM438 -92h373l-207 -334h-266z" />
    <glyph glyph-name="lcommaaccent" unicode="&#x13c;" horiz-adv-x="575" 
d="M479 0h-383v1475h383v-1475zM6 -426l100 334h373l-207 -334h-266z" />
    <glyph glyph-name="Lcaron" unicode="&#x13d;" horiz-adv-x="1189" 
d="M1137 338v-338h-1041v1372h393v-1034h648zM909 963h-260v409h344z" />
    <glyph glyph-name="lcaron" unicode="&#x13e;" horiz-adv-x="575" 
d="M479 0h-383v1475h383v-1475zM846 1065h-260v410h344z" />
    <glyph glyph-name="Ldot" unicode="&#x13f;" horiz-adv-x="1224" 
d="M1137 338v-338h-1041v1372h393v-1034h648zM862 547q-91 0 -149 58t-58 147q0 83 59 142.5t148 59.5q91 0 151 -59.5t60 -142.5q0 -89 -59.5 -147t-151.5 -58z" />
    <glyph glyph-name="ldot" unicode="&#x140;" horiz-adv-x="966" 
d="M479 0h-383v1475h383v-1475zM748 954q89 0 148.5 -59.5t59.5 -142.5q0 -89 -58.5 -147t-149.5 -58q-92 0 -150.5 57.5t-58.5 147.5q0 84 59.5 143t149.5 59z" />
    <glyph glyph-name="Lslash" unicode="&#x141;" horiz-adv-x="1245" 
d="M1178 338v-338h-1041v453l-102 -45v329l102 45v590h393v-414l193 86v-329l-193 -86v-291h648z" />
    <glyph glyph-name="lslash" unicode="&#x142;" horiz-adv-x="663" 
d="M629 729l-105 -53v-676h-385v475l-104 -53v356l104 53v644h385v-443l105 53v-356z" />
    <glyph glyph-name="Nacute" unicode="&#x143;" horiz-adv-x="1540" 
d="M950 1499h-354l154 328h460zM1446 1372v-1372h-326l-631 707v-707h-393v1372h324l631 -731v731h395z" />
    <glyph glyph-name="nacute" unicode="&#x144;" horiz-adv-x="1269" 
d="M813 1161h-354l153 328h461zM791 1065q176 0 282.5 -114.5t106.5 -309.5v-641h-385v559q0 74 -40 119t-106 45q-78 0 -124 -57t-46 -164v-502h-383v1034h383v-104q126 135 312 135z" />
    <glyph glyph-name="Ncommaaccent" unicode="&#x145;" horiz-adv-x="1540" 
d="M1446 1372v-1372h-326l-631 707v-707h-393v1372h324l631 -731v731h395zM621 -92h372l-207 -334h-266z" />
    <glyph glyph-name="ncommaaccent" unicode="&#x146;" horiz-adv-x="1269" 
d="M791 1065q176 0 282.5 -114.5t106.5 -309.5v-641h-385v559q0 74 -40 119t-106 45q-78 0 -124 -57t-46 -164v-502h-383v1034h383v-104q126 135 312 135zM449 -92h372l-207 -334h-266z" />
    <glyph glyph-name="Ncaron" unicode="&#x147;" horiz-adv-x="1540" 
d="M578 1493l-240 332h362l74 -103l72 103h364l-241 -332h-391zM1446 1372v-1372h-326l-631 707v-707h-393v1372h324l631 -731v731h395z" />
    <glyph glyph-name="ncaron" unicode="&#x148;" horiz-adv-x="1269" 
d="M442 1155l-239 332h362l74 -103l72 103h364l-241 -332h-392zM791 1065q176 0 282.5 -114.5t106.5 -309.5v-641h-385v559q0 74 -40 119t-106 45q-78 0 -124 -57t-46 -164v-502h-383v1034h383v-104q126 135 312 135z" />
    <glyph glyph-name="Eng" unicode="&#x14a;" horiz-adv-x="1527" 
d="M1446 1372v-1417q0 -151 -97 -237.5t-259 -86.5q-24 0 -47.5 1.5t-41 2.5t-39 5t-32.5 5.5t-32 7t-26.5 7t-27 7.5t-23.5 7l43 256q92 -18 123 -18q74 0 74 70v84l-572 641v-707h-393v1372h324l631 -731v731h395z" />
    <glyph glyph-name="eng" unicode="&#x14b;" horiz-adv-x="1269" 
d="M791 1065q176 0 282.5 -114.5t106.5 -309.5v-686q0 -151 -97.5 -237.5t-259.5 -86.5q-24 0 -47.5 1.5t-41 2.5t-38.5 5t-32.5 6t-31.5 7t-26.5 6.5t-26.5 7.5t-24 7l43 256q92 -18 123 -18q74 0 74 70v577q0 74 -40 119t-106 45q-78 0 -124 -57t-46 -164v-502h-383v1034
h383v-104q126 135 312 135z" />
    <glyph glyph-name="Omacron" unicode="&#x14c;" horiz-adv-x="1601" 
d="M1153 1503h-704v287h704v-287zM801 1403q153 0 290.5 -56.5t235.5 -152t155.5 -228.5t57.5 -280q0 -148 -57.5 -281t-155.5 -228.5t-235.5 -151.5t-290.5 -56t-290.5 56t-236 151.5t-156 228.5t-57.5 281q0 147 57.5 280t156 228.5t236 152t290.5 56.5zM801 324
q149 0 245.5 103t96.5 259q0 155 -97 259t-245 104t-245 -104t-97 -259q0 -156 96.5 -259t245.5 -103z" />
    <glyph glyph-name="omacron" unicode="&#x14d;" horiz-adv-x="1241" 
d="M973 1165h-705v287h705v-287zM621 1063q158 0 289.5 -67.5t210.5 -193.5t79 -286q0 -159 -79 -284.5t-211 -193t-289 -67.5t-289 67.5t-211.5 193t-79.5 284.5q0 160 79.5 286t211 193.5t289.5 67.5zM621 289q87 0 148.5 65.5t61.5 161.5q0 97 -61.5 162t-148.5 65
t-149 -65t-62 -162q0 -96 62 -161.5t149 -65.5z" />
    <glyph glyph-name="Ohungarumlaut" unicode="&#x150;" horiz-adv-x="1601" 
d="M727 1499h-315l168 328h403zM852 1499l168 328h418l-269 -328h-317zM801 1403q153 0 290.5 -56.5t235.5 -152t155.5 -228.5t57.5 -280q0 -148 -57.5 -281t-155.5 -228.5t-235.5 -151.5t-290.5 -56t-290.5 56t-236 151.5t-156 228.5t-57.5 281q0 147 57.5 280t156 228.5
t236 152t290.5 56.5zM801 324q149 0 245.5 103t96.5 259q0 155 -97 259t-245 104t-245 -104t-97 -259q0 -156 96.5 -259t245.5 -103z" />
    <glyph glyph-name="ohungarumlaut" unicode="&#x151;" horiz-adv-x="1241" 
d="M547 1161h-316l168 328h404zM672 1161l168 328h417l-268 -328h-317zM621 1063q158 0 289.5 -67.5t210.5 -193.5t79 -286q0 -159 -79 -284.5t-211 -193t-289 -67.5t-289 67.5t-211.5 193t-79.5 284.5q0 160 79.5 286t211 193.5t289.5 67.5zM621 289q87 0 148.5 65.5
t61.5 161.5q0 97 -61.5 162t-148.5 65t-149 -65t-62 -162q0 -96 62 -161.5t149 -65.5z" />
    <glyph glyph-name="OE" unicode="&#x152;" horiz-adv-x="2107" 
d="M2032 332v-332h-1174q-177 0 -326 51t-252.5 141.5t-161 217.5t-57.5 276t57.5 276t161 217.5t252.5 141.5t326 51h1165v-332h-690v-202h635v-301h-635v-205h699zM940 332v708h-82q-191 0 -295 -97t-104 -257t104 -257t295 -97h82z" />
    <glyph glyph-name="oe" unicode="&#x153;" horiz-adv-x="1974" 
d="M1933 496v-72h-727q19 -75 67 -117.5t120 -42.5q132 0 184 101l340 -68q-63 -163 -199.5 -245.5t-324.5 -82.5q-225 0 -381 137q-163 -135 -391 -135q-157 0 -289 67.5t-211.5 193t-79.5 284.5q0 160 79.5 286t211 193.5t289.5 67.5q228 0 391 -135q156 137 381 137
q116 0 214.5 -38t170.5 -109t113 -179.5t42 -242.5zM1393 766q-63 0 -112 -35t-71 -96h353q-20 64 -65.5 97.5t-104.5 33.5zM621 289q87 0 148.5 65.5t61.5 161.5q0 97 -61.5 162t-148.5 65t-149 -65t-62 -162q0 -96 62 -161.5t149 -65.5z" />
    <glyph glyph-name="Racute" unicode="&#x154;" horiz-adv-x="1398" 
d="M846 1499h-354l153 328h461zM1393 0h-473l-377 438h-54v-438h-393v1372h731q221 0 357.5 -127t136.5 -334q0 -164 -88 -282t-242 -164zM489 750h265q83 0 131.5 41.5t48.5 109.5q0 65 -49 105.5t-131 40.5h-265v-297z" />
    <glyph glyph-name="racute" unicode="&#x155;" horiz-adv-x="909" 
d="M666 1161h-355l154 328h461zM479 1034v-205q115 218 344 218q43 0 74 -7l-14 -395h-62q-166 0 -254 -77t-88 -255v-313h-383v1034h383z" />
    <glyph glyph-name="Rcommaaccent" unicode="&#x156;" horiz-adv-x="1398" 
d="M1393 0h-473l-377 438h-54v-438h-393v1372h731q221 0 357.5 -127t136.5 -334q0 -164 -88 -282t-242 -164zM489 750h265q83 0 131.5 41.5t48.5 109.5q0 65 -49 105.5t-131 40.5h-265v-297zM522 -92h373l-207 -334h-266z" />
    <glyph glyph-name="rcommaaccent" unicode="&#x157;" horiz-adv-x="909" 
d="M823 1047q43 0 74 -7l-14 -395h-62q-166 0 -254 -77t-88 -255v-313h-383v1034h383v-205q115 218 344 218zM106 -92h373l-207 -334h-266z" />
    <glyph glyph-name="Rcaron" unicode="&#x158;" horiz-adv-x="1398" 
d="M473 1493l-240 332h363l74 -103l71 103h365l-242 -332h-391zM1393 0h-473l-377 438h-54v-438h-393v1372h731q221 0 357.5 -127t136.5 -334q0 -164 -88 -282t-242 -164zM489 750h265q83 0 131.5 41.5t48.5 109.5q0 65 -49 105.5t-131 40.5h-265v-297z" />
    <glyph glyph-name="rcaron" unicode="&#x159;" horiz-adv-x="909" 
d="M295 1155l-240 332h363l74 -103l71 103h365l-242 -332h-391zM479 1034v-205q115 218 344 218q43 0 74 -7l-14 -395h-62q-166 0 -254 -77t-88 -255v-313h-383v1034h383z" />
    <glyph glyph-name="Sacute" unicode="&#x15a;" horiz-adv-x="1333" 
d="M850 1499h-354l153 328h461zM668 1403q243 0 399 -104t193 -295l-386 -78q-19 90 -77.5 131t-128.5 41q-65 0 -105.5 -30t-40.5 -81q0 -71 80 -88l279 -65q194 -49 292.5 -147.5t98.5 -260.5q0 -93 -33.5 -170.5t-90 -130t-132 -88t-158 -52t-170.5 -16.5
q-253 0 -425.5 114.5t-201.5 309.5l402 76q47 -182 233 -182q73 0 117.5 28.5t44.5 81.5q0 34 -20.5 56.5t-73.5 35.5l-285 68q-377 87 -377 397q0 141 75 244t201.5 154t289.5 51z" />
    <glyph glyph-name="sacute" unicode="&#x15b;" horiz-adv-x="1077" 
d="M721 1161h-354l153 328h461zM39 268l367 72q13 -50 55 -75t98 -25q52 0 80.5 17.5t28.5 43.5t-21.5 39.5t-73.5 21.5l-206 35q-308 55 -308 308q0 166 131 263t332 97q202 0 329.5 -75.5t164.5 -213.5l-344 -67q-7 39 -47 70.5t-101 31.5q-49 0 -72.5 -17.5t-23.5 -43.5
q0 -41 68 -56l235 -47q153 -29 229 -114.5t76 -213.5q0 -166 -135.5 -258t-349.5 -92q-204 0 -342 74.5t-170 224.5z" />
    <glyph glyph-name="Scedilla" unicode="&#x15e;" horiz-adv-x="1333" 
d="M1272 426q0 -99 -37 -180t-102 -134.5t-145.5 -87t-174.5 -47.5l-82 -305h-395l199 310q-195 31 -322.5 139.5t-151.5 271.5l402 76q47 -182 233 -182q73 0 117.5 28.5t44.5 81.5q0 34 -20.5 56.5t-73.5 35.5l-285 68q-377 87 -377 397q0 141 75 244t201.5 154t289.5 51
q243 0 399 -104t193 -295l-386 -78q-19 90 -77.5 131t-128.5 41q-65 0 -105.5 -30t-40.5 -81q0 -71 80 -88l279 -65q194 -49 292.5 -147.5t98.5 -260.5z" />
    <glyph glyph-name="scedilla" unicode="&#x15f;" horiz-adv-x="1077" 
d="M1036 319q0 -135 -92 -221.5t-248 -115.5l-84 -310h-395l197 308q-151 21 -249.5 93t-125.5 195l367 72q13 -50 55 -75t98 -25q52 0 80.5 17.5t28.5 43.5t-21.5 39.5t-73.5 21.5l-206 35q-308 55 -308 308q0 166 131 263t332 97q202 0 329.5 -75.5t164.5 -213.5l-344 -67
q-7 39 -47 70.5t-101 31.5q-49 0 -72.5 -17.5t-23.5 -43.5q0 -41 68 -56l235 -47q153 -29 229 -114.5t76 -213.5z" />
    <glyph glyph-name="Scaron" unicode="&#x160;" horiz-adv-x="1333" 
d="M479 1493l-239 332h362l74 -103l72 103h364l-242 -332h-391zM602 899l279 -65q194 -49 292.5 -147.5t98.5 -260.5q0 -93 -33.5 -170.5t-90 -130t-132 -88t-158 -52t-170.5 -16.5q-253 0 -425.5 114.5t-201.5 309.5l402 76q47 -182 233 -182q73 0 117.5 28.5t44.5 81.5
q0 34 -20.5 56.5t-73.5 35.5l-285 68q-377 87 -377 397q0 141 75 244t201.5 154t289.5 51q243 0 399 -104t193 -295l-386 -78q-19 90 -77.5 131t-128.5 41q-65 0 -105.5 -30t-40.5 -81q0 -71 80 -88z" />
    <glyph glyph-name="scaron" unicode="&#x161;" horiz-adv-x="1077" 
d="M350 1155l-239 332h362l74 -103l71 103h365l-242 -332h-391zM496 694l235 -47q153 -29 229 -114.5t76 -213.5q0 -166 -135.5 -258t-349.5 -92q-204 0 -342 74.5t-170 224.5l367 72q13 -50 55 -75t98 -25q52 0 80.5 17.5t28.5 43.5t-21.5 39.5t-73.5 21.5l-206 35
q-308 55 -308 308q0 166 131 263t332 97q202 0 329.5 -75.5t164.5 -213.5l-344 -67q-7 39 -47 70.5t-101 31.5q-49 0 -72.5 -17.5t-23.5 -43.5q0 -41 68 -56z" />
    <glyph glyph-name="tcedilla" unicode="&#x163;" horiz-adv-x="882" 
d="M801 334l76 -289q-96 -54 -209 -70l-80 -301h-395l208 324q-117 41 -177 139.5t-60 245.5v352h-158v299h158v297h383v-297h274v-299h-274v-309q0 -125 123 -125q67 0 131 33z" />
    <glyph glyph-name="Tcaron" unicode="&#x164;" horiz-adv-x="1337" 
d="M473 1493l-240 332h363l74 -103l71 103h365l-242 -332h-391zM1296 1034h-430v-1034h-395v1034h-430v338h1255v-338z" />
    <glyph glyph-name="tcaron" unicode="&#x165;" horiz-adv-x="882" 
d="M874 1090h-260v409h344zM670 301q67 0 131 33l76 -289q-139 -76 -295 -76q-201 0 -309.5 109t-108.5 305v352h-158v299h158v297h383v-297h274v-299h-274v-309q0 -125 123 -125z" />
    <glyph glyph-name="Tbar" unicode="&#x166;" horiz-adv-x="1337" 
d="M866 1034v-235h217v-303h-217v-496h-395v496h-215v303h215v235h-430v338h1255v-338h-430z" />
    <glyph glyph-name="tbar" unicode="&#x167;" horiz-adv-x="882" 
d="M817 350l45 -309q-141 -72 -287 -72q-201 0 -309 109t-108 305v70h-109v243h109v80h-150v258h150v297h385v-297h272v-258h-272v-80h170v-243h-170v-27q0 -66 30.5 -95.5t92.5 -29.5q67 0 151 49z" />
    <glyph glyph-name="Umacron" unicode="&#x16a;" horiz-adv-x="1464" 
d="M1083 1503h-704v287h704v-287zM1366 1372v-751q0 -298 -171 -475t-454 -177q-291 0 -467 177t-176 475v751h396v-751q0 -138 66.5 -216.5t180.5 -78.5q104 0 167 78.5t63 216.5v751h395z" />
    <glyph glyph-name="umacron" unicode="&#x16b;" horiz-adv-x="1269" 
d="M987 1165h-704v287h704v-287zM1174 1034v-1034h-383v104q-126 -135 -312 -135q-176 0 -282.5 114.5t-106.5 309.5v641h385v-559q0 -74 40 -119t106 -45q78 0 124 57t46 164v502h383z" />
    <glyph glyph-name="Uring" unicode="&#x16e;" horiz-adv-x="1464" 
d="M731 1450q-115 0 -194.5 77t-79.5 187t79.5 187t194.5 77t195 -77t80 -187t-80 -187t-195 -77zM731 1794q-35 0 -59.5 -23.5t-24.5 -56.5t24.5 -56.5t59.5 -23.5t59.5 23.5t24.5 56.5t-24.5 56.5t-59.5 23.5zM1366 1372v-751q0 -298 -171 -475t-454 -177q-291 0 -467 177
t-176 475v751h396v-751q0 -138 66.5 -216.5t180.5 -78.5q104 0 167 78.5t63 216.5v751h395z" />
    <glyph glyph-name="uring" unicode="&#x16f;" horiz-adv-x="1269" 
d="M635 1112q-115 0 -195 77t-80 187t80 187t195 77t194.5 -77t79.5 -187t-79.5 -187t-194.5 -77zM635 1456q-35 0 -59.5 -23.5t-24.5 -56.5t24.5 -56.5t59.5 -23.5t59.5 23.5t24.5 56.5t-24.5 56.5t-59.5 23.5zM1174 1034v-1034h-383v104q-126 -135 -312 -135
q-176 0 -282.5 114.5t-106.5 309.5v641h385v-559q0 -74 40 -119t106 -45q78 0 124 57t46 164v502h383z" />
    <glyph glyph-name="Uhungarumlaut" unicode="&#x170;" horiz-adv-x="1464" 
d="M657 1499h-315l168 328h403zM782 1499l168 328h418l-268 -328h-318zM971 1372h395v-751q0 -298 -171 -475t-454 -177q-291 0 -467 177t-176 475v751h396v-751q0 -138 66.5 -216.5t180.5 -78.5q104 0 167 78.5t63 216.5v751z" />
    <glyph glyph-name="uhungarumlaut" unicode="&#x171;" horiz-adv-x="1269" 
d="M561 1161h-315l168 328h403zM686 1161l168 328h418l-268 -328h-318zM791 1034h383v-1034h-383v104q-126 -135 -312 -135q-176 0 -282.5 114.5t-106.5 309.5v641h385v-559q0 -74 40 -119t106 -45q78 0 124 57t46 164v502z" />
    <glyph glyph-name="Uogonek" unicode="&#x172;" horiz-adv-x="1464" 
d="M1159 111q-40 -38 -61.5 -59.5t-47.5 -54.5t-37.5 -65.5t-11.5 -68.5q0 -64 62 -64q29 0 111 27l53 -215q-145 -68 -269 -68q-103 0 -171 58.5t-68 150.5q0 111 96 221q-50 -4 -74 -4q-291 0 -467 172t-176 461v770h396v-770q0 -129 66.5 -202.5t180.5 -73.5
q104 0 167 73.5t63 202.5v770h395v-770q0 -312 -207 -491z" />
    <glyph glyph-name="uogonek" unicode="&#x173;" horiz-adv-x="1269" 
d="M1223 -184l14 -211q-96 -47 -209 -47q-100 0 -163.5 53t-63.5 145q0 131 131 244h-141v104q-126 -135 -312 -135q-176 0 -282.5 114.5t-106.5 309.5v641h385v-559q0 -74 40 -119t106 -45q78 0 124 57t46 164v502h383v-1034h2q-85 -89 -99 -111q-16 -24 -16 -45
q0 -49 57 -49q32 0 105 21z" />
    <glyph glyph-name="Wcircumflex" unicode="&#x174;" horiz-adv-x="2017" 
d="M936 1493h-363l240 332h391l242 -332h-365l-71 102zM2009 1372l-383 -1372h-424l-194 770l-195 -770h-424l-383 1372h404l215 -782l196 782h373l197 -782l215 782h403z" />
    <glyph glyph-name="wcircumflex" unicode="&#x175;" horiz-adv-x="1644" 
d="M750 1155h-363l240 332h391l242 -332h-365l-72 102zM1638 1034l-323 -1034h-326l-166 510l-168 -510h-325l-324 1034h377l137 -475l176 475h252l176 -475l138 475h376z" />
    <glyph glyph-name="Ycircumflex" unicode="&#x176;" horiz-adv-x="1476" 
d="M666 1493h-363l240 332h391l242 -332h-365l-72 102zM1470 1372l-536 -952v-420h-410v420l-518 952h432l299 -557l297 557h436z" />
    <glyph glyph-name="ycircumflex" unicode="&#x177;" horiz-adv-x="1277" 
d="M561 1157h-362l239 332h391l242 -332h-364l-72 103zM1272 1034l-598 -1382h-404l166 385l-430 997h406l219 -547l235 547h406z" />
    <glyph glyph-name="Ydieresis" unicode="&#x178;" horiz-adv-x="1476" 
d="M494 1462q-89 0 -146 56.5t-57 144.5q0 80 58 138.5t145 58.5t145.5 -58.5t58.5 -138.5q0 -88 -57.5 -144.5t-146.5 -56.5zM981 1462q-89 0 -146 56.5t-57 144.5q0 80 58 138.5t145 58.5t146 -58.5t59 -138.5q0 -88 -58 -144.5t-147 -56.5zM1470 1372l-536 -952v-420
h-410v420l-518 952h432l299 -557l297 557h436z" />
    <glyph glyph-name="Zacute" unicode="&#x179;" horiz-adv-x="1318" 
d="M840 1499h-355l154 328h461zM1253 332v-332h-1179v254l651 786h-635v332h1141v-305l-592 -735h614z" />
    <glyph glyph-name="zacute" unicode="&#x17a;" horiz-adv-x="1132" 
d="M745 1161h-354l154 328h461zM1065 299v-299h-997v246l477 489h-465v299h971v-252l-476 -483h490z" />
    <glyph glyph-name="Zdotaccent" unicode="&#x17b;" horiz-adv-x="1318" 
d="M662 1477q-92 0 -150.5 57.5t-58.5 146.5q0 84 59.5 144.5t149.5 60.5t150 -60.5t60 -144.5q0 -89 -59 -146.5t-151 -57.5zM1253 332v-332h-1179v254l651 786h-635v332h1141v-305l-592 -735h614z" />
    <glyph glyph-name="zdotaccent" unicode="&#x17c;" horiz-adv-x="1132" 
d="M567 1139q-92 0 -150.5 57.5t-58.5 146.5q0 84 59.5 144.5t149.5 60.5t150.5 -60.5t60.5 -144.5q0 -89 -59.5 -146.5t-151.5 -57.5zM1065 299v-299h-997v246l477 489h-465v299h971v-252l-476 -483h490z" />
    <glyph glyph-name="Zcaron" unicode="&#x17d;" horiz-adv-x="1318" 
d="M467 1493l-240 332h363l74 -103l71 103h365l-242 -332h-391zM1253 332v-332h-1179v254l651 786h-635v332h1141v-305l-592 -735h614z" />
    <glyph glyph-name="zcaron" unicode="&#x17e;" horiz-adv-x="1132" 
d="M375 1155l-240 332h363l73 -103l72 103h365l-242 -332h-391zM1065 299v-299h-997v246l477 489h-465v299h971v-252l-476 -483h490z" />
    <glyph glyph-name="florin" unicode="&#x192;" horiz-adv-x="1210" 
d="M940 1081q-54 0 -91 -31.5t-46 -88.5l-27 -142h248v-299h-301l-86 -473q-32 -176 -151 -280.5t-291 -104.5q-60 0 -113.5 15t-72.5 26t-56 35l106 278q67 -24 105 -24q37 0 62.5 22.5t31.5 59.5l82 446h-180v299h233l31 168q34 189 168 302.5t323 113.5q147 0 271 -70
l-117 -291q-68 39 -129 39z" />
    <glyph glyph-name="AEacute" unicode="&#x1fc;" horiz-adv-x="2152" 
d="M1534 1499h-354l153 328h461zM2085 332v-332h-1094v195h-422l-106 -195h-463l838 1372h1239v-332h-691v-202h633v-301h-633v-205h699zM991 522v439l-241 -439h241z" />
    <glyph glyph-name="aeacute" unicode="&#x1fd;" horiz-adv-x="1822" 
d="M1083 1161h-354l154 328h460zM1782 416h-725q19 -72 67 -112t123 -40q124 0 174 103l332 -70q-40 -146 -180.5 -237t-327.5 -91q-213 0 -366 125q-153 -125 -404 -125q-211 0 -325.5 88t-114.5 244q0 152 113.5 232.5t328.5 80.5h236v54q0 52 -34.5 84t-88.5 32
q-111 0 -129 -108l-355 74q26 139 152 227t334 88q205 0 332 -92q145 92 319 92q238 0 388.5 -153t150.5 -423v-73zM1055 614h356q-33 154 -170 154q-70 0 -119 -39t-67 -115zM711 412h-162q-61 0 -94 -22.5t-33 -63.5t33 -65.5t86 -24.5q67 0 118.5 39t51.5 100v37z" />
    <glyph glyph-name="Scommaaccent" unicode="&#x218;" horiz-adv-x="1333" 
d="M668 1403q243 0 399 -104t193 -295l-386 -78q-19 90 -77.5 131t-128.5 41q-65 0 -105.5 -30t-40.5 -81q0 -71 80 -88l279 -65q194 -49 292.5 -147.5t98.5 -260.5q0 -93 -33.5 -170.5t-90 -130t-132 -88t-158 -52t-170.5 -16.5q-253 0 -425.5 114.5t-201.5 309.5l402 76
q47 -182 233 -182q73 0 117.5 28.5t44.5 81.5q0 34 -20.5 56.5t-73.5 35.5l-285 68q-377 87 -377 397q0 141 75 244t201.5 154t289.5 51zM395 -426l101 334h372l-206 -334h-267z" />
    <glyph glyph-name="scommaaccent" unicode="&#x219;" horiz-adv-x="1077" 
d="M39 268l367 72q13 -50 55 -75t98 -25q52 0 80.5 17.5t28.5 43.5t-21.5 39.5t-73.5 21.5l-206 35q-308 55 -308 308q0 166 131 263t332 97q202 0 329.5 -75.5t164.5 -213.5l-344 -67q-7 39 -47 70.5t-101 31.5q-49 0 -72.5 -17.5t-23.5 -43.5q0 -41 68 -56l235 -47
q153 -29 229 -114.5t76 -213.5q0 -166 -135.5 -258t-349.5 -92q-204 0 -342 74.5t-170 224.5zM276 -426l101 334h373l-207 -334h-267z" />
    <glyph glyph-name="uni021A" unicode="&#x21a;" horiz-adv-x="1337" 
d="M1296 1034h-430v-1034h-395v1034h-430v338h1255v-338zM489 -92h373l-207 -334h-266z" />
    <glyph glyph-name="uni021B" unicode="&#x21b;" horiz-adv-x="882" 
d="M582 -31q-201 0 -309.5 109t-108.5 305v352h-158v299h158v297h383v-297h274v-299h-274v-309q0 -125 123 -125q67 0 131 33l76 -289q-139 -76 -295 -76zM352 -90h373l-207 -334h-266z" />
    <glyph glyph-name="circumflex" unicode="&#x2c6;" horiz-adv-x="1228" 
d="M688 1155l-72 102l-73 -102h-363l240 332h391l242 -332h-365z" />
    <glyph glyph-name="caron" unicode="&#x2c7;" horiz-adv-x="1228" 
d="M1053 1487l-242 -332h-391l-240 332h363l73 -103l72 103h365z" />
    <glyph glyph-name="breve" unicode="&#x2d8;" horiz-adv-x="1228" 
d="M614 1126q-172 0 -278.5 94.5t-106.5 249.5h291q0 -37 25.5 -62.5t68.5 -25.5t70 26t27 62h288q0 -155 -106.5 -249.5t-278.5 -94.5z" />
    <glyph glyph-name="dotaccent" unicode="&#x2d9;" horiz-adv-x="1228" 
d="M614 1548q90 0 150.5 -60.5t60.5 -144.5q0 -89 -59.5 -146.5t-151.5 -57.5t-150 57t-58 147q0 84 59 144.5t149 60.5z" />
    <glyph glyph-name="ring" unicode="&#x2da;" horiz-adv-x="1228" 
d="M889 1376q0 -110 -80 -187t-195 -77t-194.5 77t-79.5 187t79.5 187t194.5 77t195 -77t80 -187zM698 1376q0 33 -24.5 56.5t-59.5 23.5t-59.5 -23.5t-24.5 -56.5t24.5 -56.5t59.5 -23.5t59.5 23.5t24.5 56.5z" />
    <glyph glyph-name="ogonek" unicode="&#x2db;" horiz-adv-x="1228" 
d="M444 14l226 -14q-85 -89 -99 -111q-16 -24 -16 -45q0 -49 57 -49q32 0 105 21l14 -211q-96 -47 -209 -47q-100 0 -163.5 53t-63.5 145q0 67 38.5 134.5t110.5 123.5z" />
    <glyph glyph-name="tilde" unicode="&#x2dc;" horiz-adv-x="1228" 
d="M455 1174h-215q0 167 72 261.5t180 94.5q54 0 98.5 -19t79.5 -38t67 -19q29 0 44 15.5t26 52.5h215q0 -167 -72 -262t-180 -95q-54 0 -98 17.5t-79.5 35t-68.5 17.5q-30 0 -44 -13.5t-25 -47.5z" />
    <glyph glyph-name="hungarumlaut" unicode="&#x2dd;" horiz-adv-x="1228" 
d="M418 1161h-316l168 328h404zM860 1161h-317l168 328h417z" />
    <glyph glyph-name="uni0326" unicode="&#x326;" horiz-adv-x="0" 
d="M348 -426l101 334h372l-207 -334h-266z" />
    <glyph glyph-name="Wgrave" unicode="&#x1e80;" horiz-adv-x="2017" 
d="M842 1499l-260 328h460l154 -328h-354zM2009 1372l-383 -1372h-424l-194 770l-195 -770h-424l-383 1372h404l215 -782l196 782h373l197 -782l215 782h403z" />
    <glyph glyph-name="wgrave" unicode="&#x1e81;" horiz-adv-x="1644" 
d="M657 1161l-260 328h461l154 -328h-355zM1638 1034l-323 -1034h-326l-166 510l-168 -510h-325l-324 1034h377l137 -475l176 475h252l176 -475l138 475h376z" />
    <glyph glyph-name="Wacute" unicode="&#x1e82;" horiz-adv-x="2017" 
d="M1184 1499h-355l154 328h461zM2009 1372l-383 -1372h-424l-194 770l-195 -770h-424l-383 1372h404l215 -782l196 782h373l197 -782l215 782h403z" />
    <glyph glyph-name="wacute" unicode="&#x1e83;" horiz-adv-x="1644" 
d="M999 1161h-354l154 328h461zM1638 1034l-323 -1034h-326l-166 510l-168 -510h-325l-324 1034h377l137 -475l176 475h252l176 -475l138 475h376z" />
    <glyph glyph-name="Wdieresis" unicode="&#x1e84;" horiz-adv-x="2017" 
d="M764 1462q-89 0 -146 56.5t-57 144.5q0 80 58 138.5t145 58.5t146 -58.5t59 -138.5q0 -88 -58 -144.5t-147 -56.5zM1251 1462q-89 0 -145.5 56.5t-56.5 144.5q0 80 57.5 138.5t144.5 58.5t146 -58.5t59 -138.5q0 -88 -58 -144.5t-147 -56.5zM2009 1372l-383 -1372h-424
l-194 770l-195 -770h-424l-383 1372h404l215 -782l196 782h373l197 -782l215 782h403z" />
    <glyph glyph-name="wdieresis" unicode="&#x1e85;" horiz-adv-x="1644" 
d="M580 1124q-89 0 -146 56.5t-57 144.5q0 80 58 138.5t145 58.5t145.5 -58.5t58.5 -138.5q0 -88 -57.5 -144.5t-146.5 -56.5zM1067 1124q-89 0 -146 56.5t-57 144.5q0 80 58 138.5t145 58.5t146 -58.5t59 -138.5q0 -88 -58 -144.5t-147 -56.5zM1638 1034l-323 -1034h-326
l-166 510l-168 -510h-325l-324 1034h377l137 -475l176 475h252l176 -475l138 475h376z" />
    <glyph glyph-name="Ygrave" unicode="&#x1ef2;" horiz-adv-x="1476" 
d="M571 1499l-260 328h461l154 -328h-355zM1470 1372l-536 -952v-420h-410v420l-518 952h432l299 -557l297 557h436z" />
    <glyph glyph-name="ygrave" unicode="&#x1ef3;" horiz-adv-x="1277" 
d="M469 1163l-260 328h461l153 -328h-354zM1272 1034l-598 -1382h-404l166 385l-430 997h406l219 -547l235 547h406z" />
    <glyph glyph-name="endash" unicode="&#x2013;" horiz-adv-x="1269" 
d="M1147 403h-1024v302h1024v-302z" />
    <glyph glyph-name="emdash" unicode="&#x2014;" horiz-adv-x="2129" 
d="M2007 403h-1884v302h1884v-302z" />
    <glyph glyph-name="quoteleft" unicode="&#x2018;" horiz-adv-x="649" 
d="M297 1372h293l-119 -631h-414v9z" />
    <glyph glyph-name="quoteright" unicode="&#x2019;" horiz-adv-x="649" 
d="M350 741h-293l119 631h414v-8z" />
    <glyph glyph-name="quotesinglbase" unicode="&#x201a;" horiz-adv-x="649" 
d="M350 -270h-293l119 630h414v-8z" />
    <glyph glyph-name="quotedblleft" unicode="&#x201c;" horiz-adv-x="1132" 
d="M297 1372h293l-119 -631h-414v9zM782 1372h293l-119 -631h-413v9z" />
    <glyph glyph-name="quotedblright" unicode="&#x201d;" horiz-adv-x="1132" 
d="M350 741h-293l119 631h414v-8zM836 741h-293l119 631h413v-8z" />
    <glyph glyph-name="quotedblbase" unicode="&#x201e;" horiz-adv-x="1132" 
d="M350 -270h-293l119 630h414v-8zM836 -270h-293l119 630h413v-8z" />
    <glyph glyph-name="dagger" unicode="&#x2020;" horiz-adv-x="808" 
d="M743 1331v-209h-225v-510h-227v510h-225v209h225v185h227v-185h225z" />
    <glyph glyph-name="daggerdbl" unicode="&#x2021;" horiz-adv-x="808" 
d="M518 1122v-116h225v-209h-225v-185h-227v185h-225v209h225v116h-225v209h225v185h227v-185h225v-209h-225z" />
    <glyph glyph-name="bullet" unicode="&#x2022;" horiz-adv-x="833" 
d="M418 905q157 0 262.5 -109t105.5 -257q0 -156 -104.5 -260.5t-263.5 -104.5q-160 0 -264.5 104.5t-104.5 260.5q0 148 105.5 257t263.5 109z" />
    <glyph glyph-name="ellipsis" unicode="&#x2026;" horiz-adv-x="1681" 
d="M260 412q92 0 152.5 -63t60.5 -150q0 -90 -60 -149.5t-153 -59.5t-153 59.5t-60 149.5q0 87 60.5 150t152.5 63zM840 412q92 0 153.5 -63t61.5 -150q0 -90 -61 -149.5t-154 -59.5q-92 0 -151.5 59.5t-59.5 149.5q0 87 60.5 150t150.5 63zM1421 412q91 0 152 -63t61 -150
q0 -90 -60.5 -149.5t-152.5 -59.5q-93 0 -153 59.5t-60 149.5q0 87 60.5 150t152.5 63z" />
    <glyph glyph-name="perthousand" unicode="&#x2030;" horiz-adv-x="2682" 
d="M451 1403q152 0 258 -98.5t106 -255.5t-106 -256t-258 -99q-154 0 -261.5 99t-107.5 256t107.5 255.5t261.5 98.5zM328 0l979 1372h204l-976 -1372h-207zM451 1184q-53 0 -92.5 -37t-39.5 -98q0 -60 40 -98t92 -38q50 0 88.5 38t38.5 98q0 61 -38 98t-89 37zM1389 678
q152 0 258 -98.5t106 -255.5t-106 -256t-258 -99q-154 0 -261.5 99t-107.5 256t107.5 255.5t261.5 98.5zM2234 678q152 0 259.5 -98.5t107.5 -255.5t-107.5 -256t-259.5 -99q-154 0 -261 99t-107 256t107 255.5t261 98.5zM1389 459q-53 0 -92.5 -37t-39.5 -98q0 -60 40 -98
t92 -38q50 0 88.5 38t38.5 98q0 61 -38 98t-89 37zM2234 459q-52 0 -90.5 -36.5t-38.5 -98.5q0 -61 38.5 -98.5t90.5 -37.5q50 0 88.5 38t38.5 98q0 61 -38 98t-89 37z" />
    <glyph glyph-name="guilsinglleft" unicode="&#x2039;" horiz-adv-x="653" 
d="M51 537l203 364h348l-203 -364l203 -365h-348z" />
    <glyph glyph-name="guilsinglright" unicode="&#x203a;" horiz-adv-x="653" 
d="M51 172l203 365l-203 364h348l203 -364l-203 -365h-348z" />
    <glyph glyph-name="fraction" unicode="&#x2044;" horiz-adv-x="514" 
d="M-342 0l979 1372h205l-977 -1372h-207z" />
    <glyph glyph-name="Euro" unicode="&#x20ac;" horiz-adv-x="1521" 
d="M1079 586l381 -76q-34 -241 -199 -391t-409 -150q-221 0 -378 127.5t-216 347.5h-176v197h147v45v45h-147v195h176q57 221 215 349t379 128q242 0 403.5 -148t202.5 -387l-379 -71q-24 140 -83 207t-144 67q-130 0 -193 -145h302l-39 -195h-301l-3 -45q0 -24 3 -45h286
l-39 -197h-209q64 -143 193 -143q175 0 227 285z" />
    <glyph glyph-name="uni2116" unicode="&#x2116;" horiz-adv-x="2449" 
d="M1964 664q-161 0 -274 102.5t-113 261.5t113.5 262t273.5 103q163 0 277 -102.5t114 -262.5t-114 -262t-277 -102zM1051 1372h395v-1372h-326l-631 707v-707h-393v1372h324l631 -731v731zM1964 1153q-51 0 -84 -36t-33 -89t33 -89t84 -36q52 0 86.5 36t34.5 89t-34.5 89
t-86.5 36zM1589 582h754v-275h-754v275z" />
    <glyph glyph-name="uni2117" unicode="&#x2117;" horiz-adv-x="1550" 
d="M774 1403q194 0 358 -91.5t261.5 -257.5t97.5 -370q0 -154 -57.5 -288.5t-154.5 -227.5t-228.5 -146t-276.5 -53q-146 0 -278 53.5t-229 146.5t-154.5 227.5t-57.5 287.5q0 203 97.5 369t262 258t359.5 92zM774 86q120 0 228 45t188 123t127 190t47 240t-47 241.5
t-127 192.5t-188.5 124.5t-227.5 45.5q-120 0 -229 -45.5t-189 -124.5t-127 -192.5t-47 -241.5t47 -240t127 -190t189 -123t229 -45zM496 1059h362q138 0 215.5 -73t77.5 -187q0 -125 -84.5 -199t-224.5 -74h-125v-213h-221v746zM717 705h114q50 0 77.5 24.5t27.5 63.5
q0 36 -27.5 58.5t-77.5 22.5h-114v-169z" />
    <glyph glyph-name="trademark" unicode="&#x2122;" horiz-adv-x="1454" 
d="M621 1202h-175v-409h-200v409h-172v170h547v-170zM1362 793h-195v262l-104 -256h-88l-105 256v-262h-192v579h211l129 -305l131 305h213v-579z" />
    <glyph glyph-name="oneeighth" unicode="&#x215b;" horiz-adv-x="1677" 
d="M199 1065l-170 -92v244l254 155h166v-792h-250v485zM1376 1372l-979 -1372h-204l976 1372h207zM1503 412q133 -54 133 -193q0 -104 -94.5 -171.5t-247.5 -67.5q-151 0 -245.5 67.5t-94.5 171.5q0 137 131 193q-100 54 -100 168q0 94 90 160.5t221 66.5t220.5 -66.5
t89.5 -160.5q0 -114 -103 -168zM1296 627q-38 0 -63 -19.5t-25 -52.5q0 -32 25.5 -53t62.5 -21q35 0 61.5 21.5t26.5 52.5q0 33 -25.5 52.5t-62.5 19.5zM1296 170q39 0 64.5 21.5t25.5 54.5q0 34 -26 55t-64 21q-39 0 -65.5 -21t-26.5 -55t26 -55t66 -21z" />
    <glyph glyph-name="threeeighths" unicode="&#x215c;" horiz-adv-x="1761" 
d="M680 827q0 -111 -92 -186.5t-232 -75.5q-132 0 -220.5 70.5t-100.5 187.5l225 43q21 -96 100 -96q37 0 58.5 17.5t21.5 46.5t-24 47t-64 18h-90v172h82q40 0 65 16.5t25 45.5q0 28 -22 45.5t-58 17.5q-37 0 -60.5 -24.5t-27.5 -69.5l-225 43q11 104 98 176t213 72
q137 0 225.5 -72.5t88.5 -181.5q0 -94 -93 -150q107 -55 107 -162zM1460 1372l-979 -1372h-205l979 1372h205zM1573 412q133 -54 133 -193q0 -104 -94.5 -171.5t-247.5 -67.5q-151 0 -245.5 67.5t-94.5 171.5q0 137 131 193q-100 54 -100 168q0 94 90 160.5t221 66.5
t220 -66t89 -161q0 -115 -102 -168zM1366 627q-38 0 -63 -19.5t-25 -52.5q0 -32 25.5 -53t62.5 -21q35 0 61.5 21.5t26.5 52.5q0 33 -25.5 52.5t-62.5 19.5zM1366 170q39 0 64.5 21.5t25.5 54.5q0 34 -26 55t-64 21q-39 0 -65.5 -21t-26.5 -55t26 -55t66 -21z" />
    <glyph glyph-name="fiveeighths" unicode="&#x215d;" horiz-adv-x="1742" 
d="M694 844q0 -128 -87 -204.5t-232 -76.5q-140 0 -232 72.5t-104 183.5l233 39q9 -44 36.5 -66t64.5 -22t60.5 20t23.5 52t-23.5 50.5t-66.5 18.5h-301l22 461h565v-215h-354l-2 -57h109q138 0 213 -68.5t75 -187.5zM1464 1372l-979 -1372h-204l979 1372h204zM1567 412
q133 -54 133 -193q0 -104 -94.5 -171.5t-247.5 -67.5q-151 0 -245.5 67.5t-94.5 171.5q0 137 131 193q-100 54 -100 168q0 94 90 160.5t221 66.5t220 -66t89 -161q0 -115 -102 -168zM1360 627q-38 0 -63 -19.5t-25 -52.5q0 -32 25.5 -53t62.5 -21q35 0 61.5 21.5t26.5 52.5
q0 33 -25.5 52.5t-62.5 19.5zM1360 170q39 0 64.5 21.5t25.5 54.5q0 34 -26 55t-64 21q-39 0 -65.5 -21t-26.5 -55t26 -55t66 -21z" />
    <glyph glyph-name="seveneighths" unicode="&#x215e;" horiz-adv-x="1601" 
d="M92 580l268 577h-344v215h611v-190l-267 -602h-268zM1313 1372l-979 -1372h-205l979 1372h205zM1425 412q134 -55 134 -193q0 -104 -94.5 -171.5t-247.5 -67.5q-151 0 -245.5 67.5t-94.5 171.5q0 137 131 193q-101 55 -101 168q0 94 90.5 160.5t221.5 66.5t220 -66
t89 -161q0 -114 -103 -168zM1219 627q-38 0 -63.5 -19.5t-25.5 -52.5q0 -32 26 -53t63 -21q35 0 61.5 21.5t26.5 52.5q0 33 -25.5 52.5t-62.5 19.5zM1219 170q39 0 64.5 21.5t25.5 54.5q0 34 -26 55t-64 21q-39 0 -66 -21t-27 -55q0 -33 26.5 -54.5t66.5 -21.5z" />
    <glyph glyph-name="arrowleft" unicode="&#x2190;" horiz-adv-x="1488" 
d="M1407 502h-764l291 -291l-229 -231l-685 684l685 684l229 -230l-291 -293h764v-323z" />
    <glyph glyph-name="arrowup" unicode="&#x2191;" horiz-adv-x="1531" 
d="M1219 473l-291 291v-764h-324v764l-293 -291l-229 229l684 684l684 -684z" />
    <glyph glyph-name="arrowright" unicode="&#x2192;" horiz-adv-x="1488" 
d="M1468 664l-684 -684l-229 231l291 291h-764v323h764l-291 293l229 230z" />
    <glyph glyph-name="arrowdown" unicode="&#x2193;" horiz-adv-x="1531" 
d="M1450 670l-684 -684l-684 684l229 229l293 -291v764h324v-764l291 291z" />
    <glyph glyph-name="uni2196" unicode="&#x2196;" horiz-adv-x="1533" 
d="M1204 -20l-813 815v-430h-330v1007h1008l-2 -328h-430l815 -817z" />
    <glyph glyph-name="uni2197" unicode="&#x2197;" horiz-adv-x="1531" 
d="M1470 1372v-1007h-329v430l-813 -815l-248 247l815 817h-430l-2 328h1007z" />
    <glyph glyph-name="uni2198" unicode="&#x2198;" horiz-adv-x="1536" 
d="M1475 1008v-1008h-1008l2 328h430l-815 817l248 248l813 -815v430h330z" />
    <glyph glyph-name="uni2199" unicode="&#x2199;" horiz-adv-x="1536" 
d="M1067 328l2 -328h-1008v1008h330v-430l813 815l248 -248l-815 -817h430z" />
    <glyph glyph-name="minus" unicode="&#x2212;" horiz-adv-x="1161" 
d="M1079 469h-997v297h997v-297z" />
    <glyph glyph-name="approxequal" unicode="&#x2248;" horiz-adv-x="1155" 
d="M1073 950v-272q-92 -45 -223 -45q-76 0 -146 16.5t-116 35.5t-113.5 35.5t-138.5 16.5q-69 0 -141 -15t-113 -44v264q42 31 112.5 49.5t141.5 18.5q72 0 141.5 -16.5t117.5 -36t117.5 -36t141.5 -16.5q136 0 219 45zM1073 604v-272q-92 -45 -223 -45q-76 0 -146 16.5
t-116 35.5t-113.5 35.5t-138.5 16.5q-69 0 -141 -15t-113 -44v266q41 31 111.5 48.5t142.5 17.5t141.5 -16.5t117.5 -36t117.5 -36t141.5 -16.5q136 0 219 45z" />
    <glyph glyph-name="notequal" unicode="&#x2260;" horiz-adv-x="1161" 
d="M754 696l-66 -123h391v-282h-544l-97 -178h-266l96 178h-186v282h340l65 123h-405v283h559l84 156h266l-84 -156h172v-283h-325z" />
    <glyph glyph-name="lessequal" unicode="&#x2264;" horiz-adv-x="995" 
d="M915 453l-849 217v352l849 221v-311l-505 -86l505 -90v-303zM915 416v-297h-852v297h852z" />
    <glyph glyph-name="greaterequal" unicode="&#x2265;" horiz-adv-x="995" 
d="M588 846l-506 86v311l850 -221v-352l-850 -217v303zM934 119h-852v297h852v-297z" />
    <glyph glyph-name="K.ss03" horiz-adv-x="1470" 
d="M1485 0h-475l-318 473l-203 -244v-229h-393v1372h393v-592l500 592h447l-488 -590z" />
    <glyph glyph-name="Kcommaaccent.ss03" horiz-adv-x="1470" 
d="M1485 0h-475l-318 473l-203 -244v-229h-393v1372h393v-592l500 592h447l-488 -590zM563 -92h373l-207 -334h-266z" />
    <glyph glyph-name="Q.ss04" horiz-adv-x="1601" 
d="M1128 -348l-239 321q-58 -4 -88 -4q-153 0 -290.5 56t-236 151.5t-156 228.5t-57.5 281q0 147 57.5 280t156 228.5t236 152t290.5 56.5t290.5 -56.5t235.5 -152t155.5 -228.5t57.5 -280q0 -169 -72 -315t-200 -246l360 -473h-500zM459 686q0 -156 96.5 -259t245.5 -103
t245.5 103t96.5 259q0 155 -97 259t-245 104t-245 -104t-97 -259z" />
    <glyph glyph-name="I.ss05" horiz-adv-x="940" 
d="M668 1034v-696h231v-338h-858v338h231v696h-231v338h858v-338h-231z" />
    <glyph glyph-name="IJ.ss05" horiz-adv-x="2209" 
d="M899 1372v-338h-231v-696h231v-338h-858v338h231v696h-231v338h858zM2111 1372v-870q0 -238 -158 -385.5t-417 -147.5q-239 0 -388.5 128t-180.5 347l389 76q21 -201 180 -201q80 0 130 50.5t50 132.5v532h-428v338h823z" />
    <glyph glyph-name="Iacute.ss05" horiz-adv-x="940" 
d="M647 1499h-354l153 328h461zM899 1372v-338h-231v-696h231v-338h-858v338h231v696h-231v338h858z" />
    <glyph glyph-name="Icircumflex.ss05" horiz-adv-x="940" 
d="M397 1493h-362l239 332h392l241 -332h-364l-72 102zM899 1372v-338h-231v-696h231v-338h-858v338h231v696h-231v338h858z" />
    <glyph glyph-name="Idieresis.ss05" horiz-adv-x="940" 
d="M227 1462q-89 0 -145.5 56.5t-56.5 144.5q0 80 57.5 138.5t144.5 58.5t146 -58.5t59 -138.5q0 -88 -58 -144.5t-147 -56.5zM715 1462q-89 0 -146 56.5t-57 144.5q0 80 58 138.5t145 58.5t146 -58.5t59 -138.5q0 -88 -58 -144.5t-147 -56.5zM899 1372v-338h-231v-696h231
v-338h-858v338h231v696h-231v338h858z" />
    <glyph glyph-name="Idotaccent.ss05" horiz-adv-x="940" 
d="M469 1477q-92 0 -150.5 57.5t-58.5 146.5q0 84 59.5 144.5t149.5 60.5t150.5 -60.5t60.5 -144.5q0 -89 -59.5 -146.5t-151.5 -57.5zM668 1034v-696h231v-338h-858v338h231v696h-231v338h858v-338h-231z" />
    <glyph glyph-name="Igrave.ss05" horiz-adv-x="940" 
d="M305 1499l-260 328h461l153 -328h-354zM668 1034v-696h231v-338h-858v338h231v696h-231v338h858v-338h-231z" />
    <glyph glyph-name="Imacron.ss05" horiz-adv-x="940" 
d="M823 1503h-704v287h704v-287zM668 1034v-696h231v-338h-858v338h231v696h-231v338h858v-338h-231z" />
    <glyph glyph-name="Iogonek.ss05" horiz-adv-x="940" 
d="M668 1034v-696h231v-338h-231q-85 -89 -99 -111q-16 -24 -16 -45q0 -49 57 -49q32 0 105 21l14 -211q-96 -47 -209 -47q-100 0 -163.5 53t-63.5 145q0 131 131 244h-383v338h231v696h-231v338h858v-338h-231z" />
    <glyph glyph-name="J.ss05" horiz-adv-x="1269" 
d="M1171 1372v-870q0 -238 -158 -385.5t-417 -147.5q-239 0 -388.5 128t-180.5 347l389 76q21 -201 180 -201q80 0 130 50.5t50 132.5v532h-428v338h823z" />
    <glyph glyph-name="i.loclTRK" horiz-adv-x="610" 
d="M303 1548q90 0 150.5 -60.5t60.5 -144.5q0 -89 -59.5 -146.5t-151.5 -57.5t-150.5 57.5t-58.5 146.5q0 84 59.5 144.5t149.5 60.5zM498 0h-385v1034h385v-1034z" />
    <glyph glyph-name="germandbls.case" horiz-adv-x="2637" 
d="M668 1403q243 0 399 -104t193 -295l-386 -78q-19 90 -77.5 131t-128.5 41q-65 0 -105.5 -30t-40.5 -81q0 -71 80 -88l279 -65q194 -49 292.5 -147.5t98.5 -260.5q0 -93 -33.5 -170.5t-90 -130t-132 -88t-158 -52t-170.5 -16.5q-253 0 -425.5 114.5t-201.5 309.5l402 76
q47 -182 233 -182q73 0 117.5 28.5t44.5 81.5q0 34 -20.5 56.5t-73.5 35.5l-285 68q-377 87 -377 397q0 141 75 244t201.5 154t289.5 51zM1972 1403q243 0 399 -104t193 -295l-385 -78q-19 90 -78 131t-129 41q-65 0 -105 -30t-40 -81q0 -71 80 -88l278 -65
q194 -49 292.5 -147.5t98.5 -260.5q0 -93 -33.5 -170.5t-89.5 -130t-131.5 -88t-158 -52t-170.5 -16.5q-253 0 -425.5 114.5t-201.5 309.5l401 76q47 -182 234 -182q73 0 117.5 28.5t44.5 81.5q0 34 -21 56.5t-74 35.5l-284 68q-377 87 -377 397q0 141 74.5 244t201 154
t289.5 51z" />
    <glyph glyph-name="a.ss01" horiz-adv-x="1157" 
d="M592 1065q232 0 361.5 -112t129.5 -316v-637h-370v72q-122 -103 -301 -103q-170 0 -273.5 93t-103.5 245q0 157 117 245.5t333 88.5h228v27q0 51 -32 82.5t-83 31.5q-113 0 -133 -106l-363 74q38 151 166.5 233t323.5 82zM549 244q67 0 115.5 40.5t48.5 110.5v33h-154
q-55 0 -89 -25.5t-34 -66.5q0 -42 32 -67t81 -25z" />
    <glyph glyph-name="aacute.ss01" horiz-adv-x="1157" 
d="M766 1161h-354l153 328h461zM592 1065q232 0 361.5 -112t129.5 -316v-637h-370v72q-122 -103 -301 -103q-170 0 -273.5 93t-103.5 245q0 157 117 245.5t333 88.5h228v27q0 51 -32 82.5t-83 31.5q-113 0 -133 -106l-363 74q38 151 166.5 233t323.5 82zM549 244
q67 0 115.5 40.5t48.5 110.5v33h-154q-55 0 -89 -25.5t-34 -66.5q0 -42 32 -67t81 -25z" />
    <glyph glyph-name="abreve.ss01" horiz-adv-x="1157" 
d="M590 1126q-172 0 -278.5 94.5t-106.5 249.5h291q0 -37 25.5 -62.5t68.5 -25.5t69.5 25.5t26.5 62.5h289q0 -155 -106.5 -249.5t-278.5 -94.5zM592 1065q232 0 361.5 -112t129.5 -316v-637h-370v72q-122 -103 -301 -103q-170 0 -273.5 93t-103.5 245q0 157 117 245.5
t333 88.5h228v27q0 51 -32 82.5t-83 31.5q-113 0 -133 -106l-363 74q38 151 166.5 233t323.5 82zM549 244q67 0 115.5 40.5t48.5 110.5v33h-154q-55 0 -89 -25.5t-34 -66.5q0 -42 32 -67t81 -25z" />
    <glyph glyph-name="acircumflex.ss01" horiz-adv-x="1157" 
d="M516 1155h-362l239 332h391l242 -332h-364l-72 102zM592 1065q232 0 361.5 -112t129.5 -316v-637h-370v72q-122 -103 -301 -103q-170 0 -273.5 93t-103.5 245q0 157 117 245.5t333 88.5h228v27q0 51 -32 82.5t-83 31.5q-113 0 -133 -106l-363 74q38 151 166.5 233
t323.5 82zM549 244q67 0 115.5 40.5t48.5 110.5v33h-154q-55 0 -89 -25.5t-34 -66.5q0 -42 32 -67t81 -25z" />
    <glyph glyph-name="adieresis.ss01" horiz-adv-x="1157" 
d="M346 1124q-89 0 -146 56.5t-57 144.5q0 80 58 138.5t145 58.5t146 -58.5t59 -138.5q0 -88 -58 -144.5t-147 -56.5zM834 1124q-89 0 -146 56.5t-57 144.5q0 80 58 138.5t145 58.5t145.5 -58.5t58.5 -138.5q0 -88 -57.5 -144.5t-146.5 -56.5zM592 1065q232 0 361.5 -112
t129.5 -316v-637h-370v72q-122 -103 -301 -103q-170 0 -273.5 93t-103.5 245q0 157 117 245.5t333 88.5h228v27q0 51 -32 82.5t-83 31.5q-113 0 -133 -106l-363 74q38 151 166.5 233t323.5 82zM549 244q67 0 115.5 40.5t48.5 110.5v33h-154q-55 0 -89 -25.5t-34 -66.5
q0 -42 32 -67t81 -25z" />
    <glyph glyph-name="agrave.ss01" horiz-adv-x="1157" 
d="M424 1161l-260 328h461l153 -328h-354zM592 1065q232 0 361.5 -112t129.5 -316v-637h-370v72q-122 -103 -301 -103q-170 0 -273.5 93t-103.5 245q0 157 117 245.5t333 88.5h228v27q0 51 -32 82.5t-83 31.5q-113 0 -133 -106l-363 74q38 151 166.5 233t323.5 82zM549 244
q67 0 115.5 40.5t48.5 110.5v33h-154q-55 0 -89 -25.5t-34 -66.5q0 -42 32 -67t81 -25z" />
    <glyph glyph-name="amacron.ss01" horiz-adv-x="1157" 
d="M942 1165h-704v287h704v-287zM592 1065q232 0 361.5 -112t129.5 -316v-637h-370v72q-122 -103 -301 -103q-170 0 -273.5 93t-103.5 245q0 157 117 245.5t333 88.5h228v27q0 51 -32 82.5t-83 31.5q-113 0 -133 -106l-363 74q38 151 166.5 233t323.5 82zM549 244
q67 0 115.5 40.5t48.5 110.5v33h-154q-55 0 -89 -25.5t-34 -66.5q0 -42 32 -67t81 -25z" />
    <glyph glyph-name="aogonek.ss01" horiz-adv-x="1157" 
d="M1133 -184l14 -211q-96 -47 -209 -47q-100 0 -163.5 53t-63.5 145q0 131 131 244h-129v72q-122 -103 -301 -103q-170 0 -273.5 93t-103.5 245q0 157 117 245.5t333 88.5h228v27q0 51 -32 82.5t-83 31.5q-113 0 -133 -106l-363 74q38 151 166.5 233t323.5 82
q232 0 361.5 -112t129.5 -316v-637h2q-85 -89 -100 -113q-14 -23 -14 -43q0 -49 57 -49q32 0 105 21zM549 244q67 0 115.5 40.5t48.5 110.5v33h-154q-55 0 -89 -25.5t-34 -66.5q0 -42 32 -67t81 -25z" />
    <glyph glyph-name="aring.ss01" horiz-adv-x="1157" 
d="M590 1112q-115 0 -195 77t-80 187t80 187t195 77t194.5 -77t79.5 -187t-79.5 -187t-194.5 -77zM590 1456q-35 0 -59.5 -23.5t-24.5 -56.5t24.5 -56.5t59.5 -23.5t59.5 23.5t24.5 56.5t-24.5 56.5t-59.5 23.5zM592 1065q232 0 361.5 -112t129.5 -316v-637h-370v72
q-122 -103 -301 -103q-170 0 -273.5 93t-103.5 245q0 157 117 245.5t333 88.5h228v27q0 51 -32 82.5t-83 31.5q-113 0 -133 -106l-363 74q38 151 166.5 233t323.5 82zM549 244q67 0 115.5 40.5t48.5 110.5v33h-154q-55 0 -89 -25.5t-34 -66.5q0 -42 32 -67t81 -25z" />
    <glyph glyph-name="atilde.ss01" horiz-adv-x="1157" 
d="M500 1235q-30 0 -44.5 -13.5t-25.5 -47.5h-215q0 167 72 261.5t180 94.5q54 0 98.5 -19t80 -38t67.5 -19q29 0 43.5 15.5t25.5 52.5h215q0 -167 -72 -262t-180 -95q-54 0 -98 17.5t-79 35t-68 17.5zM592 1065q232 0 361.5 -112t129.5 -316v-637h-370v72
q-122 -103 -301 -103q-170 0 -273.5 93t-103.5 245q0 157 117 245.5t333 88.5h228v27q0 51 -32 82.5t-83 31.5q-113 0 -133 -106l-363 74q38 151 166.5 233t323.5 82zM549 244q67 0 115.5 40.5t48.5 110.5v33h-154q-55 0 -89 -25.5t-34 -66.5q0 -42 32 -67t81 -25z" />
    <glyph glyph-name="l.ss02" horiz-adv-x="712" 
d="M469 1475v-1098q0 -35 22.5 -56.5t59.5 -21.5q35 0 108 25l58 -281q-45 -25 -69 -36.5t-77 -24.5t-114 -13q-167 0 -269 103.5t-102 273.5v1129h383z" />
    <glyph glyph-name="lacute.ss02" horiz-adv-x="712" 
d="M463 1602h-354l153 327h461zM469 1475v-1098q0 -35 22.5 -56.5t59.5 -21.5q35 0 108 25l58 -281q-45 -25 -69 -36.5t-77 -24.5t-114 -13q-167 0 -269 103.5t-102 273.5v1129h383z" />
    <glyph glyph-name="lcaron.ss02" horiz-adv-x="712" 
d="M469 1475v-1098q0 -35 22.5 -56.5t59.5 -21.5q35 0 108 25l58 -281q-45 -25 -69 -36.5t-77 -24.5t-114 -13q-167 0 -269 103.5t-102 273.5v1129h383zM821 1065h-260v410h344z" />
    <glyph glyph-name="lcommaaccent.ss02" horiz-adv-x="712" 
d="M469 1475v-1098q0 -35 22.5 -56.5t59.5 -21.5q35 0 108 25l58 -281q-45 -25 -69 -36.5t-77 -24.5t-114 -13q-167 0 -269 103.5t-102 273.5v1129h383zM115 -426l100 334h373l-207 -334h-266z" />
    <glyph glyph-name="ldot.ss02" horiz-adv-x="966" 
d="M477 1475v-1098q0 -35 21.5 -56.5t58.5 -21.5q34 0 111 25l55 -281q-41 -24 -67 -36t-79 -25t-114 -13q-167 0 -269 103.5t-102 273.5v1129h385zM754 954q91 0 151 -59.5t60 -142.5q0 -89 -59.5 -147t-151.5 -58t-150.5 57.5t-58.5 147.5q0 84 59.5 143t149.5 59z" />
    <glyph glyph-name="lslash.ss02" horiz-adv-x="757" 
d="M705 324l55 -281q-41 -24 -67 -36t-79 -25t-114 -13q-167 0 -269 103.5t-102 273.5v125l-94 -49v356l94 49v648h385v-449l115 59v-356l-115 -59v-293q0 -35 21.5 -56.5t58.5 -21.5q34 0 111 25z" />
    <glyph glyph-name="k.ss03" horiz-adv-x="1282" 
d="M1296 0h-469l-211 305l-137 -162v-143h-383v1475h383v-795l309 354h451l-362 -424z" />
    <glyph glyph-name="kcommaaccent.ss03" horiz-adv-x="1282" 
d="M1296 0h-469l-211 305l-137 -162v-143h-383v1475h383v-795l309 354h451l-362 -424zM477 -92h373l-207 -334h-266z" />
    <glyph glyph-name="f_j" horiz-adv-x="1417" 
d="M1110 1128q-94 0 -154.5 59.5t-60.5 149.5q0 85 61 147t154 62q92 0 153.5 -62t61.5 -147q0 -90 -61 -149.5t-154 -59.5zM1305 1034v-1040q0 -163 -98.5 -263t-258.5 -100q-115 0 -225 50l53 276q52 -10 70 -10q34 0 54 22.5t20 59.5v706h-377v-735h-385v735h-138v299
h138v66q0 183 117 293t309 110q102 0 192 -33l-57 -296q-31 8 -60 8q-53 0 -84.5 -28.5t-31.5 -78.5v-41h762z" />
    <glyph glyph-name="f_t" horiz-adv-x="1638" 
d="M1554 334l76 -289q-139 -76 -295 -76q-201 0 -309 109t-108 305v352h-375v-735h-385v735h-138v299h138v66q0 183 117 293t309 110q102 0 192 -33l-57 -296q-31 8 -60 8q-53 0 -84.5 -28.5t-31.5 -78.5v-41h375v297h382v-297h275v-299h-275v-309q0 -66 31.5 -95.5
t93.5 -29.5q69 0 129 33z" />
    <glyph glyph-name="fl.ss02" horiz-adv-x="1503" 
d="M657 1182q-52 0 -83 -28.5t-31 -78.5v-41h252v-299h-252v-735h-385v735h-138v299h138v66q0 183 117 293t307 110q119 0 223 -43l-76 -289q-37 11 -72 11zM1450 324l55 -281q-41 -24 -67 -36t-79 -25t-114 -13q-167 0 -269 103.5t-102 273.5v1129h386v-1098
q0 -35 21 -56.5t58 -21.5q34 0 111 25z" />
    <glyph glyph-name="zero.tf" 
d="M625 1403q261 0 421 -198t160 -519q0 -322 -160 -519.5t-421 -197.5q-263 0 -423.5 197.5t-160.5 519.5q0 321 161 519t423 198zM625 305q87 0 135.5 96.5t48.5 284.5q0 187 -48.5 283t-135.5 96q-88 0 -137.5 -96t-49.5 -283q0 -188 49.5 -284.5t137.5 -96.5z" />
    <glyph glyph-name="one.tf" 
d="M1143 346v-346h-1028v346h358v563l-332 -145v362l465 246h254v-1026h283z" />
    <glyph glyph-name="two.tf" 
d="M1165 338v-338h-1056v260l485 434q39 35 55.5 50t44.5 45t40 50t22 48.5t10 56.5q0 60 -37.5 97.5t-97.5 37.5q-72 0 -116.5 -47.5t-51.5 -146.5l-373 69q12 209 157 329t376 120q233 0 377.5 -123t144.5 -336q0 -70 -18 -129t-59.5 -115.5t-83.5 -99t-116 -108.5
l-178 -154h475z" />
    <glyph glyph-name="three.tf" 
d="M999 700q166 -91 166 -282q0 -195 -151 -322t-385 -127q-222 0 -374 117t-181 320l379 67q13 -89 60.5 -137.5t119.5 -48.5t117 38t45 99q0 58 -44.5 89.5t-123.5 31.5h-170v297h159q78 0 122 29.5t44 84.5q0 62 -42.5 99t-112.5 37q-72 0 -117.5 -49t-54.5 -148l-367 70
q30 207 176 322.5t361 115.5q228 0 373 -123t145 -313q0 -177 -144 -267z" />
    <glyph glyph-name="four.tf" 
d="M1212 225h-149v-225h-365v225h-655v355l553 792h467v-829h149v-318zM698 543v440l-286 -440h286z" />
    <glyph glyph-name="five.tf" 
d="M506 895h172q240 0 369 -119t129 -325q0 -216 -147 -349t-388 -133q-229 0 -385 124t-168 345l373 70q3 -110 55.5 -161.5t128.5 -51.5q72 0 117 41t45 110q0 65 -47 104.5t-123 39.5h-485l28 784h938v-336h-606z" />
    <glyph glyph-name="six.tf" 
d="M729 891q216 0 346.5 -125.5t130.5 -327.5q0 -206 -150.5 -337.5t-381.5 -131.5q-277 0 -439.5 182t-162.5 508q0 381 196 580q164 164 410 164q194 0 328 -90.5t176 -255.5l-369 -74q-18 57 -53.5 79.5t-95.5 22.5q-84 0 -144 -67q-79 -91 -82 -242q54 54 130.5 84.5
t160.5 30.5zM662 276q72 0 126 50.5t54 124.5q0 76 -53.5 126t-126.5 50t-126 -50t-53 -126q0 -74 53.5 -124.5t125.5 -50.5z" />
    <glyph glyph-name="seven.tf" 
d="M1155 1372v-289l-508 -1083h-420l502 1034h-657v338h1083z" />
    <glyph glyph-name="eight.tf" 
d="M944 709q114 -45 175 -129t61 -201q0 -179 -154.5 -294.5t-404.5 -115.5q-249 0 -404.5 116t-155.5 296q0 116 61.5 199.5t176.5 130.5q-188 90 -188 301q0 167 145.5 279t366.5 112q220 0 365 -112t145 -279q0 -209 -189 -303zM621 1116q-66 0 -112 -37.5t-46 -101.5
t46 -101.5t112 -37.5t112.5 38t46.5 103q0 62 -46.5 99.5t-112.5 37.5zM621 268q69 0 117 40.5t48 107.5q0 68 -48 107.5t-117 39.5t-116.5 -39.5t-47.5 -107.5q0 -67 47.5 -107.5t116.5 -40.5z" />
    <glyph glyph-name="nine.tf" 
d="M573 1401q277 0 440 -182t163 -508q0 -377 -197 -580q-167 -164 -410 -164q-194 0 -327.5 90t-175.5 256l368 74q16 -57 52.5 -79.5t97.5 -22.5q83 0 143 67q77 89 80 240q-55 -53 -130 -83t-159 -30q-216 0 -346.5 125.5t-130.5 327.5q0 206 150.5 337.5t381.5 131.5z
M586 743q71 0 124.5 50.5t53.5 126.5q0 73 -53.5 123.5t-124.5 50.5q-72 0 -127.5 -50.5t-55.5 -123.5q0 -76 55 -126.5t128 -50.5z" />
    <glyph glyph-name="zero.zero.tf" 
d="M625 1403q261 0 421 -198t160 -519q0 -322 -160 -519.5t-421 -197.5q-263 0 -423.5 197.5t-160.5 519.5q0 321 161 519t423 198zM625 1065q-88 0 -137.5 -96t-49.5 -283q0 -36 4 -94l299 407q-45 66 -116 66zM625 305q87 0 135.5 96.5t48.5 284.5q0 59 -2 86l-299 -403
q46 -64 117 -64z" />
    <glyph glyph-name="zero.zero" horiz-adv-x="1345" 
d="M680 1403q278 0 448 -198t170 -519q0 -323 -170 -520t-448 -197q-280 0 -451.5 197.5t-171.5 519.5q0 212 77.5 375t219.5 252.5t326 89.5zM680 1065q-104 0 -164.5 -100t-60.5 -279q0 -64 10 -129l338 459q-52 49 -123 49zM680 305q102 0 161.5 100.5t59.5 280.5
q0 69 -10 137l-340 -463q52 -55 129 -55z" />
    <glyph glyph-name="zero.dnom" horiz-adv-x="843" 
d="M424 807q166 0 267.5 -113.5t101.5 -300.5q0 -186 -101.5 -299.5t-267.5 -113.5q-167 0 -269 113.5t-102 299.5q0 187 102 300.5t269 113.5zM424 195q51 0 79.5 50t28.5 148q0 96 -28.5 146.5t-79.5 50.5q-52 0 -81.5 -50.5t-29.5 -146.5q0 -98 29.5 -148t81.5 -50z" />
    <glyph glyph-name="one.dnom" horiz-adv-x="538" 
d="M449 0h-250v485l-170 -92v244l254 156h166v-793z" />
    <glyph glyph-name="two.dnom" horiz-adv-x="741" 
d="M434 211h242v-211h-615v154l283 256q38 36 52 50t27 35t13 42q0 29 -18 46t-47 17q-35 0 -58 -26t-24 -80l-230 43q0 122 85 198t227 76q138 0 223.5 -72t85.5 -200q0 -78 -38.5 -132.5t-121.5 -123.5z" />
    <glyph glyph-name="three.dnom" horiz-adv-x="724" 
d="M573 403q107 -55 107 -161q0 -111 -92 -186.5t-232 -75.5q-132 0 -220.5 70.5t-100.5 187.5l225 43q22 -97 100 -97q37 0 58.5 17.5t21.5 46.5t-24 47t-64 18h-90v172h82q40 0 65 16.5t25 45.5q0 28 -22 45.5t-58 17.5q-37 0 -60.5 -24.5t-27.5 -69.5l-225 43
q11 104 98 176t213 72q137 0 225.5 -72.5t88.5 -181.5q0 -94 -93 -150z" />
    <glyph glyph-name="four.dnom" horiz-adv-x="796" 
d="M766 121h-96v-121h-234v121h-401v225l342 447h293v-469h96v-203zM436 324v221l-164 -221h164z" />
    <glyph glyph-name="five.dnom" horiz-adv-x="731" 
d="M297 516h109q138 0 213 -68.5t75 -187.5q0 -127 -87 -203.5t-232 -76.5q-140 0 -232 72.5t-104 183.5l233 38q9 -44 36.5 -66t64.5 -22t60.5 20t23.5 52t-24 51t-66 19h-301l22 460h565v-215h-354z" />
    <glyph glyph-name="six.dnom" horiz-adv-x="753" 
d="M438 516q123 0 199 -72.5t76 -189.5q0 -122 -89 -198t-225 -76q-166 0 -262 104t-96 291q0 221 117 338q94 94 243 94q123 0 202.5 -59.5t98.5 -165.5l-231 -37q-12 61 -80 61q-42 0 -69 -35q-30 -38 -39 -100q70 45 155 45zM391 172q40 0 67 25.5t27 64.5q0 38 -27 64
t-67 26q-41 0 -67.5 -25.5t-26.5 -64.5t27 -64.5t67 -25.5z" />
    <glyph glyph-name="seven.dnom" horiz-adv-x="643" 
d="M627 791v-191l-267 -602h-268l268 577h-344v216h611z" />
    <glyph glyph-name="eight.dnom" horiz-adv-x="780" 
d="M598 412q133 -54 133 -193q0 -104 -94.5 -171.5t-247.5 -67.5q-151 0 -245.5 67.5t-94.5 171.5q0 137 131 193q-100 54 -100 168q0 94 90 160.5t221 66.5t220 -66t89 -161q0 -115 -102 -168zM391 627q-38 0 -63 -19.5t-25 -52.5q0 -32 25.5 -53t62.5 -21q35 0 61.5 21.5
t26.5 52.5q0 33 -25.5 52.5t-62.5 19.5zM391 170q39 0 64.5 21.5t25.5 54.5q0 34 -26 55t-64 21q-39 0 -65.5 -21t-26.5 -55t26 -55t66 -21z" />
    <glyph glyph-name="nine.dnom" horiz-adv-x="753" 
d="M354 807q166 0 262.5 -104t96.5 -291q0 -222 -117 -336q-96 -96 -242 -96q-124 0 -203.5 59.5t-99.5 167.5l234 37q7 -36 26 -50t51 -14q38 0 70 35q33 35 39 104q-66 -47 -156 -47q-123 0 -198.5 72.5t-75.5 190.5q0 120 89 196t224 76zM362 434q41 0 68 26t27 64
q0 41 -26.5 66.5t-68.5 25.5q-40 0 -66 -26t-26 -66q0 -38 26 -64t66 -26z" />
    <glyph glyph-name="zero.numr" horiz-adv-x="843" 
d="M424 1393q166 0 267.5 -113.5t101.5 -300.5q0 -186 -101.5 -300t-267.5 -114q-167 0 -269 114t-102 300q0 187 102 300.5t269 113.5zM424 780q51 0 79.5 50.5t28.5 148.5q0 96 -28.5 146.5t-79.5 50.5q-52 0 -81.5 -50.5t-29.5 -146.5q0 -98 29.5 -148.5t81.5 -50.5z" />
    <glyph glyph-name="one.numr" horiz-adv-x="538" 
d="M449 580h-250v485l-170 -92v244l254 155h166v-792z" />
    <glyph glyph-name="two.numr" horiz-adv-x="741" 
d="M434 793h242v-211h-615v153l283 256q38 36 52 50t27 35t13 42q0 29 -18 46.5t-47 17.5q-35 0 -58 -26.5t-24 -80.5l-230 43q0 122 85.5 198.5t226.5 76.5q138 0 223.5 -72.5t85.5 -200.5q0 -78 -38.5 -132.5t-121.5 -123.5z" />
    <glyph glyph-name="three.numr" horiz-adv-x="724" 
d="M573 989q107 -55 107 -162q0 -111 -92 -186.5t-232 -75.5q-132 0 -220.5 70.5t-100.5 187.5l225 43q21 -96 100 -96q37 0 58.5 17.5t21.5 46.5t-24 47t-64 18h-90v172h82q40 0 65 16.5t25 45.5q0 28 -22 45.5t-58 17.5q-37 0 -60.5 -24.5t-27.5 -69.5l-225 43
q11 104 98 176t213 72q137 0 225.5 -72.5t88.5 -181.5q0 -94 -93 -150z" />
    <glyph glyph-name="four.numr" horiz-adv-x="796" 
d="M766 700h-96v-120h-234v120h-401v226l342 446h293v-469h96v-203zM436 903v221l-164 -221h164z" />
    <glyph glyph-name="five.numr" horiz-adv-x="731" 
d="M297 1100h109q138 0 213 -68.5t75 -187.5q0 -128 -87 -204.5t-232 -76.5q-140 0 -232 72.5t-104 183.5l233 39q9 -44 36.5 -66t64.5 -22t60.5 20t23.5 52t-23.5 50.5t-66.5 18.5h-301l22 461h565v-215h-354z" />
    <glyph glyph-name="six.numr" horiz-adv-x="753" 
d="M438 1102q123 0 199 -72.5t76 -189.5q0 -122 -89 -198.5t-225 -76.5q-166 0 -262 104.5t-96 291.5q0 220 117 337q95 95 243 95q123 0 202.5 -60t98.5 -166l-231 -37q-13 62 -80 62q-42 0 -69 -35q-30 -38 -39 -100q70 45 155 45zM391 758q40 0 67 25.5t27 64.5
q0 38 -27 64t-67 26q-41 0 -67.5 -25.5t-26.5 -64.5t27 -64.5t67 -25.5z" />
    <glyph glyph-name="seven.numr" horiz-adv-x="643" 
d="M627 1372v-190l-267 -602h-268l268 577h-344v215h611z" />
    <glyph glyph-name="eight.numr" horiz-adv-x="780" 
d="M598 997q133 -54 133 -192q0 -104 -94.5 -172t-247.5 -68q-151 0 -245.5 68t-94.5 172q0 136 131 192q-100 54 -100 168q0 94 90 161t221 67t220 -66.5t89 -161.5q0 -115 -102 -168zM391 1212q-38 0 -63 -19t-25 -52q0 -32 25.5 -53t62.5 -21q35 0 61.5 21.5t26.5 52.5
q0 33 -25.5 52t-62.5 19zM391 756q39 0 64.5 21t25.5 54q0 34 -26 55t-64 21q-39 0 -65.5 -21t-26.5 -55q0 -33 26 -54t66 -21z" />
    <glyph glyph-name="nine.numr" horiz-adv-x="753" 
d="M354 1393q166 0 262.5 -104.5t96.5 -291.5q0 -221 -117 -335q-97 -97 -242 -97q-124 0 -203.5 60t-99.5 168l234 36q7 -36 26 -49.5t51 -13.5q38 0 70 35q33 35 39 104q-66 -47 -156 -47q-123 0 -198.5 72t-75.5 190q0 120 89 196.5t224 76.5zM362 1020q41 0 68 26t27 64
q0 41 -26.5 66.5t-68.5 25.5q-40 0 -66 -26t-26 -66q0 -38 26 -64t66 -26z" />
    <glyph glyph-name="backslash.case" horiz-adv-x="923" 
d="M881 0h-349l-487 1372h348z" />
    <glyph glyph-name="periodcentered.case" horiz-adv-x="522" 
d="M260 885q92 0 152.5 -63t60.5 -150q0 -90 -60 -149.5t-153 -59.5t-153 59.5t-60 149.5q0 87 60.5 150t152.5 63z" />
    <glyph glyph-name="bullet.case" horiz-adv-x="833" 
d="M418 1028q157 0 262.5 -109t105.5 -257q0 -156 -104.5 -260.5t-263.5 -104.5q-160 0 -264.5 104.5t-104.5 260.5q0 148 105.5 257t263.5 109z" />
    <glyph glyph-name="colon.case" horiz-adv-x="522" 
d="M260 1167q92 0 152.5 -62t60.5 -149q0 -91 -60 -151t-153 -60t-153 60t-60 151q0 87 60.5 149t152.5 62zM260 555q92 0 152.5 -63t60.5 -150q0 -90 -60 -149.5t-153 -59.5t-153 59.5t-60 149.5q0 87 60.5 150t152.5 63z" />
    <glyph glyph-name="exclamdown.case" horiz-adv-x="626" 
d="M322 973q-90 0 -150.5 61.5t-60.5 145.5q0 87 59.5 144.5t151.5 57.5q93 0 154 -57.5t61 -144.5q0 -84 -61.5 -145.5t-153.5 -61.5zM96 63l31 820h373l30 -820v-63h-434v63z" />
    <glyph glyph-name="questiondown.case" horiz-adv-x="1128" 
d="M578 987q-92 0 -152.5 60.5t-60.5 144.5q0 88 60 145.5t153 57.5t153 -57.5t60 -145.5q0 -84 -60.5 -144.5t-152.5 -60.5zM700 465l381 -76q-34 -179 -176 -293t-377 -114q-218 0 -354.5 125.5t-136.5 314.5q0 144 92 244t254 139v94h377l-2 -340h-172q-74 0 -119 -32.5
t-45 -84.5q0 -57 36 -92t93 -35q61 0 100.5 41t48.5 109z" />
    <glyph glyph-name="semicolon.case" horiz-adv-x="593" 
d="M332 1167q92 0 153.5 -62.5t61.5 -148.5q0 -91 -61 -151t-154 -60q-92 0 -151.5 60t-59.5 151q0 87 60 149t151 62zM287 -270h-293l119 630h413v-8z" />
    <glyph glyph-name="slash.case" horiz-adv-x="993" 
d="M393 0h-313l518 1372h313z" />
    <glyph glyph-name="braceleft.case" horiz-adv-x="854" 
d="M565 1016v-123q0 -74 -29 -131t-85 -84q56 -27 85 -83.5t29 -131.5v-107q0 -24 13.5 -38.5t35.5 -14.5h172v-303h-294q-123 0 -198 73.5t-75 196.5v142q0 76 -104 104l-74 21v284l74 21q51 16 77.5 38.5t26.5 65.5v156q0 122 75 196t198 74h294v-303h-172
q-22 0 -35.5 -15t-13.5 -38z" />
    <glyph glyph-name="braceright.case" horiz-adv-x="854" 
d="M813 821v-284l-74 -21q-49 -13 -75.5 -37t-26.5 -67v-142q0 -122 -75.5 -196t-199.5 -74h-294v303h174q22 0 34.5 14t12.5 39v107q0 75 30 131.5t87 83.5q-57 27 -87 84t-30 131v123q0 24 -13 38.5t-34 14.5h-174v303h294q123 0 199 -74.5t76 -195.5v-156
q0 -44 25.5 -66.5t76.5 -37.5z" />
    <glyph glyph-name="bracketleft.case" horiz-adv-x="849" 
d="M442 1069v-766h340v-303h-686v1372h686v-303h-340z" />
    <glyph glyph-name="bracketright.case" horiz-adv-x="849" 
d="M754 1372v-1372h-686v303h340v766h-340v303h686z" />
    <glyph glyph-name="parenleft.case" horiz-adv-x="743" 
d="M461 686q0 -66 12 -125t29 -102.5t49.5 -94t58.5 -84t72 -87.5l-248 -228q-84 76 -147 150t-116.5 163t-81.5 192t-28 216t28 216.5t82 192.5t116.5 162.5t146.5 149.5l238 -227q-45 -57 -67.5 -87t-55.5 -83t-48.5 -95.5t-27.5 -102.5t-12 -126z" />
    <glyph glyph-name="parenright.case" horiz-adv-x="743" 
d="M72 1180l239 227q83 -76 145.5 -149.5t116 -162.5t81.5 -192.5t28 -216.5t-28 -216t-81.5 -192t-116 -163t-145.5 -150l-250 228q58 68 89.5 110t66.5 104.5t50.5 130t15.5 148.5q0 66 -12 126t-27.5 102.5t-48.5 95.5t-55.5 83t-67.5 87z" />
    <glyph glyph-name="emdash.case" horiz-adv-x="2129" 
d="M2007 518h-1884v301h1884v-301z" />
    <glyph glyph-name="endash.case" horiz-adv-x="1269" 
d="M1147 518h-1024v301h1024v-301z" />
    <glyph glyph-name="hyphen.case" horiz-adv-x="931" 
d="M809 510h-686v317h686v-317z" />
    <glyph glyph-name="guillemotleft.case" horiz-adv-x="1103" 
d="M51 659l203 365h348l-203 -365l203 -364h-348zM502 659l203 365h348l-203 -365l203 -364h-348z" />
    <glyph glyph-name="guillemotright.case" horiz-adv-x="1103" 
d="M51 295l203 364l-203 365h348l203 -365l-203 -364h-348zM502 295l203 364l-203 365h348l203 -365l-203 -364h-348z" />
    <glyph glyph-name="guilsinglleft.case" horiz-adv-x="653" 
d="M51 659l203 365h348l-203 -365l203 -364h-348z" />
    <glyph glyph-name="guilsinglright.case" horiz-adv-x="653" 
d="M51 295l203 364l-203 365h348l203 -365l-203 -364h-348z" />
    <glyph glyph-name="cent.tf" 
d="M815 457l352 -68q-27 -150 -129.5 -255t-251.5 -144v-256h-315v256q-183 45 -299.5 187.5t-116.5 338.5q0 198 116.5 340.5t299.5 187.5v246h315v-246q148 -39 250 -142t129 -251l-352 -73q-17 80 -66 121.5t-118 41.5q-91 0 -148 -64.5t-57 -160.5q0 -95 57 -159
t148 -64q69 0 118.5 42t67.5 122z" />
    <glyph glyph-name="dollar.tf" 
d="M1182 444q0 -90 -32 -163.5t-88 -123t-125.5 -81.5t-150.5 -47v-234h-317v240q-166 39 -280.5 145t-137.5 252l365 70q21 -99 81 -144t144 -45q65 0 108.5 27.5t43.5 71.5q0 33 -19.5 55t-68.5 33l-263 65q-358 84 -358 371q0 165 105 271.5t280 138.5v231h317v-238
q161 -36 263 -136.5t122 -248.5l-352 -61q-32 178 -203 178q-61 0 -98 -27.5t-37 -74.5q0 -66 74 -82l260 -62q183 -45 275 -137t92 -244z" />
    <glyph glyph-name="Euro.tf" 
d="M825 567l385 -69q-31 -234 -179.5 -381.5t-368.5 -147.5q-205 0 -348.5 127.5t-194.5 354.5h-94v196h69v39v39h-69v195h94q49 227 193 355t350 128q221 0 370 -149t176 -384l-377 -67q-39 268 -169 268q-114 0 -154 -151h237l-36 -195h-226v-39v-39h219l-36 -196h-158
q44 -150 154 -150q127 0 163 266z" />
    <glyph glyph-name="florin.tf" 
d="M997 1081q-54 0 -91 -31.5t-46 -88.5l-26 -142h247v-299h-301l-86 -473q-32 -176 -151 -280.5t-291 -104.5q-60 0 -113.5 15t-72.5 26t-56 35l107 278q67 -24 104 -24t62.5 22.5t31.5 59.5l82 446h-180v299h234l30 168q34 189 168.5 302.5t323.5 113.5q146 0 270 -70
l-117 -291q-68 39 -129 39z" />
    <glyph glyph-name="sterling.tf" 
d="M1176 332v-332h-1100v250l127 41v174h-127v311h127v176q0 203 133.5 327t351.5 124q206 0 337.5 -119t143.5 -311l-360 -68q-13 90 -42 123t-79 33q-46 0 -74 -30t-28 -79v-176h321v-311h-321v-133h590z" />
    <glyph glyph-name="yen.tf" 
d="M901 666h193v-220h-281v-75h281v-217h-281v-154h-395v154h-262v217h262v75h-262v220h176l-314 706h412l186 -534l185 534h428z" />
    <glyph glyph-name="approxequal.tf" 
d="M1120 950v-272q-92 -45 -223 -45q-76 0 -146 16.5t-116 35.5t-113.5 35.5t-138.5 16.5q-69 0 -141 -15t-113 -44v264q42 31 112.5 49.5t141.5 18.5q72 0 141.5 -16.5t117.5 -36t117.5 -36t141.5 -16.5q136 0 219 45zM1120 604v-272q-92 -45 -223 -45q-76 0 -146 16.5
t-116 35.5t-113.5 35.5t-138.5 16.5q-69 0 -141 -15t-113 -44v266q41 31 111.5 48.5t142.5 17.5t141.5 -16.5t117.5 -36t117.5 -36t141.5 -16.5q136 0 219 45z" />
    <glyph glyph-name="divide.tf" 
d="M623 1167q72 0 121 -50.5t49 -119.5q0 -71 -48.5 -119.5t-121.5 -48.5q-74 0 -122 48.5t-48 119.5q0 69 48.5 119.5t121.5 50.5zM1122 469h-995v297h995v-297zM623 403q72 0 121 -49t49 -118q0 -72 -48.5 -121t-121.5 -49q-74 0 -122 48.5t-48 121.5q0 69 48 118t122 49z
" />
    <glyph glyph-name="equal.tf" 
d="M1122 696h-995v283h995v-283zM1122 291h-995v282h995v-282z" />
    <glyph glyph-name="greater.tf" 
d="M696 668l-471 123v344l850 -293v-348l-850 -293v342z" />
    <glyph glyph-name="greaterequal.tf" 
d="M713 846l-506 86v311l850 -221v-352l-850 -217v303zM1057 119h-850v297h850v-297z" />
    <glyph glyph-name="less.tf" 
d="M1024 201l-850 293v348l850 293v-344l-471 -123l471 -125v-342z" />
    <glyph glyph-name="lessequal.tf" 
d="M1044 453l-849 217v352l849 221v-311l-505 -86l505 -90v-303zM1044 416v-297h-851v297h851z" />
    <glyph glyph-name="minus.tf" 
d="M1122 469h-995v297h995v-297z" />
    <glyph glyph-name="multiply.tf" 
d="M834 618l266 -266l-209 -209l-266 267l-269 -267l-206 209l266 266l-266 265l206 209l269 -267l266 267l209 -209z" />
    <glyph glyph-name="notequal.tf" 
d="M797 696l-66 -123h391v-282h-544l-97 -178h-264l96 178h-186v282h340l65 123h-405v283h559l84 156h264l-84 -156h172v-283h-325z" />
    <glyph glyph-name="plus.tf" 
d="M1122 469h-348v-352h-299v352h-348v297h348v352h299v-352h348v-297z" />
    <glyph glyph-name="plusminus.tf" 
d="M1122 987v-297h-348v-276h-299v276h-348v297h348v320h299v-320h348zM127 297h995v-297h-995v297z" />
    <glyph glyph-name="bar.case" horiz-adv-x="538" 
d="M442 -84h-346v1540h346v-1540z" />
    <glyph glyph-name="at.case" horiz-adv-x="1900" 
d="M1391 1036v-563q0 -38 25 -59t63 -21q48 0 82 48.5t49.5 119t15.5 152.5q0 178 -88 316t-236 211t-329 73q-195 0 -354.5 -86.5t-251 -242t-91.5 -347.5q0 -144 52.5 -267.5t144 -210t219.5 -135.5t275 -49q135 0 251.5 41.5t233.5 130.5l92 -147q-233 -197 -575 -197
q-253 0 -454 106t-314 295.5t-113 426.5q0 243 117 439t319.5 305.5t448.5 109.5q173 0 327 -56.5t267 -156t179 -244t66 -311.5q0 -70 -11.5 -136t-41 -133t-74.5 -116t-118 -80t-166 -31q-191 0 -258 125q-91 -123 -271 -123q-170 0 -281.5 113t-111.5 303
q0 191 112.5 303.5t280.5 112.5q150 0 240 -90v71h279zM954 475q66 0 112 46.5t46 121.5q0 74 -46 119t-112 45t-112.5 -45t-46.5 -119q0 -75 46.5 -121.5t112.5 -46.5z" />
    <glyph glyph-name="caron.alt" horiz-adv-x="1228" 
d="M721 922h-260v409h344z" />
    </font>
</defs>
</svg>
