<svg width="53" height="53" viewBox="0 0 53 53" fill="none" xmlns="http://www.w3.org/2000/svg">
<g clip-path="url(#clip0)">
<path d="M43.5283 11.065C43.5283 16.5709 38.0679 21.2126 31.1551 27.087C29.9647 28.0994 28.7287 29.1491 27.469 30.2484L26.4483 31.1386L25.4276 30.2484C24.1679 29.1491 22.9319 28.0994 21.7415 27.087C14.8287 21.2126 9.36829 16.5709 9.36829 11.065C9.36829 5.50101 13.1745 0.0426576 18.6847 0.00021632C20.7829 -0.0163461 23.6441 0.914256 26.4483 4.13875C28.371 1.8874 31.1359 0.00466747 34.1084 0.00021632C38.2905 -0.00816841 43.2779 4.13772 43.52 10.6022C43.5252 10.7586 43.5283 10.9128 43.5283 11.065Z" fill="#FF7366"/>
<path d="M43.5284 11.065C43.5284 16.571 38.0679 21.2126 31.1552 27.0871C29.9648 28.0995 28.7288 29.1491 27.469 30.2484L26.4484 31.1387V4.1388C28.3711 1.88744 31.1359 0.00470799 34.1085 0.000256835C38.2906 -0.0081279 43.278 4.13776 43.5201 10.6023C43.5253 10.7586 43.5284 10.9128 43.5284 11.065Z" fill="#E6455A"/>
<path d="M1.05432 12.5256C4.80902 12.5256 4.64475 17.0579 4.71006 20.5687V22.1524C4.77228 26.6554 5.17599 32.4626 10.4862 36.4996C11.6973 37.4313 13.219 38.2387 15.0203 38.9531C15.1444 38.7045 16.014 36.3754 16.1382 36.0339C14.9892 35.5992 13.9024 35.0712 12.6912 34.2638C9.64795 31.6862 9.39941 30.4751 9.61679 29.9161C9.98944 28.9844 12.0079 29.233 13.0016 29.4193C15.8897 29.9783 19.6785 31.8725 22.0697 34.2638C23.7465 35.7855 24.8955 37.7109 24.8955 39.8847V53.0001H12.4737V51.4473C12.4737 47.8449 11.0451 46.6856 8.68515 44.9466C5.05166 42.2448 0.0518799 38.5494 0.0518799 23.3947V12.5256H1.05432Z" fill="#FFE1BA"/>
<path d="M28.0011 15.6311V12.5256H26.4484H24.8956V15.6311H21.7902V18.7366H24.8956V21.842H26.4484H28.0011V18.7366H31.1066V15.6311H28.0011Z" fill="#E6F2F2"/>
<path d="M28.0011 18.7366H31.1066V15.6311H28.0011V12.5256H26.4484V21.842H28.0011V18.7366Z" fill="#CFE6E6"/>
<path d="M51.9457 12.5256C48.191 12.5256 48.2518 17.0579 48.1864 20.5687V22.1524C48.1242 26.6554 47.7205 32.4626 42.4103 36.4997C41.1992 37.4313 39.6775 38.2387 37.8762 38.9531C37.7521 38.7045 36.8825 36.3754 36.7583 36.0339C37.9073 35.5992 38.9941 35.0713 40.2053 34.2638C43.2486 31.6862 43.4971 30.4751 43.2797 29.9161C42.9071 28.9845 40.8886 29.233 39.8949 29.4193C37.0068 29.9783 33.218 31.8725 30.8268 34.2638C29.15 35.7855 28.001 37.7109 28.001 39.8847V53.0001H40.4228V51.4474C40.4228 47.8449 41.8514 46.6857 44.2114 44.9466C47.8448 42.2449 52.9481 38.5494 52.9481 23.3947V12.5256H51.9457Z" fill="#FFBFAB"/>
</g>
<defs>
<clipPath id="clip0">
<rect width="53" height="53" fill="white"/>
</clipPath>
</defs>
</svg>
