<svg width="155" height="99" viewBox="0 0 155 99" fill="none" xmlns="http://www.w3.org/2000/svg">
<path d="M56.7054 98.2907C53.9859 98.2907 51.6325 97.0799 51.0808 94.4189L43.4592 57.9319L38.44 66.5935C37.4098 68.3463 35.5251 69.5865 33.4989 69.5865H5.74183C2.57308 69.5865 0 67.0134 0 63.8544C0 60.6808 2.57308 58.1028 5.74183 58.1028H30.2178L41.1302 39.6616C42.3362 37.6256 44.6505 36.5173 47.0136 36.9176C49.3524 37.3082 51.2126 39.0952 51.6911 41.4144L56.305 63.7079L66.8268 5.33272C67.32 2.59851 69.6978 0.699219 72.4808 0.699219C72.4857 0.699219 72.5003 0.699219 72.5052 0.699219C75.2931 0.699219 77.6709 2.63269 78.1396 5.37666L89.3694 70.9047L92.9824 61.7501C93.8418 59.5529 95.9607 58.0931 98.319 58.0931H149.258C152.427 58.0931 155 60.6613 155 63.8398C155 67.0036 152.432 69.5816 149.258 69.5816H102.215L92.4991 94.1357C91.5616 96.5281 89.1692 97.9782 86.5668 97.7341C84.0181 97.4607 81.9431 95.5272 81.5037 92.9883L72.3441 39.4517L62.3545 94.2578C61.8662 96.9676 59.5275 98.281 56.7786 98.281C56.7542 98.2907 56.7298 98.2907 56.7054 98.2907Z" fill="#E6455A"/>
</svg>
