<svg width="121" height="121" viewBox="0 0 121 121" fill="none" xmlns="http://www.w3.org/2000/svg">
<path d="M60.5 112.724C58.0405 112.724 55.691 111.806 53.8847 110.138L11.6633 71.155C4.25107 64.3114 0 54.6033 0 44.5199C0 24.5345 16.2594 8.27539 36.2445 8.27539C45.224 8.27539 53.8769 11.6327 60.5 17.5907C67.1229 11.6327 75.776 8.27539 84.7555 8.27539C104.741 8.27539 121 24.5345 121 44.5199C121 54.6033 116.749 64.3116 109.337 71.1552L67.3408 109.923C65.5052 111.73 63.079 112.724 60.5 112.724Z" fill="#E6455A"/>
<path d="M84.7555 8.27539C75.776 8.27539 67.1231 11.6327 60.5 17.5907V112.724C63.079 112.724 65.5052 111.73 67.3408 109.923L109.337 71.155C116.749 64.3114 121 54.6033 121 44.5199C121 24.5345 104.741 8.27539 84.7555 8.27539Z" fill="#E6455A"/>
<path d="M72.5841 62.0531C71.4122 62.0531 70.3158 62.6324 69.6555 63.6004L62.9006 73.503L55.3175 47.0643C54.9186 45.6732 53.714 44.6646 52.2748 44.5155C50.8353 44.3666 49.45 45.1075 48.7745 46.3872L40.5087 62.0527H4.53674C5.94337 64.5996 7.65533 66.9846 9.65018 69.1425H42.6468C43.9615 69.1425 45.1684 68.4146 45.7821 67.2519L50.9324 57.4906L58.1672 82.7146C58.5462 84.0357 59.6544 85.0186 61.0111 85.2369C61.1997 85.2672 61.3883 85.2821 61.5755 85.2821C62.7347 85.2821 63.8364 84.7121 64.5034 83.7346L74.4573 69.142H111.35C113.344 66.9841 115.057 64.5991 116.463 62.0522H72.5841V62.0531Z" fill="#FFB6B6"/>
<path d="M72.5842 62.0532C71.4122 62.0532 70.3159 62.6324 69.6556 63.6004L62.9006 73.5031L60.5 65.1333V85.1155C60.6657 85.1682 60.8363 85.2096 61.0112 85.2377C61.1998 85.268 61.3884 85.2828 61.5755 85.2828C62.7347 85.2828 63.8365 84.7128 64.5034 83.7354L74.4573 69.1428H111.35C113.344 66.9849 115.057 64.5999 116.463 62.053H72.5842V62.0532Z" fill="#FFB6B6"/>
</svg>
