<svg width="91" height="121" viewBox="0 0 91 121" fill="none" xmlns="http://www.w3.org/2000/svg">
<path d="M79.2201 15.8532H68.7675V10.9561C68.7675 9.37165 67.1172 8.65153 65.6043 8.65153H57.4899C55.5645 2.89006 50.7507 0.00932613 45.2493 0.00932613C39.8084 -0.204889 34.8596 3.28899 33.0087 8.65153H25.0317C23.5188 8.65153 22.0059 9.37165 22.0059 10.9561V15.8532H11.553C5.35872 15.9224 0.291155 21.0399 0 27.5201V110.053C0 116.391 5.5014 121 11.553 121H79.2201C85.2717 121 90.7731 116.391 90.7731 110.053V27.5204C90.482 21.0399 85.4144 15.9224 79.2201 15.8532ZM27.507 14.413H35.0715C36.392 14.2443 37.4526 13.1922 37.6848 11.8204C38.4993 8.10565 41.6112 5.43914 45.2493 5.33878C48.8537 5.4532 51.9187 8.12799 52.6761 11.8204C52.9228 13.2396 54.0534 14.3052 55.4268 14.413H63.2664V25.9359H27.507V14.413ZM85.2717 110.053C85.2717 113.222 82.2459 115.238 79.2201 115.238H11.553C8.5272 115.238 5.5014 113.222 5.5014 110.053V27.5204C5.78203 24.2219 8.39136 21.6754 11.553 21.615H22.0056V28.9609C22.1509 30.5748 23.4856 31.782 25.0314 31.6977H65.604C67.1783 31.7878 68.5548 30.5971 68.7673 28.9609V21.6147H79.2199C82.3812 21.6754 84.9908 24.2217 85.2715 27.5201V110.053H85.2717Z" fill="#E6455A"/>
<path d="M34.7964 64.3937C33.7647 63.2548 32.052 63.1906 30.9453 64.2498L22.1431 73.0359L18.4296 69.0028C17.398 67.8639 15.6853 67.7999 14.5786 68.8589C13.5132 70.0278 13.5132 71.867 14.5786 73.0359L20.2174 79.0855C20.7054 79.6578 21.4104 79.9743 22.1428 79.9498C22.8683 79.939 23.5604 79.6283 24.0682 79.0855L34.7959 68.4268C35.8594 67.4051 35.9305 65.6738 34.9546 64.5602C34.9046 64.5021 34.8517 64.4466 34.7964 64.3937Z" fill="#E6455A"/>
<path d="M74.2689 70.5872H42.636C41.1167 70.5872 39.8853 71.8769 39.8853 73.4679C39.8853 75.0589 41.1167 76.3486 42.636 76.3486H74.2689C75.7882 76.3486 77.0197 75.0589 77.0197 73.4679C77.0197 71.8769 75.7882 70.5872 74.2689 70.5872Z" fill="#E6455A"/>
<path d="M34.7964 41.3478C33.7647 40.2089 32.052 40.1447 30.9453 41.2039L22.1431 49.99L18.4296 45.9569C17.398 44.818 15.6853 44.7537 14.5786 45.813C13.5132 46.9819 13.5132 48.8211 14.5786 49.99L20.2174 56.0396C20.7054 56.6119 21.4104 56.9284 22.1428 56.9039C22.8683 56.8931 23.5604 56.5824 24.0682 56.0396L34.7959 45.3809C35.8594 44.3592 35.9305 42.6279 34.9546 41.5143C34.9046 41.4561 34.8517 41.4007 34.7964 41.3478Z" fill="#E6455A"/>
<path d="M74.2689 47.5413H42.636C41.1167 47.5413 39.8853 48.831 39.8853 50.422C39.8853 52.013 41.1167 53.3027 42.636 53.3027H74.2689C75.7882 53.3027 77.0197 52.013 77.0197 50.422C77.0197 48.831 75.7882 47.5413 74.2689 47.5413Z" fill="#E6455A"/>
<path d="M34.7964 87.4392C33.7647 86.3004 32.052 86.2364 30.9453 87.2953L22.1431 96.0814L18.4296 92.0483C17.398 90.9094 15.6853 90.8455 14.5786 91.9044C13.5132 93.0733 13.5132 94.9125 14.5786 96.0814L20.2174 102.131C20.7054 102.703 21.4104 103.02 22.1428 102.995C22.8683 102.985 23.5604 102.674 24.0682 102.131L34.7959 91.4724C35.8594 90.4507 35.9305 88.7193 34.9546 87.6058C34.9046 87.5479 34.8517 87.4925 34.7964 87.4392Z" fill="#E6455A"/>
<path d="M74.2689 93.6331H42.636C41.1167 93.6331 39.8853 94.9228 39.8853 96.5138C39.8853 98.1048 41.1167 99.3945 42.636 99.3945H74.2689C75.7882 99.3945 77.0197 98.1048 77.0197 96.5138C77.0197 94.9228 75.7882 93.6331 74.2689 93.6331Z" fill="#E6455A"/>
</svg>
