<svg width="138" height="138" viewBox="0 0 138 138" fill="none" xmlns="http://www.w3.org/2000/svg">
<g clip-path="url(#clip0)">
<path d="M68.9915 43.125L68.979 73.2958C68.979 74.4414 69.4337 75.5363 70.2425 76.3449L91.826 97.9241L97.9241 91.826L77.6038 71.51L77.6164 43.125H68.9915Z" fill="#E6455A"/>
<path d="M77.6251 8.62476C47.2697 8.62476 22.1469 31.1685 17.9393 60.3748H0L21.5625 81.9373L43.125 60.3748H26.654C30.7798 35.9391 52.0328 17.2499 77.6251 17.2499C106.162 17.2499 129.375 40.4632 129.375 68.9999C129.375 97.5367 106.162 120.75 77.6251 120.75C61.5838 120.75 46.7091 113.49 36.8163 100.83L30.0191 106.136C41.5583 120.901 58.9093 129.375 77.6251 129.375C110.916 129.375 138 102.287 138 68.9999C138 35.7129 110.916 8.62501 77.6251 8.62476Z" fill="#E6455A"/>
</g>
<defs>
<clipPath id="clip0">
<rect width="138" height="138" fill="white"/>
</clipPath>
</defs>
</svg>
