<svg width="130" height="130" viewBox="0 0 130 130" fill="none" xmlns="http://www.w3.org/2000/svg">
<g clip-path="url(#clip0)">
<path d="M77.6208 71.1024L78.5016 71.3119L79.3824 71.1024C86.2948 69.4594 92.5274 65.4844 96.9322 59.9097C101.337 54.3349 103.763 47.352 103.763 40.2472V19.7267L78.5016 6.4751L53.2402 19.7267V40.2469C53.2402 47.3517 55.6663 54.3347 60.0708 59.9094C64.4758 65.4842 70.7085 69.4591 77.6208 71.1024ZM60.8574 24.3326L78.5016 15.0767L96.1456 24.3326V40.2472C96.1456 51.1537 88.9356 60.5744 78.5016 63.4651C68.0676 60.5744 60.8574 51.1537 60.8574 40.2472V24.3326Z" fill="#E6455A"/>
<path d="M90.8605 35.9396L85.4744 30.5535L76.4699 39.5577L71.5108 34.6637L66.1603 40.0856L76.5054 50.2944L90.8605 35.9396Z" fill="#E6455A"/>
<path d="M126.374 72.3877C121.694 67.7062 114.191 67.5251 109.29 71.9753L92.769 86.9797C90.8677 82.583 86.4896 79.4981 81.4028 79.4981H60.6036C55.5849 74.3946 48.7299 71.5 41.5302 71.5C36.2449 71.5 31.1467 73.0615 26.8232 75.9099C25.7403 71.0219 21.3743 67.3542 16.1654 67.3542H0V123.525H16.1654C20.4501 123.525 24.1645 121.043 25.951 117.442L43.9494 123.525H91.5093L126.212 90.0573C128.624 87.7318 129.969 84.6062 129.999 81.2564C130.03 77.9063 128.743 74.7569 126.374 72.3877ZM19.4662 112.607C19.4662 114.427 17.9854 115.908 16.1654 115.908H7.61719V74.9714H16.1654C17.9854 74.9714 19.4662 76.4522 19.4662 78.2722V112.607ZM120.925 84.5744L88.4348 115.908H45.2019L27.0834 109.784V85.7127C30.7265 81.5209 35.9849 79.117 41.5299 79.117C47.1098 79.117 52.4007 81.5489 56.0465 85.7894L57.186 87.115H81.4026C84.0277 87.115 86.1633 89.2506 86.1633 91.8758C86.1633 94.5009 84.0277 96.6365 81.4026 96.6365H59.6725V104.254H81.4026C86.1413 104.254 90.2642 101.576 92.3437 97.6552L114.411 77.6141C116.297 75.9012 119.186 75.9708 120.987 77.7728C121.899 78.6848 122.394 79.897 122.382 81.1863C122.371 82.4761 121.853 83.6791 120.925 84.5744Z" fill="#E6455A"/>
</g>
<defs>
<clipPath id="clip0">
<rect width="130" height="130" fill="white"/>
</clipPath>
</defs>
</svg>
