<svg width="118" height="118" viewBox="0 0 118 118" fill="none" xmlns="http://www.w3.org/2000/svg">
<g clip-path="url(#clip0)">
<path d="M96.6963 86.8862C101.311 91.5004 101.311 98.9691 96.6963 103.584L93.8521 106.428C93.0836 107.197 91.8377 107.197 91.0693 106.428C90.3008 105.66 90.3006 104.414 91.0693 103.645L93.9135 100.801C96.9898 97.7249 96.9903 92.7458 93.9135 89.669L82.9558 78.7111C79.8865 75.6422 74.8928 75.6422 71.824 78.7111L67.2436 83.2915C63.5265 87.0085 57.5101 87.009 53.7926 83.2915L33.5001 62.999C29.7831 59.282 29.7826 53.2656 33.5001 49.5481L38.0806 44.9677C41.1497 41.8986 41.1497 36.9049 38.0806 33.8358L27.1226 22.8781C24.0464 19.8018 19.0672 19.8016 15.9907 22.8781L11.9901 26.8785C1.22326 37.6455 1.22228 55.0718 11.9901 65.8399L50.9515 104.801C58.6883 112.538 70.2738 114.965 80.4687 110.985C81.4812 110.59 82.622 111.09 83.0173 112.102C83.4126 113.115 82.9123 114.256 81.9001 114.651C70.2381 119.204 57.0007 116.416 48.1687 107.584L9.20707 68.6229C-3.0691 56.3467 -3.0691 36.3719 9.20707 24.0957L13.2077 20.0953C17.8218 15.4809 25.2905 15.4802 29.9054 20.0953L40.8633 31.053C45.4669 35.6565 45.4669 43.1471 40.8633 47.7507L36.2829 52.3311C34.104 54.51 34.1038 58.0369 36.2829 60.2163L56.5754 80.5087C58.7491 82.6827 62.2863 82.6827 64.4605 80.5087L69.0409 75.9283C73.6442 71.325 81.1351 71.3248 85.7386 75.9283L96.6963 86.8862ZM108.161 1.18994H58.9646C53.5392 1.18994 49.1253 5.60382 49.1253 11.0292V30.7076C49.1253 36.133 53.5392 40.5469 58.9646 40.5469H60.9324V46.9424C60.9324 48.0311 61.8162 48.9102 62.9003 48.9102C63.651 48.9102 62.6521 49.383 77.9058 40.2682C78.8389 39.7108 79.1431 38.5025 78.5857 37.5695C78.0283 36.6365 76.8201 36.3322 75.8871 36.8896L64.8681 43.4741V38.579C64.8681 37.4923 63.987 36.6112 62.9003 36.6112H58.9646C55.7095 36.6112 53.061 33.9627 53.061 30.7076V11.0292C53.061 7.77411 55.7095 5.12564 58.9646 5.12564H108.161C111.416 5.12564 114.064 7.77411 114.064 11.0292V30.7076C114.064 33.9627 111.416 36.6112 108.161 36.6112H87.6624C86.5757 36.6112 85.6946 37.4923 85.6946 38.579C85.6946 39.6658 86.5757 40.5469 87.6624 40.5469H108.161C113.586 40.5469 118 36.133 118 30.7076V11.0292C118 5.60382 113.586 1.18994 108.161 1.18994ZM64.6221 22.8363C67.6061 22.8363 70.0337 20.4087 70.0337 17.4247C70.0337 14.4407 67.6061 12.0131 64.6221 12.0131H61.1784C60.0917 12.0131 59.2106 12.8942 59.2106 13.9809C59.2106 15.0677 60.0917 15.9488 61.1784 15.9488H64.6221C65.4361 15.9488 66.098 16.6107 66.098 17.4247C66.098 18.2386 65.4361 18.9006 64.6221 18.9006C61.6381 18.9006 59.2106 21.3282 59.2106 24.3121V27.7559C59.2106 28.8426 60.0917 29.7237 61.1784 29.7237H68.0659C69.1526 29.7237 70.0337 28.8426 70.0337 27.7559C70.0337 26.6691 69.1526 25.788 68.0659 25.788H63.1463V24.3121C63.1463 23.4982 63.8082 22.8363 64.6221 22.8363ZM81.8408 29.7237C82.9276 29.7237 83.8087 28.8426 83.8087 27.7559C83.8087 26.0839 83.8087 15.6593 83.8087 13.9809C83.8087 12.8942 82.9276 12.0131 81.8408 12.0131C80.7541 12.0131 79.873 12.8942 79.873 13.9809V18.9006H76.9212V13.9809C76.9212 12.8942 76.0401 12.0131 74.9533 12.0131C73.8666 12.0131 72.9855 12.8942 72.9855 13.9809V20.8684C72.9855 21.9552 73.8666 22.8363 74.9533 22.8363H79.873V27.7559C79.873 28.8426 80.7538 29.7237 81.8408 29.7237ZM101.156 29.7242C101.973 29.7242 102.736 29.2116 103.017 28.3957L107.752 14.6207C108.191 13.3443 107.241 12.0131 105.891 12.0131H99.0597C97.973 12.0131 97.0919 12.8942 97.0919 13.9809C97.0919 15.0677 97.973 15.9488 99.0597 15.9488H103.134L99.2949 27.1161C98.8533 28.3991 99.8132 29.725 101.156 29.7242ZM90.581 28.2279L94.0247 14.453C94.2882 13.3985 93.6471 12.3302 92.5929 12.0665C91.5384 11.8033 90.4701 12.4441 90.2064 13.4983L86.7626 27.2733C86.4992 28.3278 87.1402 29.3961 88.1945 29.6598C89.2505 29.9232 90.3178 29.2812 90.581 28.2279Z" fill="#E6455A"/>
</g>
<defs>
<clipPath id="clip0">
<rect width="118" height="118" fill="white"/>
</clipPath>
</defs>
</svg>
