<svg id="Capa_1" enable-background="new 0 0 512 512" height="512" viewBox="0 0 512 512" width="512" xmlns="http://www.w3.org/2000/svg"><g><path d="m61 387.622v109.378c0 8.284 6.716 15 15 15h360c8.284 0 15-6.716 15-15v-109.378c0-30.846-18.506-58.18-47.146-69.636l-19.89-7.956c13.775-13.812 22.036-32.791 22.036-53.03v-106c0-83.262-67.29-151-150-151s-150 67.738-150 151v106c0 20.239 8.261 39.218 22.035 53.03l-19.89 7.956c-28.639 11.456-47.145 38.79-47.145 69.636zm75-236.622c0-66.719 53.832-121 120-121s120 54.28 120 121v106c0 16.948-9.644 32.43-24.473 40.055-4.896-1.958-45.623-18.249-50.527-20.211v-16.926c26.88-15.584 45-44.674 45-77.918v-47c0-8.284-6.716-15-15-15h-15c-24.813 0-45-20.187-45-45 0-8.284-6.716-15-15-15s-15 6.716-15 15c0 24.813-20.187 45-45 45h-15c-8.284 0-15 6.716-15 15v47c0 32.261 17.069 61.839 45 77.958v16.886c-4.895 1.958-45.66 18.264-50.527 20.211-14.829-7.625-24.473-23.107-24.473-40.055zm144.429 149.927 6.521 2.608-30.95 46.423-30.949-46.423 6.521-2.608c5.694-2.278 9.428-7.793 9.428-13.927v-16.268c4.887.82 9.894 1.268 15 1.268 5.11 0 10.12-.435 15-1.257v16.257c0 6.134 3.734 11.649 9.429 13.927zm-24.429-58.927c-32.99 0-60-26.6-60-60v-32c24.507 0 46.306-11.814 60-30.047 13.694 18.233 35.493 30.047 60 30.047v32c0 33.084-26.916 60-60 60zm-75 165c0 8.271-6.729 15-15 15s-15-6.729-15-15 6.729-15 15-15 15 6.729 15 15zm-30-73.844v31.424c-17.459 6.192-30 22.865-30 42.42 0 24.813 20.187 45 45 45s45-20.187 45-45c0-19.555-12.541-36.228-30-42.42v-43.424l15.586-6.235 46.933 70.399c2.781 4.173 7.465 6.679 12.48 6.679s9.699-2.507 12.48-6.679l46.933-70.399 15.588 6.235v43.424c-17.459 6.192-30 22.865-30 42.42v30c0 8.284 6.716 15 15 15s15-6.716 15-15v-30c0-8.271 6.729-15 15-15s15 6.729 15 15v30c0 8.284 6.716 15 15 15s15-6.716 15-15v-30c0-19.555-12.541-36.228-30-42.42v-31.424l31.712 12.685c17.184 6.873 28.288 23.274 28.288 41.781v94.378h-330v-94.378c0-18.508 11.104-34.908 28.288-41.781z"/></g></svg>