<svg id="Capa_1" enable-background="new 0 0 512 512" height="512" viewBox="0 0 512 512" width="512" xmlns="http://www.w3.org/2000/svg"><g><path d="m166 151c-41.353 0-75-33.647-75-75s33.647-76 75-76 75 34.647 75 76-33.647 75-75 75z" fill="#fdc"/><path d="m346 151c-41.353 0-75-33.647-75-75s33.647-76 75-76 75 34.647 75 76-33.647 75-75 75z" fill="#ffc6c2"/><path d="m61 331v166c0 8.284 6.716 15 15 15h105l30-30h45v-151z" fill="#7ed8f6"/><path d="m331 512h105c8.284 0 15-6.716 15-15v-166h-195l-30 34.687v85.375l30 30.938h45z" fill="#e63950"/><path d="m435.099 360.099c19.201-18.898 30.901-45.298 30.901-74.099h15v-15c0-66.301-53.699-120-120-120h-75c-11.4 0-21.899 4.501-30 11.4l-30 33.6v159.375l30 35.625h105c28.801 0 55.201-11.7 74.099-30.901z" fill="#e63950"/><path d="m226 151h-75c-66.301 0-120 53.699-120 120v15h15c0 57.9 47.1 105 105 105h105v-228.6c-8.101-6.899-18.6-11.4-30-11.4z" fill="#7ed8f6"/><circle cx="256" cy="241" fill="#fdc" r="60"/><path d="m316 241c0-33.091-26.909-60-60-60v120c33.091 0 60-26.909 60-60z" fill="#ffc6c2"/><path d="m286 301h-30-30c-24.853 0-45 20.147-45 45v166h75 75v-166c0-24.853-20.147-45-45-45z" fill="#ffe470"/><path d="m331 346c0-24.853-20.147-45-45-45h-30v211h75z" fill="#ffc473"/><path d="m421 286c0 41.421-33.579 75-75 75h-45c-16.569 0-30 13.431-30 30 0 16.569 13.431 30 30 30h45c74.558 0 135-60.442 135-135 0-8.284-6.716-15-15-15h-30c-8.284 0-15 6.716-15 15z" fill="#ffc6c2"/><path d="m91 286c0 41.421 33.579 75 75 75h45c16.569 0 30 13.431 30 30 0 16.569-13.431 30-30 30h-45c-74.558 0-135-60.442-135-135 0-8.284 6.716-15 15-15h30c8.284 0 15 6.716 15 15z" fill="#fdc"/></g></svg>