<svg width="221" height="53" viewBox="0 0 221 53" fill="none" xmlns="http://www.w3.org/2000/svg">
<path d="M78.03 25.58H75.248V32.964H65.836V25.58H63.054V43H65.836V35.512H75.248V43H78.03V25.58ZM94.1598 36.266C94.0298 32.392 91.1698 29.74 87.7118 29.74C84.0718 29.74 81.0298 32.47 81.0298 36.578C81.0298 40.66 84.0978 43.364 87.6078 43.364C90.4678 43.364 92.7558 42.012 93.8217 39.308L91.4038 38.788C90.4938 40.608 89.0378 41.024 87.6078 41.024C85.7098 41.024 83.9678 39.594 83.7078 37.202H94.1598V36.266ZM87.7118 32.132C89.4798 32.132 90.9618 33.172 91.3778 35.278H83.7858C84.2018 33.198 86.0218 32.132 87.7118 32.132ZM109.764 30.104H107.06V31.586C105.942 30.416 104.33 29.74 102.38 29.74C98.9996 29.74 95.9836 32.496 95.9836 36.552C95.9836 40.634 98.9996 43.364 102.38 43.364C104.33 43.364 105.942 42.688 107.06 41.518V43H109.764V30.104ZM102.822 40.972C100.456 40.972 98.6096 39.282 98.6096 36.552C98.6096 33.848 100.456 32.132 102.822 32.132C104.954 32.132 107.06 33.848 107.06 36.552C107.06 39.282 104.954 40.972 102.822 40.972ZM116.565 43V24.28H113.861V43H116.565ZM128.413 40.114C127.737 40.556 126.905 40.816 126.229 40.816C124.955 40.816 124.097 40.036 124.097 38.424V32.34H128.517V30.104H124.097V26.1H121.393V30.104H118.611V32.34H121.393V38.606C121.393 41.804 123.265 43.364 126.047 43.364C127.139 43.364 128.023 43.104 129.245 42.376L128.413 40.114ZM138.607 29.74C136.683 29.74 135.175 30.442 134.135 31.69V24.28H131.431V43H134.135V37.046C134.135 33.796 135.669 32.236 137.983 32.236C139.829 32.236 141.051 33.64 141.051 35.746V43H143.781V35.2C143.781 31.976 141.701 29.74 138.607 29.74ZM162.271 40.738C158.761 40.738 156.005 37.956 156.005 34.29C156.005 30.624 158.761 27.842 162.271 27.842C165.001 27.842 167.237 29.298 168.017 32.236L170.721 31.456C169.733 27.608 166.379 25.216 162.271 25.216C157.201 25.216 153.197 29.22 153.197 34.29C153.197 39.386 157.201 43.364 162.271 43.364C166.379 43.364 169.759 40.998 170.721 36.916L168.017 36.344C167.237 39.282 165.001 40.738 162.271 40.738ZM186.621 30.104H183.917V31.586C182.799 30.416 181.187 29.74 179.237 29.74C175.857 29.74 172.841 32.496 172.841 36.552C172.841 40.634 175.857 43.364 179.237 43.364C181.187 43.364 182.799 42.688 183.917 41.518V43H186.621V30.104ZM179.679 40.972C177.313 40.972 175.467 39.282 175.467 36.552C175.467 33.848 177.313 32.132 179.679 32.132C181.811 32.132 183.917 33.848 183.917 36.552C183.917 39.282 181.811 40.972 179.679 40.972ZM198.336 29.948C196.1 29.948 194.462 31.144 193.422 32.86V30.104H190.718V43H193.422V38.45C193.422 34.914 195.034 32.626 198.31 32.626C198.544 32.626 198.856 32.626 199.064 32.652L199.246 30.052C198.908 29.948 198.648 29.948 198.336 29.948ZM213.42 36.266C213.29 32.392 210.43 29.74 206.972 29.74C203.332 29.74 200.29 32.47 200.29 36.578C200.29 40.66 203.358 43.364 206.868 43.364C209.728 43.364 212.016 42.012 213.082 39.308L210.664 38.788C209.754 40.608 208.298 41.024 206.868 41.024C204.97 41.024 203.228 39.594 202.968 37.202H213.42V36.266ZM206.972 32.132C208.74 32.132 210.222 33.172 210.638 35.278H203.046C203.462 33.198 205.282 32.132 206.972 32.132Z" fill="url(#paint0_linear)"/>
<g clip-path="url(#clip0)">
<path d="M43.5283 11.065C43.5283 16.5709 38.0679 21.2126 31.1551 27.087C29.9647 28.0994 28.7287 29.1491 27.469 30.2484L26.4483 31.1386L25.4276 30.2484C24.1679 29.1491 22.9319 28.0994 21.7415 27.087C14.8287 21.2126 9.36829 16.5709 9.36829 11.065C9.36829 5.50101 13.1745 0.0426576 18.6847 0.00021632C20.7829 -0.0163461 23.6441 0.914256 26.4483 4.13875C28.371 1.8874 31.1359 0.00466747 34.1084 0.00021632C38.2905 -0.00816841 43.2779 4.13772 43.52 10.6022C43.5252 10.7586 43.5283 10.9128 43.5283 11.065Z" fill="#FF7366"/>
<path d="M43.5284 11.065C43.5284 16.5709 38.0679 21.2126 31.1552 27.0871C29.9648 28.0994 28.7288 29.1491 27.469 30.2484L26.4484 31.1387V4.13877C28.3711 1.88741 31.1359 0.00467747 34.1085 0.000226317C38.2906 -0.00815842 43.278 4.13773 43.5201 10.6023C43.5253 10.7586 43.5284 10.9128 43.5284 11.065Z" fill="#E6455A"/>
<path d="M1.05432 12.5256C4.80902 12.5256 4.64475 17.0579 4.71006 20.5686V22.1524C4.77228 26.6553 5.17599 32.4625 10.4862 36.4996C11.6973 37.4313 13.219 38.2387 15.0203 38.953C15.1444 38.7045 16.014 36.3754 16.1382 36.0339C14.9892 35.5991 13.9024 35.0712 12.6912 34.2638C9.64795 31.6862 9.39941 30.475 9.61679 29.9161C9.98944 28.9844 12.0079 29.233 13.0016 29.4193C15.8897 29.9783 19.6785 31.8725 22.0697 34.2638C23.7465 35.7855 24.8955 37.7108 24.8955 39.8847V53H12.4737V51.4473C12.4737 47.8449 11.0451 46.6856 8.68515 44.9466C5.05166 42.2448 0.0518799 38.5493 0.0518799 23.3947V12.5256H1.05432Z" fill="#FFE1BA"/>
<path d="M28.0011 15.6311V12.5256H26.4484H24.8956V15.6311H21.7902V18.7365H24.8956V21.842H26.4484H28.0011V18.7365H31.1066V15.6311H28.0011Z" fill="#E6F2F2"/>
<path d="M28.0011 18.7365H31.1066V15.6311H28.0011V12.5256H26.4484V21.842H28.0011V18.7365Z" fill="#CFE6E6"/>
<path d="M51.9457 12.5256C48.191 12.5256 48.2518 17.0579 48.1864 20.5686V22.1524C48.1242 26.6553 47.7205 32.4625 42.4103 36.4996C41.1992 37.4312 39.6775 38.2387 37.8762 38.953C37.7521 38.7045 36.8825 36.3754 36.7583 36.0339C37.9073 35.5991 38.9941 35.0712 40.2053 34.2638C43.2486 31.6861 43.4971 30.475 43.2797 29.916C42.9071 28.9844 40.8886 29.2329 39.8949 29.4193C37.0068 29.9782 33.218 31.8725 30.8268 34.2638C29.15 35.7854 28.001 37.7108 28.001 39.8846V53H40.4228V51.4473C40.4228 47.8449 41.8514 46.6856 44.2114 44.9465C47.8448 42.2448 52.9481 38.5493 52.9481 23.3947V12.5256H51.9457Z" fill="#FFBFAB"/>
</g>
<defs>
<linearGradient id="paint0_linear" x1="82.5" y1="35" x2="189.5" y2="35" gradientUnits="userSpaceOnUse">
<stop stop-color="#FF7366"/>
<stop offset="1" stop-color="#E6455A"/>
</linearGradient>
<clipPath id="clip0">
<rect width="53" height="53" fill="white"/>
</clipPath>
</defs>
</svg>
